<?xml version="1.0" standalone="no"?>
<!DOCTYPE svg PUBLIC "-//W3C//DTD SVG 1.1//EN" "http://www.w3.org/Graphics/SVG/1.1/DTD/svg11.dtd" >
<svg xmlns="http://www.w3.org/2000/svg" xmlns:xlink="http://www.w3.org/1999/xlink" version="1.1">
<defs>
<font id="ABeZeh-Bold" horiz-adv-x="600" vert-adv-y="1000" >
  <font-face
    font-family="ABeZeh"
    font-weight="700"
    font-stretch="normal"
    units-per-em="1000"
    panose-1="0 0 8 0 0 0 0 0 0 0"
    ascent="800"
    descent="-200"
    x-height="520"
    cap-height="700"
    bbox="-426 -331 1489 1008"
    underline-thickness="50"
    underline-position="-100"
    unicode-range="U+0020-1F61B"
  />
<missing-glyph vert-adv-y="1400"
d="M494 -220h-389v960h389v-960zM147 701v-882h305v882h-305zM232 490q31 16 73 16q51 0 84.5 -29t33.5 -72q0 -36 -16 -58t-48 -49q-30 -25 -44.5 -44.5t-14.5 -49.5v-34h-49q-6 18 -6 44q0 39 17 63t50 50q26 22 38 37t12 37q0 23 -17 39t-45 16q-48 0 -84 -46l-41 32
q26 32 57 48zM248 105.5q11 11.5 30 11.5q17 0 29.5 -12t12.5 -30q0 -19 -11.5 -30t-30.5 -11q-17 0 -29 12t-12 29q0 19 11 30.5z" />
    <glyph glyph-name="f_f" unicode="ff" horiz-adv-x="680" vert-adv-y="1400"
d="M545 619.5q-21 -20.5 -21 -57.5v-61h144v-106h-144v-395h-130v395h-176v-395h-130v395h-74v106h74v40q0 93 55 146t147 53q83 0 159 -38q53 50 139 50q84 0 159 -48l-52 -88q-45 24 -93 24q-36 0 -57 -20.5zM394 563q0 32 7 56q-45 16 -95 16q-42 0 -65 -22t-23 -63v-49
h176v62z" />
    <glyph glyph-name="f_f_i" unicode="ffi" horiz-adv-x="899" vert-adv-y="1400"
d="M818 501l-130 -106h-164v-395h-130v395h-176v-395h-130v395h-74v106h74v40q0 93 55 146t147 53q83 0 159 -39q56 51 147 51q52 0 94 -12.5t83 -37.5l-54 -94q-31 16 -56 24t-55 8q-39 0 -61.5 -21t-22.5 -60v-58h294zM394 560q0 34 7 59q-45 16 -95 16q-42 0 -65 -22
t-23 -63v-49h176v59zM829 501v-501h-130v395h-10l130 106h10z" />
    <glyph glyph-name="f_f_l" unicode="ffl" horiz-adv-x="984" vert-adv-y="1400"
d="M983 13q-47 -25 -113 -25q-80 0 -132 43t-52 128v468q-41 13 -76 13q-42 0 -64 -20.5t-22 -57.5v-61h102l-17 -106h-85v-395h-130v395h-176v-395h-130v395h-74v106h74v40q0 93 55 146t147 53q84 0 158 -38q55 50 145 50q63 0 117 -16t106 -42v-513q0 -41 19.5 -62
t55.5 -21q32 0 64 13zM394 563q0 32 7 56q-45 16 -95 16q-42 0 -65 -22t-23 -63v-49h176v62z" />
    <glyph glyph-name="fi" unicode="fi" horiz-adv-x="593" vert-adv-y="1400"
d="M384 739.5q42 -12.5 83 -37.5l-54 -94q-31 16 -56 24t-55 8q-39 0 -61.5 -21t-22.5 -60v-58h294l-130 -106h-164v-395h-130v395h-74v106h74v59q0 90 55 141t147 51q52 0 94 -12.5zM523 0h-130v395h-10l130 106h10v-501z" />
    <glyph glyph-name="fl" unicode="fl" horiz-adv-x="677" vert-adv-y="1400"
d="M677 13q-47 -25 -113 -25q-80 0 -132 43t-52 128v468q-41 13 -76 13q-42 0 -64 -20.5t-22 -57.5v-61h102l-17 -106h-85v-395h-130v395h-74v106h74v62q0 88 54 138.5t145 50.5q63 0 117 -16t106 -42v-513q0 -41 19.5 -62t55.5 -21q32 0 64 13z" />
    <glyph glyph-name=".notdef" vert-adv-y="1400"
d="M494 -220h-389v960h389v-960zM147 701v-882h305v882h-305zM232 490q31 16 73 16q51 0 84.5 -29t33.5 -72q0 -36 -16 -58t-48 -49q-30 -25 -44.5 -44.5t-14.5 -49.5v-34h-49q-6 18 -6 44q0 39 17 63t50 50q26 22 38 37t12 37q0 23 -17 39t-45 16q-48 0 -84 -46l-41 32
q26 32 57 48zM248 105.5q11 11.5 30 11.5q17 0 29.5 -12t12.5 -30q0 -19 -11.5 -30t-30.5 -11q-17 0 -29 12t-12 29q0 19 11 30.5z" />
    <glyph glyph-name="space" unicode=" " horiz-adv-x="300" vert-adv-y="1400"
 />
    <glyph glyph-name="A" unicode="A" horiz-adv-x="684" vert-adv-y="1400"
d="M677 35l-127 -47l-69 186h-284l-69 -186l-121 47l268 665h138zM441 285l-99 284l-104 -284h203z" />
    <glyph glyph-name="Aacute" unicode="&#xc1;" horiz-adv-x="684" vert-adv-y="1400"
d="M677 35l-127 -47l-69 186h-284l-69 -186l-121 47l268 665h138zM441 285l-99 284l-104 -284h203zM415 968l55 -111l-229 -109l-45 79z" />
    <glyph glyph-name="Abreve" unicode="&#x102;" horiz-adv-x="684" vert-adv-y="1400"
d="M677 35l-127 -47l-69 186h-284l-69 -186l-121 47l268 665h138zM441 285l-99 284l-104 -284h203zM537 881q-28 -54 -76.5 -85.5t-117.5 -31.5t-118 31.5t-77 85.5l77 51q22 -31 49.5 -47.5t68.5 -16.5q40 0 67.5 16t50.5 48z" />
    <glyph glyph-name="Acircumflex" unicode="&#xc2;" horiz-adv-x="684" vert-adv-y="1400"
d="M677 35l-127 -47l-69 186h-284l-69 -186l-121 47l268 665h138zM441 285l-99 284l-104 -284h203zM541 830l-57 -82l-141 92l-140 -92l-58 82l150 93h96z" />
    <glyph glyph-name="Adieresis" unicode="&#xc4;" horiz-adv-x="684" vert-adv-y="1400"
d="M677 35l-127 -47l-69 186h-284l-69 -186l-121 47l268 665h138zM441 285l-99 284l-104 -284h203zM294 899.5q22 -22.5 22 -56.5t-22 -56t-56 -22q-33 0 -56 22.5t-23 55.5q0 34 22.5 56.5t56.5 22.5t56 -22.5zM504 899.5q23 -22.5 23 -56.5t-22.5 -56t-56.5 -22t-56 22
t-22 56t22 56.5t56 22.5q33 0 56 -22.5z" />
    <glyph glyph-name="Agrave" unicode="&#xc0;" horiz-adv-x="684" vert-adv-y="1400"
d="M677 35l-127 -47l-69 186h-284l-69 -186l-121 47l268 665h138zM441 285l-99 284l-104 -284h203zM446 748l-230 109l55 111l219 -141z" />
    <glyph glyph-name="Amacron" unicode="&#x100;" horiz-adv-x="684" vert-adv-y="1400"
d="M677 35l-127 -47l-69 186h-284l-69 -186l-121 47l268 665h138zM441 285l-99 284l-104 -284h203zM503 780h-320v101h320v-101z" />
    <glyph glyph-name="Aogonek" unicode="&#x104;" horiz-adv-x="684" vert-adv-y="1400"
d="M695 -190q-43 -19 -100 -19q-63 0 -103.5 33t-40.5 91q0 76 82 120l-52 139h-284l-69 -186l-121 47l268 665h138l264 -665q-57 -21 -83.5 -45.5t-26.5 -56.5q0 -23 14.5 -36t41.5 -13q24 0 50 9zM441 285l-99 284l-104 -284h203z" />
    <glyph glyph-name="Aring" unicode="&#xc5;" horiz-adv-x="684" vert-adv-y="1400"
d="M677 35l-127 -47l-69 186h-284l-69 -186l-121 47l265 659q-35 17 -55.5 49.5t-20.5 73.5q0 60 41 99t105 39q62 0 103.5 -39t41.5 -99q0 -40 -19.5 -71.5t-52.5 -49.5zM310.5 859q-11.5 -15 -11.5 -42q0 -26 12 -41.5t31 -15.5t30.5 15t11.5 42t-11 42t-31 15t-31.5 -15z
M441 285l-99 284l-104 -284h203z" />
    <glyph glyph-name="Atilde" unicode="&#xc3;" horiz-adv-x="684" vert-adv-y="1400"
d="M677 35l-127 -47l-69 186h-284l-69 -186l-121 47l268 665h138zM441 285l-99 284l-104 -284h203zM310.5 905.5q17.5 -6.5 39.5 -19.5q16 -9 27.5 -14t23.5 -5q21 0 38.5 11.5t36.5 32.5l61 -69q-34 -42 -62 -62t-61 -20q-21 0 -37 6.5t-39 19.5q-17 10 -28.5 15t-24.5 5
q-21 0 -39 -12t-37 -33l-61 69q34 42 62 62t61 20q22 0 39.5 -6.5z" />
    <glyph glyph-name="AE" unicode="&#xc6;" horiz-adv-x="899" vert-adv-y="1400"
d="M860 586h-276v-169h232v-110h-232v-193h276v-114h-414v174h-226l-111 -186l-112 71l402 641h461v-114zM286 285h160v273z" />
    <glyph glyph-name="AEacute" unicode="&#x1fc;" horiz-adv-x="899" vert-adv-y="1400"
d="M860 586h-276v-169h232v-110h-232v-193h276v-114h-414v174h-226l-111 -186l-112 71l402 641h461v-114zM286 285h160v273zM650 968l55 -111l-229 -109l-45 79z" />
    <glyph glyph-name="B" unicode="B" horiz-adv-x="631" vert-adv-y="1400"
d="M440.5 682.5q64.5 -25.5 98 -69t33.5 -97.5q0 -53 -29.5 -88t-87.5 -57q71 -22 106 -61.5t35 -105.5q0 -63 -36.5 -111t-105 -74.5t-163.5 -26.5q-111 0 -211 14v688q120 14 208 14t152.5 -25.5zM218 596v-183h86q59 0 93.5 24.5t34.5 69.5t-34.5 69t-98.5 24
q-35 0 -81 -4zM218 309v-203q31 -4 88 -4q68 0 107 26t39 77t-37.5 77.5t-106.5 26.5h-90z" />
    <glyph glyph-name="C" unicode="C" horiz-adv-x="592" vert-adv-y="1400"
d="M231 164q47 -60 139 -60q47 0 81.5 8t70.5 24l43 -96q-87 -52 -201 -52q-100 0 -172.5 40.5t-112 118.5t-39.5 189q0 113 42 198t119 131.5t179 46.5q96 0 181 -44l-41 -99q-33 14 -64.5 21t-71.5 7q-91 0 -145.5 -66.5t-54.5 -190.5q0 -116 47 -176z" />
    <glyph glyph-name="Cacute" unicode="&#x106;" horiz-adv-x="592" vert-adv-y="1400"
d="M231 164q47 -60 139 -60q47 0 81.5 8t70.5 24l43 -96q-87 -52 -201 -52q-100 0 -172.5 40.5t-112 118.5t-39.5 189q0 113 42 198t119 131.5t179 46.5q96 0 181 -44l-41 -99q-33 14 -64.5 21t-71.5 7q-91 0 -145.5 -66.5t-54.5 -190.5q0 -116 47 -176zM434 968l55 -111
l-229 -109l-45 79z" />
    <glyph glyph-name="Ccaron" unicode="&#x10c;" horiz-adv-x="592" vert-adv-y="1400"
d="M231 164q47 -60 139 -60q47 0 81.5 8t70.5 24l43 -96q-87 -52 -201 -52q-100 0 -172.5 40.5t-112 118.5t-39.5 189q0 113 42 198t119 131.5t179 46.5q96 0 181 -44l-41 -99q-33 14 -64.5 21t-71.5 7q-91 0 -145.5 -66.5t-54.5 -190.5q0 -116 47 -176zM560 856l-150 -93
h-96l-150 93l58 82l140 -92l141 92z" />
    <glyph glyph-name="Ccedilla" unicode="&#xc7;" horiz-adv-x="592" vert-adv-y="1400"
d="M470 -76.5q28 -23.5 28 -66.5q0 -52 -42 -83t-113 -31q-66 0 -114 22l32 81q37 -13 70 -13q48 0 48 29q0 38 -103 38l34 91q-127 16 -198.5 105t-71.5 240q0 113 42 198t119 131.5t179 46.5q96 0 181 -44l-41 -99q-33 14 -64.5 21t-71.5 7q-91 0 -145.5 -66.5
t-54.5 -190.5q0 -116 47 -176t139 -60q47 0 81.5 8t70.5 24l43 -96q-71 -42 -161 -50l-13 -39q51 -4 79 -27.5z" />
    <glyph glyph-name="Ccircumflex" unicode="&#x108;" horiz-adv-x="592" vert-adv-y="1400"
d="M231 164q47 -60 139 -60q47 0 81.5 8t70.5 24l43 -96q-87 -52 -201 -52q-100 0 -172.5 40.5t-112 118.5t-39.5 189q0 113 42 198t119 131.5t179 46.5q96 0 181 -44l-41 -99q-33 14 -64.5 21t-71.5 7q-91 0 -145.5 -66.5t-54.5 -190.5q0 -116 47 -176zM560 830l-57 -82
l-141 92l-140 -92l-58 82l150 93h96z" />
    <glyph glyph-name="Cdotaccent" unicode="&#x10a;" horiz-adv-x="592" vert-adv-y="1400"
d="M231 164q47 -60 139 -60q47 0 81.5 8t70.5 24l43 -96q-87 -52 -201 -52q-100 0 -172.5 40.5t-112 118.5t-39.5 189q0 113 42 198t119 131.5t179 46.5q96 0 181 -44l-41 -99q-33 14 -64.5 21t-71.5 7q-91 0 -145.5 -66.5t-54.5 -190.5q0 -116 47 -176zM423 910.5
q25 -24.5 25 -60.5q0 -37 -24.5 -61t-61.5 -24q-36 0 -61 24.5t-25 60.5q0 37 24.5 61t61.5 24q36 0 61 -24.5z" />
    <glyph glyph-name="D" unicode="D" horiz-adv-x="683" vert-adv-y="1400"
d="M279 708q123 0 204.5 -47.5t120.5 -128t39 -181.5q0 -106 -41.5 -187t-125 -126.5t-207.5 -45.5q-98 0 -189 14v688q104 14 199 14zM218 591v-481q36 -4 68 -4q102 0 157.5 63t55.5 182q0 112 -52.5 178t-157.5 66q-46 0 -71 -4z" />
    <glyph glyph-name="Eth" unicode="&#xd0;" horiz-adv-x="704" vert-adv-y="1400"
d="M503.5 660.5q81.5 -47.5 120.5 -128t39 -181.5q0 -106 -41.5 -187t-125 -126.5t-207.5 -45.5q-98 0 -189 14v296h-77v103h77v289q104 14 199 14q123 0 204.5 -47.5zM463.5 169q55.5 63 55.5 182q0 112 -52.5 178t-157.5 66q-46 0 -71 -4v-186h152v-103h-152v-192
q36 -4 68 -4q102 0 157.5 63z" />
    <glyph glyph-name="Dcaron" unicode="&#x10e;" horiz-adv-x="683" vert-adv-y="1400"
d="M279 708q123 0 204.5 -47.5t120.5 -128t39 -181.5q0 -106 -41.5 -187t-125 -126.5t-207.5 -45.5q-98 0 -189 14v688q104 14 199 14zM218 591v-481q36 -4 68 -4q102 0 157.5 63t55.5 182q0 112 -52.5 178t-157.5 66q-46 0 -71 -4zM519 856l-150 -93h-96l-150 93l58 82
l140 -92l141 92z" />
    <glyph glyph-name="Dcroat" unicode="&#x110;" horiz-adv-x="704" vert-adv-y="1400"
d="M503.5 660.5q81.5 -47.5 120.5 -128t39 -181.5q0 -106 -41.5 -187t-125 -126.5t-207.5 -45.5q-98 0 -189 14v296h-77v103h77v289q104 14 199 14q123 0 204.5 -47.5zM463.5 169q55.5 63 55.5 182q0 112 -52.5 178t-157.5 66q-46 0 -71 -4v-186h152v-103h-152v-192
q36 -4 68 -4q102 0 157.5 63z" />
    <glyph glyph-name="E" unicode="E" horiz-adv-x="565" vert-adv-y="1400"
d="M526 700v-114h-308v-169h264v-110h-264v-193h308v-114h-446v700h446z" />
    <glyph glyph-name="Eacute" unicode="&#xc9;" horiz-adv-x="565" vert-adv-y="1400"
d="M526 700v-114h-308v-169h264v-110h-264v-193h308v-114h-446v700h446zM385 968l55 -111l-229 -109l-45 79z" />
    <glyph glyph-name="Ebreve" unicode="&#x114;" horiz-adv-x="565" vert-adv-y="1400"
d="M526 700v-114h-308v-169h264v-110h-264v-193h308v-114h-446v700h446zM507 881q-28 -54 -76.5 -85.5t-117.5 -31.5t-118 31.5t-77 85.5l77 51q22 -31 49.5 -47.5t68.5 -16.5q40 0 67.5 16t50.5 48z" />
    <glyph glyph-name="Ecaron" unicode="&#x11a;" horiz-adv-x="565" vert-adv-y="1400"
d="M526 700v-114h-308v-169h264v-110h-264v-193h308v-114h-446v700h446zM511 856l-150 -93h-96l-150 93l58 82l140 -92l141 92z" />
    <glyph glyph-name="Ecircumflex" unicode="&#xca;" horiz-adv-x="565" vert-adv-y="1400"
d="M526 700v-114h-308v-169h264v-110h-264v-193h308v-114h-446v700h446zM511 830l-57 -82l-141 92l-140 -92l-58 82l150 93h96z" />
    <glyph glyph-name="Edieresis" unicode="&#xcb;" horiz-adv-x="565" vert-adv-y="1400"
d="M526 700v-114h-308v-169h264v-110h-264v-193h308v-114h-446v700h446zM264 899.5q22 -22.5 22 -56.5t-22 -56t-56 -22q-33 0 -56 22.5t-23 55.5q0 34 22.5 56.5t56.5 22.5t56 -22.5zM474 899.5q23 -22.5 23 -56.5t-22.5 -56t-56.5 -22t-56 22t-22 56t22 56.5t56 22.5
q33 0 56 -22.5z" />
    <glyph glyph-name="Edotaccent" unicode="&#x116;" horiz-adv-x="565" vert-adv-y="1400"
d="M526 700v-114h-308v-169h264v-110h-264v-193h308v-114h-446v700h446zM374 910.5q25 -24.5 25 -60.5q0 -37 -24.5 -61t-61.5 -24q-36 0 -61 24.5t-25 60.5q0 37 24.5 61t61.5 24q36 0 61 -24.5z" />
    <glyph glyph-name="Egrave" unicode="&#xc8;" horiz-adv-x="565" vert-adv-y="1400"
d="M526 700v-114h-308v-169h264v-110h-264v-193h308v-114h-446v700h446zM416 748l-230 109l55 111l219 -141z" />
    <glyph glyph-name="Emacron" unicode="&#x112;" horiz-adv-x="565" vert-adv-y="1400"
d="M526 700v-114h-308v-169h264v-110h-264v-193h308v-114h-446v700h446zM473 780h-320v101h320v-101z" />
    <glyph glyph-name="Eogonek" unicode="&#x118;" horiz-adv-x="565" vert-adv-y="1400"
d="M544 -225q-43 -19 -100 -19q-63 0 -103.5 33t-40.5 91q0 76 81 120h-301v700h446v-114h-308v-169h264v-110h-264v-193h308v-114q-57 -21 -83.5 -45.5t-26.5 -56.5q0 -23 14.5 -36t41.5 -13q25 0 50 9z" />
    <glyph glyph-name="F" unicode="F" horiz-adv-x="541" vert-adv-y="1400"
d="M521 700v-114h-303v-180h253v-110h-253v-296h-138v700h441z" />
    <glyph glyph-name="G" unicode="G" horiz-adv-x="679" vert-adv-y="1400"
d="M595 655l-47 -104q-42 22 -81.5 34t-85.5 12q-91 0 -144 -67.5t-53 -190.5q0 -114 48.5 -175t127.5 -61q76 0 134 54v130h-125v108h262v-395h-127v58q-36 -31 -77.5 -50.5t-95.5 -19.5q-82 0 -148.5 41.5t-104.5 120.5t-38 187q0 110 40.5 195t116 132.5t178.5 47.5
q115 0 220 -57z" />
    <glyph glyph-name="Gbreve" unicode="&#x11e;" horiz-adv-x="679" vert-adv-y="1400"
d="M595 655l-47 -104q-42 22 -81.5 34t-85.5 12q-91 0 -144 -67.5t-53 -190.5q0 -114 48.5 -175t127.5 -61q76 0 134 54v130h-125v108h262v-395h-127v58q-36 -31 -77.5 -50.5t-95.5 -19.5q-82 0 -148.5 41.5t-104.5 120.5t-38 187q0 110 40.5 195t116 132.5t178.5 47.5
q115 0 220 -57zM564 881q-28 -54 -76.5 -85.5t-117.5 -31.5t-118 31.5t-77 85.5l77 51q22 -31 49.5 -47.5t68.5 -16.5q40 0 67.5 16t50.5 48z" />
    <glyph glyph-name="Gcircumflex" unicode="&#x11c;" horiz-adv-x="679" vert-adv-y="1400"
d="M595 655l-47 -104q-42 22 -81.5 34t-85.5 12q-91 0 -144 -67.5t-53 -190.5q0 -114 48.5 -175t127.5 -61q76 0 134 54v130h-125v108h262v-395h-127v58q-36 -31 -77.5 -50.5t-95.5 -19.5q-82 0 -148.5 41.5t-104.5 120.5t-38 187q0 110 40.5 195t116 132.5t178.5 47.5
q115 0 220 -57zM568 830l-57 -82l-141 92l-140 -92l-58 82l150 93h96z" />
    <glyph glyph-name="Gcommaaccent" unicode="&#x122;" horiz-adv-x="679" vert-adv-y="1400"
d="M595 655l-47 -104q-42 22 -81.5 34t-85.5 12q-91 0 -144 -67.5t-53 -190.5q0 -114 48.5 -175t127.5 -61q76 0 134 54v130h-125v108h262v-395h-127v58q-36 -31 -77.5 -50.5t-95.5 -19.5q-82 0 -148.5 41.5t-104.5 120.5t-38 187q0 110 40.5 195t116 132.5t178.5 47.5
q115 0 220 -57zM418.5 -94q24.5 -24 24.5 -68q0 -53 -28.5 -97.5t-83.5 -71.5l-33 49q25 18 37 35t18 43q-35 0 -55 17.5t-20 48.5q0 30 22 49t56 19q38 0 62.5 -24z" />
    <glyph glyph-name="Gdotaccent" unicode="&#x120;" horiz-adv-x="679" vert-adv-y="1400"
d="M595 655l-47 -104q-42 22 -81.5 34t-85.5 12q-91 0 -144 -67.5t-53 -190.5q0 -114 48.5 -175t127.5 -61q76 0 134 54v130h-125v108h262v-395h-127v58q-36 -31 -77.5 -50.5t-95.5 -19.5q-82 0 -148.5 41.5t-104.5 120.5t-38 187q0 110 40.5 195t116 132.5t178.5 47.5
q115 0 220 -57zM431 910.5q25 -24.5 25 -60.5q0 -37 -24.5 -61t-61.5 -24q-36 0 -61 24.5t-25 60.5q0 37 24.5 61t61.5 24q36 0 61 -24.5z" />
    <glyph glyph-name="H" unicode="H" horiz-adv-x="711" vert-adv-y="1400"
d="M218 304v-304h-138v700h138v-282h276v282h137v-700h-137v304h-276z" />
    <glyph glyph-name="Hbar" unicode="&#x126;" horiz-adv-x="742" vert-adv-y="1400"
d="M725 498h-79v-498h-137v304h-276v-304h-138v498h-78v96h78v106h138v-106h276v106h137v-106h79v-96zM509 498h-276v-80h276v80z" />
    <glyph glyph-name="Hcircumflex" unicode="&#x124;" horiz-adv-x="711" vert-adv-y="1400"
d="M218 304v-304h-138v700h138v-282h276v282h137v-700h-137v304h-276zM556 830l-57 -82l-141 92l-140 -92l-58 82l150 93h96z" />
    <glyph glyph-name="I" unicode="I" horiz-adv-x="298" vert-adv-y="1400"
d="M80 700h138v-700h-138v700z" />
    <glyph glyph-name="IJ" unicode="&#x132;" horiz-adv-x="748" vert-adv-y="1400"
d="M80 700h138v-700h-138v700zM678 212q0 -110 -61 -167t-156 -57q-102 0 -169 61l61 91q26 -19 48 -28.5t51 -9.5q41 0 64.5 27.5t23.5 81.5v489h138v-488z" />
    <glyph glyph-name="Iacute" unicode="&#xcd;" horiz-adv-x="298" vert-adv-y="1400"
d="M80 700h138v-700h-138v700zM222 968l55 -111l-229 -109l-45 79z" />
    <glyph glyph-name="Ibreve" unicode="&#x12c;" horiz-adv-x="298" vert-adv-y="1400"
d="M80 700h138v-700h-138v700zM344 881q-28 -54 -76.5 -85.5t-117.5 -31.5t-118 31.5t-77 85.5l77 51q22 -31 49.5 -47.5t68.5 -16.5q40 0 67.5 16t50.5 48z" />
    <glyph glyph-name="Icircumflex" unicode="&#xce;" horiz-adv-x="298" vert-adv-y="1400"
d="M80 700h138v-700h-138v700zM348 830l-57 -82l-141 92l-140 -92l-58 82l150 93h96z" />
    <glyph glyph-name="Idieresis" unicode="&#xcf;" horiz-adv-x="298" vert-adv-y="1400"
d="M80 700h138v-700h-138v700zM101 899.5q22 -22.5 22 -56.5t-22 -56t-56 -22q-33 0 -56 22.5t-23 55.5q0 34 22.5 56.5t56.5 22.5t56 -22.5zM311 899.5q23 -22.5 23 -56.5t-22.5 -56t-56.5 -22t-56 22t-22 56t22 56.5t56 22.5q33 0 56 -22.5z" />
    <glyph glyph-name="Idotaccent" unicode="&#x130;" horiz-adv-x="298" vert-adv-y="1400"
d="M80 700h138v-700h-138v700zM211 910.5q25 -24.5 25 -60.5q0 -37 -24.5 -61t-61.5 -24q-36 0 -61 24.5t-25 60.5q0 37 24.5 61t61.5 24q36 0 61 -24.5z" />
    <glyph glyph-name="Igrave" unicode="&#xcc;" horiz-adv-x="298" vert-adv-y="1400"
d="M80 700h138v-700h-138v700zM253 748l-230 109l55 111l219 -141z" />
    <glyph glyph-name="Imacron" unicode="&#x12a;" horiz-adv-x="298" vert-adv-y="1400"
d="M80 700h138v-700h-138v700zM310 780h-320v101h320v-101z" />
    <glyph glyph-name="Iogonek" unicode="&#x12e;" horiz-adv-x="298" vert-adv-y="1400"
d="M236 -225q-43 -19 -100 -19q-63 0 -103.5 33t-40.5 91q0 79 88 123v697h138v-700q-57 -21 -83.5 -45.5t-26.5 -56.5q0 -23 14.5 -36t41.5 -13q25 0 50 9z" />
    <glyph glyph-name="Itilde" unicode="&#x128;" horiz-adv-x="298" vert-adv-y="1400"
d="M80 700h138v-700h-138v700zM117.5 905.5q17.5 -6.5 39.5 -19.5q16 -9 27.5 -14t23.5 -5q21 0 38.5 11.5t36.5 32.5l61 -69q-34 -42 -62 -62t-61 -20q-21 0 -37 6.5t-39 19.5q-17 10 -28.5 15t-24.5 5q-21 0 -39 -12t-37 -33l-61 69q34 42 62 62t61 20q22 0 39.5 -6.5z
" />
    <glyph glyph-name="J" unicode="J" horiz-adv-x="450" vert-adv-y="1400"
d="M380 212q0 -110 -61 -167t-156 -57q-102 0 -169 61l61 91q26 -19 48 -28.5t51 -9.5q41 0 64.5 27.5t23.5 81.5v489h138v-488z" />
    <glyph glyph-name="Jcircumflex" unicode="&#x134;" horiz-adv-x="450" vert-adv-y="1400"
d="M380 212q0 -110 -61 -167t-156 -57q-102 0 -169 61l61 91q26 -19 48 -28.5t51 -9.5q41 0 64.5 27.5t23.5 81.5v489h138v-488zM510 830l-57 -82l-141 92l-140 -92l-58 82l150 93h96z" />
    <glyph glyph-name="K" unicode="K" horiz-adv-x="613" vert-adv-y="1400"
d="M589 627l-252 -265l290 -283l-92 -96l-317 320v-303h-138v700h138v-299l278 308z" />
    <glyph glyph-name="Kcommaaccent" unicode="&#x136;" horiz-adv-x="613" vert-adv-y="1400"
d="M589 627l-252 -265l290 -283l-92 -96l-317 320v-303h-138v700h138v-299l278 308zM389.5 -94q24.5 -24 24.5 -68q0 -53 -28.5 -97.5t-83.5 -71.5l-33 49q25 18 37 35t18 43q-35 0 -55 17.5t-20 48.5q0 30 22 49t56 19q38 0 62.5 -24z" />
    <glyph glyph-name="L" unicode="L" horiz-adv-x="522" vert-adv-y="1400"
d="M80 0v700h138v-580h299v-120h-437z" />
    <glyph glyph-name="Lacute" unicode="&#x139;" horiz-adv-x="522" vert-adv-y="1400"
d="M80 0v700h138v-580h299v-120h-437zM222 968l55 -111l-229 -109l-45 79z" />
    <glyph glyph-name="Lcaron" unicode="&#x13d;" horiz-adv-x="522" vert-adv-y="1400"
d="M80 0v700h138v-580h299v-120h-437zM360 725l91 -73l-140 -145l-67 45z" />
    <glyph glyph-name="Lcommaaccent" unicode="&#x13b;" horiz-adv-x="522" vert-adv-y="1400"
d="M80 0v700h138v-580h299v-120h-437zM362.5 -94q24.5 -24 24.5 -68q0 -53 -28.5 -97.5t-83.5 -71.5l-33 49q25 18 37 35t18 43q-35 0 -55 17.5t-20 48.5q0 30 22 49t56 19q38 0 62.5 -24z" />
    <glyph glyph-name="Ldot" unicode="&#x13f;" horiz-adv-x="522" vert-adv-y="1400"
d="M80 0v700h138v-580h299v-120h-437zM466 433.5q25 -24.5 25 -60.5q0 -37 -24.5 -61t-61.5 -24q-36 0 -61 24.5t-25 60.5q0 37 24.5 61t61.5 24q36 0 61 -24.5z" />
    <glyph glyph-name="Lslash" unicode="&#x141;" horiz-adv-x="535" vert-adv-y="1400"
d="M530 120v-120h-437v245l-67 -31l-42 92l109 51v343h138v-278l189 89l43 -92l-232 -109v-190h299z" />
    <glyph glyph-name="M" unicode="M" horiz-adv-x="847" vert-adv-y="1400"
d="M767 0h-138v524l-149 -381h-118l-150 381v-524h-132v700h182l160 -419l161 419h184v-700z" />
    <glyph glyph-name="N" unicode="N" horiz-adv-x="711" vert-adv-y="1400"
d="M631 0h-173l-246 516v-516h-132v700h174l246 -518v518h131v-700z" />
    <glyph glyph-name="Nacute" unicode="&#x143;" horiz-adv-x="711" vert-adv-y="1400"
d="M631 0h-173l-246 516v-516h-132v700h174l246 -518v518h131v-700zM432 968l55 -111l-229 -109l-45 79z" />
    <glyph glyph-name="Ncaron" unicode="&#x147;" horiz-adv-x="711" vert-adv-y="1400"
d="M631 0h-173l-246 516v-516h-132v700h174l246 -518v518h131v-700zM558 856l-150 -93h-96l-150 93l58 82l140 -92l141 92z" />
    <glyph glyph-name="Ncommaaccent" unicode="&#x145;" horiz-adv-x="711" vert-adv-y="1400"
d="M631 0h-173l-246 516v-516h-132v700h174l246 -518v518h131v-700zM418.5 -94q24.5 -24 24.5 -68q0 -53 -28.5 -97.5t-83.5 -71.5l-33 49q25 18 37 35t18 43q-35 0 -55 17.5t-20 48.5q0 30 22 49t56 19q38 0 62.5 -24z" />
    <glyph glyph-name="Eng" unicode="&#x14a;" horiz-adv-x="711" vert-adv-y="1400"
d="M631 700v-746q0 -92 -53.5 -139t-136.5 -47q-65 0 -112 25l32 98q30 -13 65 -13q36 0 55.5 22t19.5 65v35h-43l-246 516v-516h-132v700h174l246 -518v518h131z" />
    <glyph glyph-name="Ntilde" unicode="&#xd1;" horiz-adv-x="711" vert-adv-y="1400"
d="M631 0h-173l-246 516v-516h-132v700h174l246 -518v518h131v-700zM327.5 905.5q17.5 -6.5 39.5 -19.5q16 -9 27.5 -14t23.5 -5q21 0 38.5 11.5t36.5 32.5l61 -69q-34 -42 -62 -62t-61 -20q-21 0 -37 6.5t-39 19.5q-17 10 -28.5 15t-24.5 5q-21 0 -39 -12t-37 -33l-61 69
q34 42 62 62t61 20q22 0 39.5 -6.5z" />
    <glyph glyph-name="O" unicode="O" horiz-adv-x="758" vert-adv-y="1400"
d="M559.5 664.5q76.5 -47.5 117.5 -130t41 -184.5q0 -104 -40.5 -186t-117.5 -129t-181 -47t-180.5 48t-117.5 130.5t-41 184.5q0 104 40.5 186t117.5 128.5t181 46.5t180.5 -47.5zM235 530q-51 -68 -51 -179q0 -67 23 -124t67 -91t105 -34q94 0 144.5 68t50.5 180
q0 67 -23 123.5t-67 90.5t-105 34q-93 0 -144 -68z" />
    <glyph glyph-name="Oacute" unicode="&#xd3;" horiz-adv-x="758" vert-adv-y="1400"
d="M559.5 664.5q76.5 -47.5 117.5 -130t41 -184.5q0 -104 -40.5 -186t-117.5 -129t-181 -47t-180.5 48t-117.5 130.5t-41 184.5q0 104 40.5 186t117.5 128.5t181 46.5t180.5 -47.5zM235 530q-51 -68 -51 -179q0 -67 23 -124t67 -91t105 -34q94 0 144.5 68t50.5 180
q0 67 -23 123.5t-67 90.5t-105 34q-93 0 -144 -68zM452 968l55 -111l-229 -109l-45 79z" />
    <glyph glyph-name="Obreve" unicode="&#x14e;" horiz-adv-x="758" vert-adv-y="1400"
d="M559.5 664.5q76.5 -47.5 117.5 -130t41 -184.5q0 -104 -40.5 -186t-117.5 -129t-181 -47t-180.5 48t-117.5 130.5t-41 184.5q0 104 40.5 186t117.5 128.5t181 46.5t180.5 -47.5zM235 530q-51 -68 -51 -179q0 -67 23 -124t67 -91t105 -34q94 0 144.5 68t50.5 180
q0 67 -23 123.5t-67 90.5t-105 34q-93 0 -144 -68zM574 881q-28 -54 -76.5 -85.5t-117.5 -31.5t-118 31.5t-77 85.5l77 51q22 -31 49.5 -47.5t68.5 -16.5q40 0 67.5 16t50.5 48z" />
    <glyph glyph-name="Ocircumflex" unicode="&#xd4;" horiz-adv-x="758" vert-adv-y="1400"
d="M559.5 664.5q76.5 -47.5 117.5 -130t41 -184.5q0 -104 -40.5 -186t-117.5 -129t-181 -47t-180.5 48t-117.5 130.5t-41 184.5q0 104 40.5 186t117.5 128.5t181 46.5t180.5 -47.5zM235 530q-51 -68 -51 -179q0 -67 23 -124t67 -91t105 -34q94 0 144.5 68t50.5 180
q0 67 -23 123.5t-67 90.5t-105 34q-93 0 -144 -68zM578 830l-57 -82l-141 92l-140 -92l-58 82l150 93h96z" />
    <glyph glyph-name="Odieresis" unicode="&#xd6;" horiz-adv-x="758" vert-adv-y="1400"
d="M559.5 664.5q76.5 -47.5 117.5 -130t41 -184.5q0 -104 -40.5 -186t-117.5 -129t-181 -47t-180.5 48t-117.5 130.5t-41 184.5q0 104 40.5 186t117.5 128.5t181 46.5t180.5 -47.5zM235 530q-51 -68 -51 -179q0 -67 23 -124t67 -91t105 -34q94 0 144.5 68t50.5 180
q0 67 -23 123.5t-67 90.5t-105 34q-93 0 -144 -68zM331 899.5q22 -22.5 22 -56.5t-22 -56t-56 -22q-33 0 -56 22.5t-23 55.5q0 34 22.5 56.5t56.5 22.5t56 -22.5zM541 899.5q23 -22.5 23 -56.5t-22.5 -56t-56.5 -22t-56 22t-22 56t22 56.5t56 22.5q33 0 56 -22.5z" />
    <glyph glyph-name="Ograve" unicode="&#xd2;" horiz-adv-x="758" vert-adv-y="1400"
d="M559.5 664.5q76.5 -47.5 117.5 -130t41 -184.5q0 -104 -40.5 -186t-117.5 -129t-181 -47t-180.5 48t-117.5 130.5t-41 184.5q0 104 40.5 186t117.5 128.5t181 46.5t180.5 -47.5zM235 530q-51 -68 -51 -179q0 -67 23 -124t67 -91t105 -34q94 0 144.5 68t50.5 180
q0 67 -23 123.5t-67 90.5t-105 34q-93 0 -144 -68zM483 748l-230 109l55 111l219 -141z" />
    <glyph glyph-name="Ohungarumlaut" unicode="&#x150;" horiz-adv-x="758" vert-adv-y="1400"
d="M559.5 664.5q76.5 -47.5 117.5 -130t41 -184.5q0 -104 -40.5 -186t-117.5 -129t-181 -47t-180.5 48t-117.5 130.5t-41 184.5q0 104 40.5 186t117.5 128.5t181 46.5t180.5 -47.5zM235 530q-51 -68 -51 -179q0 -67 23 -124t67 -91t105 -34q94 0 144.5 68t50.5 180
q0 67 -23 123.5t-67 90.5t-105 34q-93 0 -144 -68zM440 944l-112 -185l-76 39l86 197zM608 928l-111 -185l-76 39l86 197z" />
    <glyph glyph-name="Omacron" unicode="&#x14c;" horiz-adv-x="758" vert-adv-y="1400"
d="M559.5 664.5q76.5 -47.5 117.5 -130t41 -184.5q0 -104 -40.5 -186t-117.5 -129t-181 -47t-180.5 48t-117.5 130.5t-41 184.5q0 104 40.5 186t117.5 128.5t181 46.5t180.5 -47.5zM235 530q-51 -68 -51 -179q0 -67 23 -124t67 -91t105 -34q94 0 144.5 68t50.5 180
q0 67 -23 123.5t-67 90.5t-105 34q-93 0 -144 -68zM540 780h-320v101h320v-101z" />
    <glyph glyph-name="Oslash" unicode="&#xd8;" horiz-adv-x="758" vert-adv-y="1400"
d="M681.5 520.5q35.5 -77.5 35.5 -170.5q0 -104 -40.5 -186t-117 -129t-180.5 -47q-57 0 -105 15l-50 -122l-109 53l66 116q-67 48 -104 127t-37 174q0 104 40.5 186t117.5 128.5t181 46.5q58 0 111 -17l47 116l109 -52l-64 -112q64 -49 99.5 -126.5zM233.5 530.5
q-51.5 -67.5 -51.5 -179.5q0 -132 60 -195l205 432q-29 10 -68 10q-94 0 -145.5 -67.5zM525 169.5q51 67.5 51 180.5q0 124 -55 189l-204 -429q30 -8 62 -8q95 0 146 67.5z" />
    <glyph glyph-name="Oslashacute" unicode="&#x1fe;" horiz-adv-x="758" vert-adv-y="1400"
d="M681.5 520.5q35.5 -77.5 35.5 -170.5q0 -104 -40.5 -186t-117 -129t-180.5 -47q-57 0 -105 15l-50 -122l-109 53l66 116q-67 48 -104 127t-37 174q0 104 40.5 186t117.5 128.5t181 46.5q58 0 111 -17l47 116l109 -52l-64 -112q64 -49 99.5 -126.5zM233.5 530.5
q-51.5 -67.5 -51.5 -179.5q0 -132 60 -195l205 432q-29 10 -68 10q-94 0 -145.5 -67.5zM525 169.5q51 67.5 51 180.5q0 124 -55 189l-204 -429q30 -8 62 -8q95 0 146 67.5zM450 968l55 -111l-229 -109l-45 79z" />
    <glyph glyph-name="Otilde" unicode="&#xd5;" horiz-adv-x="758" vert-adv-y="1400"
d="M559.5 664.5q76.5 -47.5 117.5 -130t41 -184.5q0 -104 -40.5 -186t-117.5 -129t-181 -47t-180.5 48t-117.5 130.5t-41 184.5q0 104 40.5 186t117.5 128.5t181 46.5t180.5 -47.5zM235 530q-51 -68 -51 -179q0 -67 23 -124t67 -91t105 -34q94 0 144.5 68t50.5 180
q0 67 -23 123.5t-67 90.5t-105 34q-93 0 -144 -68zM347.5 905.5q17.5 -6.5 39.5 -19.5q16 -9 27.5 -14t23.5 -5q21 0 38.5 11.5t36.5 32.5l61 -69q-34 -42 -62 -62t-61 -20q-21 0 -37 6.5t-39 19.5q-17 10 -28.5 15t-24.5 5q-21 0 -39 -12t-37 -33l-61 69q34 42 62 62t61 20
q22 0 39.5 -6.5z" />
    <glyph glyph-name="OE" unicode="&#x152;" horiz-adv-x="890" vert-adv-y="1400"
d="M500 700h352v-114h-276v-169h233v-110h-233v-193h276v-114h-359q-70 -12 -113 -12q-104 0 -181 48t-118 130.5t-41 184.5q0 104 40.5 186t117.5 128.5t182 46.5q55 0 120 -12zM235.5 530q-51.5 -68 -51.5 -179q0 -68 23 -124.5t67 -90.5t106 -34q31 0 58 6v484
q-27 6 -58 6q-93 0 -144.5 -68z" />
    <glyph glyph-name="P" unicode="P" horiz-adv-x="593" vert-adv-y="1400"
d="M282 708q95 0 162 -29t101 -81t34 -119q0 -116 -82.5 -179.5t-219.5 -63.5q-34 0 -59 3v-239h-138v696q106 12 202 12zM400.5 380q39.5 33 39.5 95q0 57 -39 89.5t-111 32.5q-39 0 -72 -3v-244q27 -3 68 -3q75 0 114.5 33z" />
    <glyph glyph-name="Thorn" unicode="&#xde;" horiz-adv-x="593" vert-adv-y="1400"
d="M442 563q65 -29 101 -81.5t36 -120.5q0 -77 -38.5 -131.5t-105.5 -82.5t-153 -28q-34 0 -64 3v-122h-138v700h138v-111q33 3 77 3q82 0 147 -29zM399.5 262.5q40.5 33.5 40.5 94.5q0 59 -40 92.5t-111 33.5q-42 0 -71 -4v-247q25 -3 67 -3q74 0 114.5 33.5z" />
    <glyph glyph-name="Q" unicode="Q" horiz-adv-x="763" vert-adv-y="1400"
d="M667 -21l-92 72q-83 -63 -197 -63q-103 0 -179.5 48t-117.5 130.5t-41 184.5q0 104 40.5 186t117 128.5t180.5 46.5q102 0 178.5 -47.5t117.5 -130t41 -184.5q0 -63 -17.5 -120.5t-50.5 -104.5l85 -51zM206.5 227q22.5 -57 66.5 -91t105 -34q62 0 102 22l-85 53l62 87
l87 -71q27 57 27 157q0 67 -23 123.5t-66.5 90.5t-103.5 34q-92 0 -143 -68.5t-51 -178.5q0 -67 22.5 -124z" />
    <glyph glyph-name="R" unicode="R" horiz-adv-x="628" vert-adv-y="1400"
d="M437.5 681.5q63.5 -26.5 95.5 -72.5t32 -105q0 -76 -40.5 -119t-116.5 -63q45 -16 76 -44t55 -81l73 -157l-125 -55l-85 182q-27 58 -61.5 83.5t-81.5 25.5h-41v-276h-138v696q99 12 202 12q92 0 155.5 -26.5zM218 593v-206h74q65 0 100 28.5t35 83.5q0 46 -34.5 72
t-98.5 26q-41 0 -76 -4z" />
    <glyph glyph-name="Racute" unicode="&#x154;" horiz-adv-x="628" vert-adv-y="1400"
d="M437.5 681.5q63.5 -26.5 95.5 -72.5t32 -105q0 -76 -40.5 -119t-116.5 -63q45 -16 76 -44t55 -81l73 -157l-125 -55l-85 182q-27 58 -61.5 83.5t-81.5 25.5h-41v-276h-138v696q99 12 202 12q92 0 155.5 -26.5zM218 593v-206h74q65 0 100 28.5t35 83.5q0 46 -34.5 72
t-98.5 26q-41 0 -76 -4zM384 968l55 -111l-229 -109l-45 79z" />
    <glyph glyph-name="Rcaron" unicode="&#x158;" horiz-adv-x="628" vert-adv-y="1400"
d="M437.5 681.5q63.5 -26.5 95.5 -72.5t32 -105q0 -76 -40.5 -119t-116.5 -63q45 -16 76 -44t55 -81l73 -157l-125 -55l-85 182q-27 58 -61.5 83.5t-81.5 25.5h-41v-276h-138v696q99 12 202 12q92 0 155.5 -26.5zM218 593v-206h74q65 0 100 28.5t35 83.5q0 46 -34.5 72
t-98.5 26q-41 0 -76 -4zM510 856l-150 -93h-96l-150 93l58 82l140 -92l141 92z" />
    <glyph glyph-name="Rcommaaccent" unicode="&#x156;" horiz-adv-x="628" vert-adv-y="1400"
d="M437.5 681.5q63.5 -26.5 95.5 -72.5t32 -105q0 -76 -40.5 -119t-116.5 -63q45 -16 76 -44t55 -81l73 -157l-125 -55l-85 182q-27 58 -61.5 83.5t-81.5 25.5h-41v-276h-138v696q99 12 202 12q92 0 155.5 -26.5zM218 593v-206h74q65 0 100 28.5t35 83.5q0 46 -34.5 72
t-98.5 26q-41 0 -76 -4zM389.5 -94q24.5 -24 24.5 -68q0 -53 -28.5 -97.5t-83.5 -71.5l-33 49q25 18 37 35t18 43q-35 0 -55 17.5t-20 48.5q0 30 22 49t56 19q38 0 62.5 -24z" />
    <glyph glyph-name="S" unicode="S" horiz-adv-x="563" vert-adv-y="1400"
d="M521 655l-52 -98q-88 42 -175 42q-54 0 -84 -20t-30 -55q0 -24 12 -40.5t43.5 -32.5t94.5 -37q113 -38 160 -88t47 -128q0 -99 -74 -154.5t-197 -55.5q-79 0 -140 18.5t-111 55.5l64 96q49 -27 90 -41t94 -14q59 0 95 22.5t36 65.5q0 27 -13.5 45.5t-47.5 36t-98 38.5
q-107 35 -152.5 83t-45.5 127q0 55 30 98.5t88 68t138 24.5q127 0 228 -57z" />
    <glyph glyph-name="Sacute" unicode="&#x15a;" horiz-adv-x="563" vert-adv-y="1400"
d="M521 655l-52 -98q-88 42 -175 42q-54 0 -84 -20t-30 -55q0 -24 12 -40.5t43.5 -32.5t94.5 -37q113 -38 160 -88t47 -128q0 -99 -74 -154.5t-197 -55.5q-79 0 -140 18.5t-111 55.5l64 96q49 -27 90 -41t94 -14q59 0 95 22.5t36 65.5q0 27 -13.5 45.5t-47.5 36t-98 38.5
q-107 35 -152.5 83t-45.5 127q0 55 30 98.5t88 68t138 24.5q127 0 228 -57zM363 968l55 -111l-229 -109l-45 79z" />
    <glyph glyph-name="Scaron" unicode="&#x160;" horiz-adv-x="563" vert-adv-y="1400"
d="M521 655l-52 -98q-88 42 -175 42q-54 0 -84 -20t-30 -55q0 -24 12 -40.5t43.5 -32.5t94.5 -37q113 -38 160 -88t47 -128q0 -99 -74 -154.5t-197 -55.5q-79 0 -140 18.5t-111 55.5l64 96q49 -27 90 -41t94 -14q59 0 95 22.5t36 65.5q0 27 -13.5 45.5t-47.5 36t-98 38.5
q-107 35 -152.5 83t-45.5 127q0 55 30 98.5t88 68t138 24.5q127 0 228 -57zM489 856l-150 -93h-96l-150 93l58 82l140 -92l141 92z" />
    <glyph glyph-name="Scedilla" unicode="&#x15e;" horiz-adv-x="563" vert-adv-y="1400"
d="M480.5 58.5q-56.5 -53.5 -154.5 -66.5l-14 -41q51 -4 79 -27.5t28 -66.5q0 -52 -42 -83t-113 -31q-66 0 -114 22l32 81q37 -13 70 -13q48 0 48 29q0 38 -103 38l33 89q-66 4 -118.5 22t-96.5 51l64 96q49 -27 90 -41t94 -14q59 0 95 22.5t36 65.5q0 27 -13.5 45.5
t-47.5 36t-98 38.5q-107 35 -152.5 83t-45.5 127q0 55 30 98.5t88 68t138 24.5q127 0 228 -57l-52 -98q-88 42 -175 42q-54 0 -84 -20t-30 -55q0 -24 12 -40.5t43.5 -32.5t94.5 -37q113 -38 160 -88t47 -128q0 -86 -56.5 -139.5z" />
    <glyph glyph-name="Scircumflex" unicode="&#x15c;" horiz-adv-x="563" vert-adv-y="1400"
d="M521 655l-52 -98q-88 42 -175 42q-54 0 -84 -20t-30 -55q0 -24 12 -40.5t43.5 -32.5t94.5 -37q113 -38 160 -88t47 -128q0 -99 -74 -154.5t-197 -55.5q-79 0 -140 18.5t-111 55.5l64 96q49 -27 90 -41t94 -14q59 0 95 22.5t36 65.5q0 27 -13.5 45.5t-47.5 36t-98 38.5
q-107 35 -152.5 83t-45.5 127q0 55 30 98.5t88 68t138 24.5q127 0 228 -57zM489 830l-57 -82l-141 92l-140 -92l-58 82l150 93h96z" />
    <glyph glyph-name="Scommaaccent" unicode="&#x218;" horiz-adv-x="563" vert-adv-y="1400"
d="M521 655l-52 -98q-88 42 -175 42q-54 0 -84 -20t-30 -55q0 -24 12 -40.5t43.5 -32.5t94.5 -37q113 -38 160 -88t47 -128q0 -99 -74 -154.5t-197 -55.5q-79 0 -140 18.5t-111 55.5l64 96q49 -27 90 -41t94 -14q59 0 95 22.5t36 65.5q0 27 -13.5 45.5t-47.5 36t-98 38.5
q-107 35 -152.5 83t-45.5 127q0 55 30 98.5t88 68t138 24.5q127 0 228 -57zM344.5 -94q24.5 -24 24.5 -68q0 -53 -28.5 -97.5t-83.5 -71.5l-33 49q25 18 37 35t18 43q-35 0 -55 17.5t-20 48.5q0 30 22 49t56 19q38 0 62.5 -24z" />
    <glyph glyph-name="uni1E9E" unicode="&#x1e9e;" horiz-adv-x="675" vert-adv-y="1400"
d="M603 659v-81l-151 -182q203 -47 203 -217q0 -65 -32.5 -114.5t-92.5 -77.5t-138 -28q-79 0 -136 27l38 102q45 -16 96 -16q55 0 88 27.5t33 80.5q0 62 -44 96t-151 40v92l140 174q-68 17 -130 17q-123 0 -123 -119v-480h-138v478q0 115 66.5 174.5t192.5 59.5
q136 0 279 -53z" />
    <glyph glyph-name="T" unicode="T" horiz-adv-x="563" vert-adv-y="1400"
d="M557 700v-116h-206v-584h-138v584h-206v116h550z" />
    <glyph glyph-name="Tbar" unicode="&#x166;" horiz-adv-x="563" vert-adv-y="1400"
d="M351 584v-175h112v-103h-112v-306h-138v306h-112v103h112v175h-206v116h550v-116h-206z" />
    <glyph glyph-name="Tcaron" unicode="&#x164;" horiz-adv-x="563" vert-adv-y="1400"
d="M557 700v-116h-206v-584h-138v584h-206v116h550zM481 856l-150 -93h-96l-150 93l58 82l140 -92l141 92z" />
    <glyph glyph-name="uni0162" unicode="&#x162;" horiz-adv-x="563" vert-adv-y="1400"
d="M351 0l-17 -49q51 -4 79 -27.5t28 -66.5q0 -52 -42 -83t-113 -31q-66 0 -114 22l32 81q37 -13 70 -13q48 0 48 29q0 38 -103 38l37 100h-43v584h-206v116h550v-116h-206v-584z" />
    <glyph glyph-name="uni021A" unicode="&#x21a;" horiz-adv-x="563" vert-adv-y="1400"
d="M557 700v-116h-206v-584h-138v584h-206v116h550zM344.5 -94q24.5 -24 24.5 -68q0 -53 -28.5 -97.5t-83.5 -71.5l-33 49q25 18 37 35t18 43q-35 0 -55 17.5t-20 48.5q0 30 22 49t56 19q38 0 62.5 -24z" />
    <glyph glyph-name="U" unicode="U" horiz-adv-x="685" vert-adv-y="1400"
d="M614 250q0 -82 -33.5 -141t-94.5 -90t-142 -31q-125 0 -199.5 68t-74.5 191v453h138v-449q0 -71 35.5 -109.5t100.5 -38.5q66 0 101 38.5t35 109.5v449h134v-450z" />
    <glyph glyph-name="Uacute" unicode="&#xda;" horiz-adv-x="685" vert-adv-y="1400"
d="M614 250q0 -82 -33.5 -141t-94.5 -90t-142 -31q-125 0 -199.5 68t-74.5 191v453h138v-449q0 -71 35.5 -109.5t100.5 -38.5q66 0 101 38.5t35 109.5v449h134v-450zM414 968l55 -111l-229 -109l-45 79z" />
    <glyph glyph-name="Ubreve" unicode="&#x16c;" horiz-adv-x="685" vert-adv-y="1400"
d="M614 250q0 -82 -33.5 -141t-94.5 -90t-142 -31q-125 0 -199.5 68t-74.5 191v453h138v-449q0 -71 35.5 -109.5t100.5 -38.5q66 0 101 38.5t35 109.5v449h134v-450zM536 881q-28 -54 -76.5 -85.5t-117.5 -31.5t-118 31.5t-77 85.5l77 51q22 -31 49.5 -47.5t68.5 -16.5
q40 0 67.5 16t50.5 48z" />
    <glyph glyph-name="Ucircumflex" unicode="&#xdb;" horiz-adv-x="685" vert-adv-y="1400"
d="M614 250q0 -82 -33.5 -141t-94.5 -90t-142 -31q-125 0 -199.5 68t-74.5 191v453h138v-449q0 -71 35.5 -109.5t100.5 -38.5q66 0 101 38.5t35 109.5v449h134v-450zM540 830l-57 -82l-141 92l-140 -92l-58 82l150 93h96z" />
    <glyph glyph-name="Udieresis" unicode="&#xdc;" horiz-adv-x="685" vert-adv-y="1400"
d="M614 250q0 -82 -33.5 -141t-94.5 -90t-142 -31q-125 0 -199.5 68t-74.5 191v453h138v-449q0 -71 35.5 -109.5t100.5 -38.5q66 0 101 38.5t35 109.5v449h134v-450zM293 899.5q22 -22.5 22 -56.5t-22 -56t-56 -22q-33 0 -56 22.5t-23 55.5q0 34 22.5 56.5t56.5 22.5
t56 -22.5zM503 899.5q23 -22.5 23 -56.5t-22.5 -56t-56.5 -22t-56 22t-22 56t22 56.5t56 22.5q33 0 56 -22.5z" />
    <glyph glyph-name="Ugrave" unicode="&#xd9;" horiz-adv-x="685" vert-adv-y="1400"
d="M614 250q0 -82 -33.5 -141t-94.5 -90t-142 -31q-125 0 -199.5 68t-74.5 191v453h138v-449q0 -71 35.5 -109.5t100.5 -38.5q66 0 101 38.5t35 109.5v449h134v-450zM445 748l-230 109l55 111l219 -141z" />
    <glyph glyph-name="Uhungarumlaut" unicode="&#x170;" horiz-adv-x="685" vert-adv-y="1400"
d="M614 250q0 -82 -33.5 -141t-94.5 -90t-142 -31q-125 0 -199.5 68t-74.5 191v453h138v-449q0 -71 35.5 -109.5t100.5 -38.5q66 0 101 38.5t35 109.5v449h134v-450zM402 944l-112 -185l-76 39l86 197zM570 928l-111 -185l-76 39l86 197z" />
    <glyph glyph-name="Umacron" unicode="&#x16a;" horiz-adv-x="685" vert-adv-y="1400"
d="M614 250q0 -82 -33.5 -141t-94.5 -90t-142 -31q-125 0 -199.5 68t-74.5 191v453h138v-449q0 -71 35.5 -109.5t100.5 -38.5q66 0 101 38.5t35 109.5v449h134v-450zM502 780h-320v101h320v-101z" />
    <glyph glyph-name="Uogonek" unicode="&#x172;" horiz-adv-x="685" vert-adv-y="1400"
d="M614 700v-450q0 -99 -49 -164.5t-135 -87.5q-104 -36 -104 -100q0 -23 14.5 -36t41.5 -13q23 0 49 8l23 -82q-43 -19 -100 -19q-63 0 -103.5 33t-40.5 91q0 37 19.5 64.5t60.5 47.5q-102 14 -161 80t-59 175v453h138v-449q0 -71 35.5 -109.5t100.5 -38.5q66 0 101 38.5
t35 109.5v449h134z" />
    <glyph glyph-name="Uring" unicode="&#x16e;" horiz-adv-x="685" vert-adv-y="1400"
d="M614 250q0 -82 -33.5 -141t-94.5 -90t-142 -31q-125 0 -199.5 68t-74.5 191v453h138v-449q0 -71 35.5 -109.5t100.5 -38.5q66 0 101 38.5t35 109.5v449h134v-450zM444.5 916q41.5 -39 41.5 -99t-41.5 -99t-103.5 -39q-64 0 -105 38.5t-41 99.5q0 60 41 99t105 39
q62 0 103.5 -39zM309.5 859q-11.5 -15 -11.5 -42q0 -26 12 -41.5t31 -15.5t30.5 15t11.5 42t-11 42t-31 15t-31.5 -15z" />
    <glyph glyph-name="Utilde" unicode="&#x168;" horiz-adv-x="685" vert-adv-y="1400"
d="M614 250q0 -82 -33.5 -141t-94.5 -90t-142 -31q-125 0 -199.5 68t-74.5 191v453h138v-449q0 -71 35.5 -109.5t100.5 -38.5q66 0 101 38.5t35 109.5v449h134v-450zM309.5 905.5q17.5 -6.5 39.5 -19.5q16 -9 27.5 -14t23.5 -5q21 0 38.5 11.5t36.5 32.5l61 -69
q-34 -42 -62 -62t-61 -20q-21 0 -37 6.5t-39 19.5q-17 10 -28.5 15t-24.5 5q-21 0 -39 -12t-37 -33l-61 69q34 42 62 62t61 20q22 0 39.5 -6.5z" />
    <glyph glyph-name="V" unicode="V" horiz-adv-x="661" vert-adv-y="1400"
d="M141 712l191 -562l193 561l129 -47l-253 -664h-140l-254 664z" />
    <glyph glyph-name="W" unicode="W" horiz-adv-x="950" vert-adv-y="1400"
d="M938 673l-189 -673h-153l-121 487l-120 -487h-152l-191 673l138 36l135 -551l117 479h153l118 -479l134 550z" />
    <glyph glyph-name="Wacute" unicode="&#x1e82;" horiz-adv-x="950" vert-adv-y="1400"
d="M938 673l-189 -673h-153l-121 487l-120 -487h-152l-191 673l138 36l135 -551l117 479h153l118 -479l134 550zM551 968l55 -111l-229 -109l-45 79z" />
    <glyph glyph-name="Wcircumflex" unicode="&#x174;" horiz-adv-x="950" vert-adv-y="1400"
d="M938 673l-189 -673h-153l-121 487l-120 -487h-152l-191 673l138 36l135 -551l117 479h153l118 -479l134 550zM677 830l-57 -82l-141 92l-140 -92l-58 82l150 93h96z" />
    <glyph glyph-name="Wdieresis" unicode="&#x1e84;" horiz-adv-x="950" vert-adv-y="1400"
d="M938 673l-189 -673h-153l-121 487l-120 -487h-152l-191 673l138 36l135 -551l117 479h153l118 -479l134 550zM430 899.5q22 -22.5 22 -56.5t-22 -56t-56 -22q-33 0 -56 22.5t-23 55.5q0 34 22.5 56.5t56.5 22.5t56 -22.5zM640 899.5q23 -22.5 23 -56.5t-22.5 -56
t-56.5 -22t-56 22t-22 56t22 56.5t56 22.5q33 0 56 -22.5z" />
    <glyph glyph-name="Wgrave" unicode="&#x1e80;" horiz-adv-x="950" vert-adv-y="1400"
d="M938 673l-189 -673h-153l-121 487l-120 -487h-152l-191 673l138 36l135 -551l117 479h153l118 -479l134 550zM582 748l-230 109l55 111l219 -141z" />
    <glyph glyph-name="X" unicode="X" horiz-adv-x="621" vert-adv-y="1400"
d="M15 635l113 76l180 -264l183 263l105 -75l-209 -271l227 -295l-112 -80l-195 282l-196 -282l-104 80l223 286z" />
    <glyph glyph-name="Y" unicode="Y" horiz-adv-x="634" vert-adv-y="1400"
d="M513 709l114 -66l-240 -376v-267h-137v266l-243 377l119 67l194 -331z" />
    <glyph glyph-name="Yacute" unicode="&#xdd;" horiz-adv-x="634" vert-adv-y="1400"
d="M513 709l114 -66l-240 -376v-267h-137v266l-243 377l119 67l194 -331zM389 968l55 -111l-229 -109l-45 79z" />
    <glyph glyph-name="Ycircumflex" unicode="&#x176;" horiz-adv-x="634" vert-adv-y="1400"
d="M513 709l114 -66l-240 -376v-267h-137v266l-243 377l119 67l194 -331zM515 830l-57 -82l-141 92l-140 -92l-58 82l150 93h96z" />
    <glyph glyph-name="Ydieresis" unicode="&#x178;" horiz-adv-x="634" vert-adv-y="1400"
d="M513 709l114 -66l-240 -376v-267h-137v266l-243 377l119 67l194 -331zM268 899.5q22 -22.5 22 -56.5t-22 -56t-56 -22q-33 0 -56 22.5t-23 55.5q0 34 22.5 56.5t56.5 22.5t56 -22.5zM478 899.5q23 -22.5 23 -56.5t-22.5 -56t-56.5 -22t-56 22t-22 56t22 56.5t56 22.5
q33 0 56 -22.5z" />
    <glyph glyph-name="Ygrave" unicode="&#x1ef2;" horiz-adv-x="634" vert-adv-y="1400"
d="M513 709l114 -66l-240 -376v-267h-137v266l-243 377l119 67l194 -331zM420 748l-230 109l55 111l219 -141z" />
    <glyph glyph-name="Z" unicode="Z" horiz-adv-x="555" vert-adv-y="1400"
d="M362 585h-322v115h485v-97l-343 -484h356v-119h-516v102z" />
    <glyph glyph-name="Zacute" unicode="&#x179;" horiz-adv-x="555" vert-adv-y="1400"
d="M362 585h-322v115h485v-97l-343 -484h356v-119h-516v102zM354 968l55 -111l-229 -109l-45 79z" />
    <glyph glyph-name="Zcaron" unicode="&#x17d;" horiz-adv-x="555" vert-adv-y="1400"
d="M362 585h-322v115h485v-97l-343 -484h356v-119h-516v102zM480 856l-150 -93h-96l-150 93l58 82l140 -92l141 92z" />
    <glyph glyph-name="Zdotaccent" unicode="&#x17b;" horiz-adv-x="555" vert-adv-y="1400"
d="M362 585h-322v115h485v-97l-343 -484h356v-119h-516v102zM343 910.5q25 -24.5 25 -60.5q0 -37 -24.5 -61t-61.5 -24q-36 0 -61 24.5t-25 60.5q0 37 24.5 61t61.5 24q36 0 61 -24.5z" />
    <glyph glyph-name="a" unicode="a" horiz-adv-x="605" vert-adv-y="1400"
d="M350 515.5q36 -16.5 62 -44.5v49h107v-365q0 -60 61 -60l-28 -100q-101 0 -134 68q-30 -35 -67.5 -55t-88.5 -20q-60 0 -113 32.5t-86 94t-33 142.5q0 78 33 140.5t88 98.5t120 36q43 0 79 -16.5zM197.5 380.5q-33.5 -43.5 -33.5 -120.5q0 -76 33 -119t91 -43
q29 0 55.5 11.5t45.5 30.5v253q-48 31 -99 31q-59 0 -92.5 -43.5z" />
    <glyph glyph-name="aacute" unicode="&#xe1;" horiz-adv-x="605" vert-adv-y="1400"
d="M350 515.5q36 -16.5 62 -44.5v49h107v-365q0 -60 61 -60l-28 -100q-101 0 -134 68q-30 -35 -67.5 -55t-88.5 -20q-60 0 -113 32.5t-86 94t-33 142.5q0 78 33 140.5t88 98.5t120 36q43 0 79 -16.5zM197.5 380.5q-33.5 -43.5 -33.5 -120.5q0 -76 33 -119t91 -43
q29 0 55.5 11.5t45.5 30.5v253q-48 31 -99 31q-59 0 -92.5 -43.5zM378 803l55 -111l-229 -109l-45 79z" />
    <glyph glyph-name="abreve" unicode="&#x103;" horiz-adv-x="605" vert-adv-y="1400"
d="M350 515.5q36 -16.5 62 -44.5v49h107v-365q0 -60 61 -60l-28 -100q-101 0 -134 68q-30 -35 -67.5 -55t-88.5 -20q-60 0 -113 32.5t-86 94t-33 142.5q0 78 33 140.5t88 98.5t120 36q43 0 79 -16.5zM197.5 380.5q-33.5 -43.5 -33.5 -120.5q0 -76 33 -119t91 -43
q29 0 55.5 11.5t45.5 30.5v253q-48 31 -99 31q-59 0 -92.5 -43.5zM492 712q-28 -54 -76.5 -85.5t-117.5 -31.5t-118 31.5t-77 85.5l77 51q22 -31 49.5 -47.5t68.5 -16.5q40 0 67.5 16t50.5 48z" />
    <glyph glyph-name="acircumflex" unicode="&#xe2;" horiz-adv-x="605" vert-adv-y="1400"
d="M350 515.5q36 -16.5 62 -44.5v49h107v-365q0 -60 61 -60l-28 -100q-101 0 -134 68q-30 -35 -67.5 -55t-88.5 -20q-60 0 -113 32.5t-86 94t-33 142.5q0 78 33 140.5t88 98.5t120 36q43 0 79 -16.5zM197.5 380.5q-33.5 -43.5 -33.5 -120.5q0 -76 33 -119t91 -43
q29 0 55.5 11.5t45.5 30.5v253q-48 31 -99 31q-59 0 -92.5 -43.5zM496 652l-64 -82l-134 103l-134 -103l-64 82l150 104h96z" />
    <glyph glyph-name="adieresis" unicode="&#xe4;" horiz-adv-x="605" vert-adv-y="1400"
d="M350 515.5q36 -16.5 62 -44.5v49h107v-365q0 -60 61 -60l-28 -100q-101 0 -134 68q-30 -35 -67.5 -55t-88.5 -20q-60 0 -113 32.5t-86 94t-33 142.5q0 78 33 140.5t88 98.5t120 36q43 0 79 -16.5zM197.5 380.5q-33.5 -43.5 -33.5 -120.5q0 -76 33 -119t91 -43
q29 0 55.5 11.5t45.5 30.5v253q-48 31 -99 31q-59 0 -92.5 -43.5zM249 729.5q22 -22.5 22 -56.5t-22 -56t-56 -22q-33 0 -56 22.5t-23 55.5q0 34 22.5 56.5t56.5 22.5t56 -22.5zM459 729.5q23 -22.5 23 -56.5t-22.5 -56t-56.5 -22t-56 22t-22 56t22 56.5t56 22.5
q33 0 56 -22.5z" />
    <glyph glyph-name="agrave" unicode="&#xe0;" horiz-adv-x="605" vert-adv-y="1400"
d="M350 515.5q36 -16.5 62 -44.5v49h107v-365q0 -60 61 -60l-28 -100q-101 0 -134 68q-30 -35 -67.5 -55t-88.5 -20q-60 0 -113 32.5t-86 94t-33 142.5q0 78 33 140.5t88 98.5t120 36q43 0 79 -16.5zM197.5 380.5q-33.5 -43.5 -33.5 -120.5q0 -76 33 -119t91 -43
q29 0 55.5 11.5t45.5 30.5v253q-48 31 -99 31q-59 0 -92.5 -43.5zM393 583l-230 109l55 111l219 -141z" />
    <glyph glyph-name="amacron" unicode="&#x101;" horiz-adv-x="605" vert-adv-y="1400"
d="M350 515.5q36 -16.5 62 -44.5v49h107v-365q0 -60 61 -60l-28 -100q-101 0 -134 68q-30 -35 -67.5 -55t-88.5 -20q-60 0 -113 32.5t-86 94t-33 142.5q0 78 33 140.5t88 98.5t120 36q43 0 79 -16.5zM197.5 380.5q-33.5 -43.5 -33.5 -120.5q0 -76 33 -119t91 -43
q29 0 55.5 11.5t45.5 30.5v253q-48 31 -99 31q-59 0 -92.5 -43.5zM458 610h-320v101h320v-101z" />
    <glyph glyph-name="aogonek" unicode="&#x105;" horiz-adv-x="605" vert-adv-y="1400"
d="M548 -147l22 -83q-43 -19 -100 -19q-63 0 -103.5 33t-40.5 91q0 97 133 142q-26 16 -41 46q-30 -35 -67.5 -55t-88.5 -20q-60 0 -113 32.5t-86 94t-33 142.5q0 78 33 140.5t88 98.5t120 36q43 0 79 -16.5t62 -44.5v49h107v-365q0 -60 61 -60l-28 -100
q-57 -21 -83.5 -45.5t-26.5 -56.5q0 -23 14.5 -36t41.5 -13q25 0 50 9zM389 393q-48 31 -99 31q-59 0 -92.5 -43.5t-33.5 -120.5q0 -76 33 -119t91 -43q29 0 55.5 11.5t45.5 30.5v253z" />
    <glyph glyph-name="aring" unicode="&#xe5;" horiz-adv-x="605" vert-adv-y="1400"
d="M350 515.5q36 -16.5 62 -44.5v49h107v-365q0 -60 61 -60l-28 -100q-101 0 -134 68q-30 -35 -67.5 -55t-88.5 -20q-60 0 -113 32.5t-86 94t-33 142.5q0 78 33 140.5t88 98.5t120 36q43 0 79 -16.5zM197.5 380.5q-33.5 -43.5 -33.5 -120.5q0 -76 33 -119t91 -43
q29 0 55.5 11.5t45.5 30.5v253q-48 31 -99 31q-59 0 -92.5 -43.5zM401.5 817q41.5 -39 41.5 -99t-41.5 -99t-103.5 -39q-64 0 -105 38.5t-41 99.5q0 60 41 99t105 39q62 0 103.5 -39zM266.5 760q-11.5 -15 -11.5 -42q0 -26 12 -41.5t31 -15.5t30.5 15t11.5 42t-11 42t-31 15
t-31.5 -15z" />
    <glyph glyph-name="atilde" unicode="&#xe3;" horiz-adv-x="605" vert-adv-y="1400"
d="M350 515.5q36 -16.5 62 -44.5v49h107v-365q0 -60 61 -60l-28 -100q-101 0 -134 68q-30 -35 -67.5 -55t-88.5 -20q-60 0 -113 32.5t-86 94t-33 142.5q0 78 33 140.5t88 98.5t120 36q43 0 79 -16.5zM197.5 380.5q-33.5 -43.5 -33.5 -120.5q0 -76 33 -119t91 -43
q29 0 55.5 11.5t45.5 30.5v253q-48 31 -99 31q-59 0 -92.5 -43.5zM265.5 735.5q17.5 -6.5 39.5 -19.5q16 -9 27.5 -14t23.5 -5q21 0 38.5 11.5t36.5 32.5l61 -69q-34 -42 -62 -62t-61 -20q-21 0 -37 6.5t-39 19.5q-17 10 -28.5 15t-24.5 5q-21 0 -39 -12t-37 -33l-61 69
q34 42 62 62t61 20q22 0 39.5 -6.5z" />
    <glyph glyph-name="ae" unicode="&#xe6;" horiz-adv-x="845" vert-adv-y="1400"
d="M716.5 499q50.5 -33 76.5 -88.5t26 -121.5q0 -47 -4 -78h-333q10 -56 46 -86t94 -30q35 0 65.5 6.5t65.5 19.5l34 -93q-80 -40 -175 -40q-71 0 -121 26t-83 81q-38 -54 -84.5 -80.5t-115.5 -26.5q-56 0 -100 21.5t-68.5 60.5t-24.5 88q0 51 27.5 90t75 60t106.5 21
q63 0 124 -17q-20 116 -136 116q-32 0 -59 -6t-62 -18l-25 94q79 34 157 34q140 0 192 -108q60 108 182 108q69 0 119.5 -33zM478 306h218q-1 59 -28 90t-75 31q-96 0 -115 -121zM170 214q-26 -19 -26 -53q0 -31 21.5 -48.5t57.5 -17.5q47 0 82.5 32t46.5 92q-56 14 -110 14
q-46 0 -72 -19z" />
    <glyph glyph-name="aeacute" unicode="&#x1fd;" horiz-adv-x="845" vert-adv-y="1400"
d="M716.5 499q50.5 -33 76.5 -88.5t26 -121.5q0 -47 -4 -78h-333q10 -56 46 -86t94 -30q35 0 65.5 6.5t65.5 19.5l34 -93q-80 -40 -175 -40q-71 0 -121 26t-83 81q-38 -54 -84.5 -80.5t-115.5 -26.5q-56 0 -100 21.5t-68.5 60.5t-24.5 88q0 51 27.5 90t75 60t106.5 21
q63 0 124 -17q-20 116 -136 116q-32 0 -59 -6t-62 -18l-25 94q79 34 157 34q140 0 192 -108q60 108 182 108q69 0 119.5 -33zM478 306h218q-1 59 -28 90t-75 31q-96 0 -115 -121zM170 214q-26 -19 -26 -53q0 -31 21.5 -48.5t57.5 -17.5q47 0 82.5 32t46.5 92q-56 14 -110 14
q-46 0 -72 -19zM508 803l55 -111l-229 -109l-45 79z" />
    <glyph glyph-name="b" unicode="b" horiz-adv-x="586" vert-adv-y="1400"
d="M200 478q54 54 132 54q60 0 111 -32t81.5 -92t30.5 -142q0 -80 -32 -143.5t-85 -99t-114 -35.5q-87 0 -145 63v-51h-109v740h130v-262zM246.5 412q-26.5 -12 -46.5 -32v-251q40 -31 92 -31q59 0 94.5 42.5t35.5 122.5q0 77 -31.5 119t-85.5 42q-32 0 -58.5 -12z" />
    <glyph glyph-name="c" unicode="c" horiz-adv-x="471" vert-adv-y="1400"
d="M305 420q-66 0 -103.5 -42.5t-37.5 -121.5q0 -76 35.5 -116t100.5 -40q35 0 62 6.5t54 18.5l38 -95q-39 -21 -76.5 -31.5t-83.5 -10.5q-81 0 -141 33.5t-91.5 93.5t-31.5 139q0 78 32 141.5t92 100t141 36.5q86 0 159 -42l-42 -93q-49 23 -107 23z" />
    <glyph glyph-name="cacute" unicode="&#x107;" horiz-adv-x="471" vert-adv-y="1400"
d="M305 420q-66 0 -103.5 -42.5t-37.5 -121.5q0 -76 35.5 -116t100.5 -40q35 0 62 6.5t54 18.5l38 -95q-39 -21 -76.5 -31.5t-83.5 -10.5q-81 0 -141 33.5t-91.5 93.5t-31.5 139q0 78 32 141.5t92 100t141 36.5q86 0 159 -42l-42 -93q-49 23 -107 23zM358 803l55 -111
l-229 -109l-45 79z" />
    <glyph glyph-name="ccaron" unicode="&#x10d;" horiz-adv-x="471" vert-adv-y="1400"
d="M305 420q-66 0 -103.5 -42.5t-37.5 -121.5q0 -76 35.5 -116t100.5 -40q35 0 62 6.5t54 18.5l38 -95q-39 -21 -76.5 -31.5t-83.5 -10.5q-81 0 -141 33.5t-91.5 93.5t-31.5 139q0 78 32 141.5t92 100t141 36.5q86 0 159 -42l-42 -93q-49 23 -107 23zM476 697l-150 -104h-96
l-150 104l64 82l134 -102l134 102z" />
    <glyph glyph-name="ccedilla" unicode="&#xe7;" horiz-adv-x="471" vert-adv-y="1400"
d="M328 -10l-13 -39q51 -4 79 -27.5t28 -66.5q0 -52 -42 -83t-113 -31q-66 0 -114 22l32 81q37 -13 70 -13q48 0 48 29q0 38 -103 38l34 93q-96 17 -150 87t-54 174q0 78 32 141.5t92 100t141 36.5q86 0 159 -42l-42 -93q-49 23 -107 23q-66 0 -103.5 -42.5t-37.5 -121.5
q0 -76 35.5 -116t100.5 -40q35 0 62 6.5t54 18.5l38 -95q-64 -34 -126 -40z" />
    <glyph glyph-name="ccircumflex" unicode="&#x109;" horiz-adv-x="471" vert-adv-y="1400"
d="M305 420q-66 0 -103.5 -42.5t-37.5 -121.5q0 -76 35.5 -116t100.5 -40q35 0 62 6.5t54 18.5l38 -95q-39 -21 -76.5 -31.5t-83.5 -10.5q-81 0 -141 33.5t-91.5 93.5t-31.5 139q0 78 32 141.5t92 100t141 36.5q86 0 159 -42l-42 -93q-49 23 -107 23zM476 652l-64 -82
l-134 103l-134 -103l-64 82l150 104h96z" />
    <glyph glyph-name="cdotaccent" unicode="&#x10b;" horiz-adv-x="471" vert-adv-y="1400"
d="M305 420q-66 0 -103.5 -42.5t-37.5 -121.5q0 -76 35.5 -116t100.5 -40q35 0 62 6.5t54 18.5l38 -95q-39 -21 -76.5 -31.5t-83.5 -10.5q-81 0 -141 33.5t-91.5 93.5t-31.5 139q0 78 32 141.5t92 100t141 36.5q86 0 159 -42l-42 -93q-49 23 -107 23zM339 740.5
q25 -24.5 25 -60.5q0 -37 -24.5 -61t-61.5 -24q-36 0 -61 24.5t-25 60.5q0 37 24.5 61t61.5 24q36 0 61 -24.5z" />
    <glyph glyph-name="d" unicode="d" horiz-adv-x="602" vert-adv-y="1400"
d="M517 155q0 -60 60 -60l-27 -100q-104 0 -134 69q-31 -36 -67.5 -56t-89.5 -20q-58 0 -111 33t-85.5 94t-32.5 142q0 78 32 141t86 98.5t115 35.5q40 0 71.5 -15t51.5 -37l1 260h130v-585zM196.5 379.5q-32.5 -44.5 -32.5 -119.5q0 -76 32 -119t90 -43q29 0 55 11t46 31
v241q-41 43 -102 43q-56 0 -88.5 -44.5z" />
    <glyph glyph-name="eth" unicode="&#xf0;" horiz-adv-x="545" vert-adv-y="1400"
d="M515 333q0 -162 -68 -253.5t-190 -91.5q-61 0 -113 27t-83 78t-31 120q0 67 29.5 118.5t78 79.5t104.5 28q45 0 82 -16t62 -45q-4 62 -25.5 109t-55.5 75l-57 -78l-80 64l55 57q-30 11 -82 11q-23 0 -45 -3v109q45 3 56 3q80 0 147 -29l61 85l80 -64l-63 -66
q138 -105 138 -318zM346.5 140q30.5 41 37.5 133q-23 28 -53.5 43.5t-64.5 15.5q-47 0 -76.5 -30t-29.5 -85t28 -86.5t73 -31.5q55 0 85.5 41z" />
    <glyph glyph-name="dcaron" unicode="&#x10f;" horiz-adv-x="700" vert-adv-y="1400"
d="M517 155q0 -60 60 -60l-27 -100q-104 0 -134 69q-31 -36 -67.5 -56t-89.5 -20q-58 0 -111 33t-85.5 94t-32.5 142q0 78 32 141t86 98.5t115 35.5q40 0 71.5 -15t51.5 -37l1 260h130v-585zM196.5 379.5q-32.5 -44.5 -32.5 -119.5q0 -76 32 -119t90 -43q29 0 55 11t46 31
v241q-41 43 -102 43q-56 0 -88.5 -44.5zM657 765l91 -73l-140 -145l-67 45z" />
    <glyph glyph-name="dcroat" unicode="&#x111;" horiz-adv-x="602" vert-adv-y="1400"
d="M517 595v-440q0 -60 60 -60l-27 -100q-104 0 -134 69q-31 -36 -67.5 -56t-89.5 -20q-58 0 -111 33t-85.5 94t-32.5 142q0 78 32 141t86 98.5t115 35.5q40 0 71.5 -15t51.5 -37v115h-122v87h123v58h130v-58h65v-87h-65zM387 381q-41 43 -102 43q-56 0 -88.5 -44.5
t-32.5 -119.5q0 -76 32 -119t90 -43q29 0 55 11t46 31v241z" />
    <glyph glyph-name="e" unicode="e" horiz-adv-x="535" vert-adv-y="1400"
d="M404.5 499.5q52.5 -32.5 79 -88t26.5 -122.5q0 -32 -4 -78h-343q8 -55 45 -85t100 -30q38 0 68.5 7t64.5 20l37 -95q-80 -40 -181 -40q-82 0 -142 33t-92.5 94t-32.5 145q0 77 31 139t87 97.5t129 35.5q75 0 127.5 -32.5zM159 308h227q-1 58 -29.5 89t-77.5 31
q-103 0 -120 -120z" />
    <glyph glyph-name="eacute" unicode="&#xe9;" horiz-adv-x="535" vert-adv-y="1400"
d="M404.5 499.5q52.5 -32.5 79 -88t26.5 -122.5q0 -32 -4 -78h-343q8 -55 45 -85t100 -30q38 0 68.5 7t64.5 20l37 -95q-80 -40 -181 -40q-82 0 -142 33t-92.5 94t-32.5 145q0 77 31 139t87 97.5t129 35.5q75 0 127.5 -32.5zM159 308h227q-1 58 -29.5 89t-77.5 31
q-103 0 -120 -120zM363 803l55 -111l-229 -109l-45 79z" />
    <glyph glyph-name="ebreve" unicode="&#x115;" horiz-adv-x="535" vert-adv-y="1400"
d="M404.5 499.5q52.5 -32.5 79 -88t26.5 -122.5q0 -32 -4 -78h-343q8 -55 45 -85t100 -30q38 0 68.5 7t64.5 20l37 -95q-80 -40 -181 -40q-82 0 -142 33t-92.5 94t-32.5 145q0 77 31 139t87 97.5t129 35.5q75 0 127.5 -32.5zM159 308h227q-1 58 -29.5 89t-77.5 31
q-103 0 -120 -120zM477 712q-28 -54 -76.5 -85.5t-117.5 -31.5t-118 31.5t-77 85.5l77 51q22 -31 49.5 -47.5t68.5 -16.5q40 0 67.5 16t50.5 48z" />
    <glyph glyph-name="ecaron" unicode="&#x11b;" horiz-adv-x="535" vert-adv-y="1400"
d="M404.5 499.5q52.5 -32.5 79 -88t26.5 -122.5q0 -32 -4 -78h-343q8 -55 45 -85t100 -30q38 0 68.5 7t64.5 20l37 -95q-80 -40 -181 -40q-82 0 -142 33t-92.5 94t-32.5 145q0 77 31 139t87 97.5t129 35.5q75 0 127.5 -32.5zM159 308h227q-1 58 -29.5 89t-77.5 31
q-103 0 -120 -120zM481 697l-150 -104h-96l-150 104l64 82l134 -102l134 102z" />
    <glyph glyph-name="ecircumflex" unicode="&#xea;" horiz-adv-x="535" vert-adv-y="1400"
d="M404.5 499.5q52.5 -32.5 79 -88t26.5 -122.5q0 -32 -4 -78h-343q8 -55 45 -85t100 -30q38 0 68.5 7t64.5 20l37 -95q-80 -40 -181 -40q-82 0 -142 33t-92.5 94t-32.5 145q0 77 31 139t87 97.5t129 35.5q75 0 127.5 -32.5zM159 308h227q-1 58 -29.5 89t-77.5 31
q-103 0 -120 -120zM481 652l-64 -82l-134 103l-134 -103l-64 82l150 104h96z" />
    <glyph glyph-name="edieresis" unicode="&#xeb;" horiz-adv-x="535" vert-adv-y="1400"
d="M404.5 499.5q52.5 -32.5 79 -88t26.5 -122.5q0 -32 -4 -78h-343q8 -55 45 -85t100 -30q38 0 68.5 7t64.5 20l37 -95q-80 -40 -181 -40q-82 0 -142 33t-92.5 94t-32.5 145q0 77 31 139t87 97.5t129 35.5q75 0 127.5 -32.5zM159 308h227q-1 58 -29.5 89t-77.5 31
q-103 0 -120 -120zM234 729.5q22 -22.5 22 -56.5t-22 -56t-56 -22q-33 0 -56 22.5t-23 55.5q0 34 22.5 56.5t56.5 22.5t56 -22.5zM444 729.5q23 -22.5 23 -56.5t-22.5 -56t-56.5 -22t-56 22t-22 56t22 56.5t56 22.5q33 0 56 -22.5z" />
    <glyph glyph-name="edotaccent" unicode="&#x117;" horiz-adv-x="535" vert-adv-y="1400"
d="M404.5 499.5q52.5 -32.5 79 -88t26.5 -122.5q0 -32 -4 -78h-343q8 -55 45 -85t100 -30q38 0 68.5 7t64.5 20l37 -95q-80 -40 -181 -40q-82 0 -142 33t-92.5 94t-32.5 145q0 77 31 139t87 97.5t129 35.5q75 0 127.5 -32.5zM159 308h227q-1 58 -29.5 89t-77.5 31
q-103 0 -120 -120zM344 740.5q25 -24.5 25 -60.5q0 -37 -24.5 -61t-61.5 -24q-36 0 -61 24.5t-25 60.5q0 37 24.5 61t61.5 24q36 0 61 -24.5z" />
    <glyph glyph-name="egrave" unicode="&#xe8;" horiz-adv-x="535" vert-adv-y="1400"
d="M404.5 499.5q52.5 -32.5 79 -88t26.5 -122.5q0 -32 -4 -78h-343q8 -55 45 -85t100 -30q38 0 68.5 7t64.5 20l37 -95q-80 -40 -181 -40q-82 0 -142 33t-92.5 94t-32.5 145q0 77 31 139t87 97.5t129 35.5q75 0 127.5 -32.5zM159 308h227q-1 58 -29.5 89t-77.5 31
q-103 0 -120 -120zM378 583l-230 109l55 111l219 -141z" />
    <glyph glyph-name="emacron" unicode="&#x113;" horiz-adv-x="535" vert-adv-y="1400"
d="M404.5 499.5q52.5 -32.5 79 -88t26.5 -122.5q0 -32 -4 -78h-343q8 -55 45 -85t100 -30q38 0 68.5 7t64.5 20l37 -95q-80 -40 -181 -40q-82 0 -142 33t-92.5 94t-32.5 145q0 77 31 139t87 97.5t129 35.5q75 0 127.5 -32.5zM159 308h227q-1 58 -29.5 89t-77.5 31
q-103 0 -120 -120zM443 610h-320v101h320v-101z" />
    <glyph glyph-name="eogonek" unicode="&#x119;" horiz-adv-x="545" vert-adv-y="1400"
d="M506 211h-343q8 -55 45 -85t100 -30q38 0 68.5 7t64.5 20l37 -95q-59 -32 -84 -64t-25 -66q0 -23 14 -36t41 -13q23 0 49 8l22 -83q-43 -18 -99 -18q-61 0 -102.5 33t-41.5 87q0 63 69 113q-8 -1 -24 -1q-82 0 -142 33t-92.5 94t-32.5 145q0 77 31 139t87 97.5t129 35.5
q75 0 127.5 -32.5t79 -88t26.5 -122.5q0 -32 -4 -78zM386 308q-1 58 -29.5 89t-77.5 31q-103 0 -120 -120h227z" />
    <glyph glyph-name="f" unicode="f" horiz-adv-x="374" vert-adv-y="1400"
d="M441 704l-52 -88q-45 24 -93 24q-36 0 -57 -20.5t-21 -57.5v-61h144v-106h-144v-395h-130v395h-74v106h74v62q0 87 54 138t140 51q84 0 159 -48z" />
    <glyph glyph-name="g" unicode="g" horiz-adv-x="583" vert-adv-y="1400"
d="M405 472v48h108v-515q0 -120 -66.5 -178.5t-181.5 -58.5q-50 0 -96 12t-83 34l46 90q30 -14 60.5 -21t69.5 -7q61 0 94.5 31.5t33.5 95.5v55q-54 -58 -132 -58q-58 0 -110.5 31.5t-85 91t-32.5 139.5q0 76 33.5 137.5t88 97t114.5 35.5q81 0 139 -60zM197.5 381.5
q-33.5 -42.5 -33.5 -116.5q0 -72 32.5 -113.5t88.5 -41.5q55 0 98 41v242q-48 31 -98 31q-54 0 -87.5 -42.5z" />
    <glyph glyph-name="gbreve" unicode="&#x11f;" horiz-adv-x="583" vert-adv-y="1400"
d="M405 472v48h108v-515q0 -120 -66.5 -178.5t-181.5 -58.5q-50 0 -96 12t-83 34l46 90q30 -14 60.5 -21t69.5 -7q61 0 94.5 31.5t33.5 95.5v55q-54 -58 -132 -58q-58 0 -110.5 31.5t-85 91t-32.5 139.5q0 76 33.5 137.5t88 97t114.5 35.5q81 0 139 -60zM197.5 381.5
q-33.5 -42.5 -33.5 -116.5q0 -72 32.5 -113.5t88.5 -41.5q55 0 98 41v242q-48 31 -98 31q-54 0 -87.5 -42.5zM483 712q-28 -54 -76.5 -85.5t-117.5 -31.5t-118 31.5t-77 85.5l77 51q22 -31 49.5 -47.5t68.5 -16.5q40 0 67.5 16t50.5 48z" />
    <glyph glyph-name="gcircumflex" unicode="&#x11d;" horiz-adv-x="583" vert-adv-y="1400"
d="M405 472v48h108v-515q0 -120 -66.5 -178.5t-181.5 -58.5q-50 0 -96 12t-83 34l46 90q30 -14 60.5 -21t69.5 -7q61 0 94.5 31.5t33.5 95.5v55q-54 -58 -132 -58q-58 0 -110.5 31.5t-85 91t-32.5 139.5q0 76 33.5 137.5t88 97t114.5 35.5q81 0 139 -60zM197.5 381.5
q-33.5 -42.5 -33.5 -116.5q0 -72 32.5 -113.5t88.5 -41.5q55 0 98 41v242q-48 31 -98 31q-54 0 -87.5 -42.5zM487 652l-64 -82l-134 103l-134 -103l-64 82l150 104h96z" />
    <glyph glyph-name="gcommaaccent" unicode="&#x123;" horiz-adv-x="583" vert-adv-y="1400"
d="M405 472v48h108v-515q0 -120 -66.5 -178.5t-181.5 -58.5q-50 0 -96 12t-83 34l46 90q30 -14 60.5 -21t69.5 -7q61 0 94.5 31.5t33.5 95.5v55q-54 -58 -132 -58q-58 0 -110.5 31.5t-85 91t-32.5 139.5q0 76 33.5 137.5t88 97t114.5 35.5q81 0 139 -60zM197.5 381.5
q-33.5 -42.5 -33.5 -116.5q0 -72 32.5 -113.5t88.5 -41.5q55 0 98 41v242q-48 31 -98 31q-54 0 -87.5 -42.5zM229.5 614q-24.5 24 -24.5 68q0 53 28.5 97.5t83.5 71.5l33 -49q-25 -18 -37 -35t-18 -43q35 0 55 -17.5t20 -48.5q0 -30 -22 -49t-56 -19q-38 0 -62.5 24z" />
    <glyph glyph-name="gdotaccent" unicode="&#x121;" horiz-adv-x="583" vert-adv-y="1400"
d="M405 472v48h108v-515q0 -120 -66.5 -178.5t-181.5 -58.5q-50 0 -96 12t-83 34l46 90q30 -14 60.5 -21t69.5 -7q61 0 94.5 31.5t33.5 95.5v55q-54 -58 -132 -58q-58 0 -110.5 31.5t-85 91t-32.5 139.5q0 76 33.5 137.5t88 97t114.5 35.5q81 0 139 -60zM197.5 381.5
q-33.5 -42.5 -33.5 -116.5q0 -72 32.5 -113.5t88.5 -41.5q55 0 98 41v242q-48 31 -98 31q-54 0 -87.5 -42.5zM350 740.5q25 -24.5 25 -60.5q0 -37 -24.5 -61t-61.5 -24q-36 0 -61 24.5t-25 60.5q0 37 24.5 61t61.5 24q36 0 61 -24.5z" />
    <glyph glyph-name="h" unicode="h" horiz-adv-x="589" vert-adv-y="1400"
d="M200 456q27 36 62 56t85 20q85 0 131 -54t46 -145v-333h-130v325q0 47 -20 72.5t-57 25.5q-62 0 -117 -74v-349h-130v740h130v-284z" />
    <glyph glyph-name="hbar" unicode="&#x127;" horiz-adv-x="593" vert-adv-y="1400"
d="M481 478q46 -54 46 -145v-333h-130v325q0 47 -20 72.5t-57 25.5q-62 0 -117 -74v-349h-130v595h-56v87h56v58h130v-58h132v-87h-132v-139q27 36 62 56t85 20q85 0 131 -54z" />
    <glyph glyph-name="hcircumflex" unicode="&#x125;" horiz-adv-x="589" vert-adv-y="1400"
d="M200 456q27 36 62 56t85 20q85 0 131 -54t46 -145v-333h-130v325q0 47 -20 72.5t-57 25.5q-62 0 -117 -74v-349h-130v740h130v-284zM495 870l-57 -82l-141 92l-140 -92l-58 82l150 93h96z" />
    <glyph glyph-name="i" unicode="i" horiz-adv-x="271" vert-adv-y="1400"
d="M70 0v520h130v-520h-130zM196 740.5q25 -24.5 25 -60.5q0 -37 -24.5 -61t-61.5 -24q-36 0 -61 24.5t-25 60.5q0 37 24.5 61t61.5 24q36 0 61 -24.5z" />
    <glyph glyph-name="dotlessi" unicode="&#x131;" horiz-adv-x="271" vert-adv-y="1400"
d="M70 0v520h130v-520h-130z" />
    <glyph glyph-name="iacute" unicode="&#xed;" horiz-adv-x="271" vert-adv-y="1400"
d="M70 0v520h130v-520h-130zM215 803l55 -111l-229 -109l-45 79z" />
    <glyph glyph-name="ibreve" unicode="&#x12d;" horiz-adv-x="271" vert-adv-y="1400"
d="M70 0v520h130v-520h-130zM329 712q-28 -54 -76.5 -85.5t-117.5 -31.5t-118 31.5t-77 85.5l77 51q22 -31 49.5 -47.5t68.5 -16.5q40 0 67.5 16t50.5 48z" />
    <glyph glyph-name="icircumflex" unicode="&#xee;" horiz-adv-x="271" vert-adv-y="1400"
d="M70 0v520h130v-520h-130zM333 652l-64 -82l-134 103l-134 -103l-64 82l150 104h96z" />
    <glyph glyph-name="idieresis" unicode="&#xef;" horiz-adv-x="271" vert-adv-y="1400"
d="M70 0v520h130v-520h-130zM86 729.5q22 -22.5 22 -56.5t-22 -56t-56 -22q-33 0 -56 22.5t-23 55.5q0 34 22.5 56.5t56.5 22.5t56 -22.5zM296 729.5q23 -22.5 23 -56.5t-22.5 -56t-56.5 -22t-56 22t-22 56t22 56.5t56 22.5q33 0 56 -22.5z" />
    <glyph glyph-name="i.loclTRK" horiz-adv-x="271" vert-adv-y="1400"
d="M70 0v520h130v-520h-130zM196 740.5q25 -24.5 25 -60.5q0 -37 -24.5 -61t-61.5 -24q-36 0 -61 24.5t-25 60.5q0 37 24.5 61t61.5 24q36 0 61 -24.5z" />
    <glyph glyph-name="igrave" unicode="&#xec;" horiz-adv-x="271" vert-adv-y="1400"
d="M70 0v520h130v-520h-130zM230 583l-230 109l55 111l219 -141z" />
    <glyph glyph-name="ij" unicode="&#x133;" horiz-adv-x="547" vert-adv-y="1400"
d="M70 0v520h130v-520h-130zM196 740.5q25 -24.5 25 -60.5q0 -37 -24.5 -61t-61.5 -24q-36 0 -61 24.5t-25 60.5q0 37 24.5 61t61.5 24q36 0 61 -24.5zM477 520v-566q0 -91 -53.5 -138.5t-136.5 -47.5q-65 0 -112 25l33 95q30 -10 64 -10q36 0 55.5 22t19.5 65v555h130z
M473 740.5q25 -24.5 25 -60.5q0 -37 -24.5 -61t-61.5 -24q-36 0 -61 24.5t-25 60.5q0 37 24.5 61t61.5 24q36 0 61 -24.5z" />
    <glyph glyph-name="imacron" unicode="&#x12b;" horiz-adv-x="271" vert-adv-y="1400"
d="M70 0v520h130v-520h-130zM295 610h-320v101h320v-101z" />
    <glyph glyph-name="iogonek" unicode="&#x12f;" horiz-adv-x="271" vert-adv-y="1400"
d="M74 619.5q-25 24.5 -25 60.5q0 37 24.5 61t61.5 24q36 0 61 -24.5t25 -60.5q0 -37 -24.5 -61t-61.5 -24q-36 0 -61 24.5zM196 -142l22 -83q-43 -19 -100 -19q-63 0 -103.5 33t-40.5 91q0 83 96 127v513h130v-520q-57 -21 -83.5 -45.5t-26.5 -56.5q0 -23 14.5 -36
t41.5 -13q25 0 50 9z" />
    <glyph glyph-name="itilde" unicode="&#x129;" horiz-adv-x="271" vert-adv-y="1400"
d="M70 0v520h130v-520h-130zM102.5 735.5q17.5 -6.5 39.5 -19.5q16 -9 27.5 -14t23.5 -5q21 0 38.5 11.5t36.5 32.5l61 -69q-34 -42 -62 -62t-61 -20q-21 0 -37 6.5t-39 19.5q-17 10 -28.5 15t-24.5 5q-21 0 -39 -12t-37 -33l-61 69q34 42 62 62t61 20q22 0 39.5 -6.5z" />
    <glyph glyph-name="j" unicode="j" horiz-adv-x="276" vert-adv-y="1400"
d="M206 520v-566q0 -91 -53.5 -138.5t-136.5 -47.5q-65 0 -112 25l33 95q30 -10 64 -10q36 0 55.5 22t19.5 65v555h130zM202 740.5q25 -24.5 25 -60.5q0 -37 -24.5 -61t-61.5 -24q-36 0 -61 24.5t-25 60.5q0 37 24.5 61t61.5 24q36 0 61 -24.5z" />
    <glyph glyph-name="uni0237" unicode="&#x237;" horiz-adv-x="276" vert-adv-y="1400"
d="M206 520v-566q0 -91 -53.5 -138.5t-136.5 -47.5q-65 0 -112 25l33 95q30 -10 64 -10q36 0 55.5 22t19.5 65v555h130z" />
    <glyph glyph-name="jcircumflex" unicode="&#x135;" horiz-adv-x="276" vert-adv-y="1400"
d="M206 520v-566q0 -91 -53.5 -138.5t-136.5 -47.5q-65 0 -112 25l33 95q30 -10 64 -10q36 0 55.5 22t19.5 65v555h130zM339 652l-64 -82l-134 103l-134 -103l-64 82l150 104h96z" />
    <glyph glyph-name="k" unicode="k" horiz-adv-x="520" vert-adv-y="1400"
d="M200 314l203 217l85 -78l-176 -176l207 -203l-89 -87l-230 240v-227h-130v740h130v-426z" />
    <glyph glyph-name="kcommaaccent" unicode="&#x137;" horiz-adv-x="520" vert-adv-y="1400"
d="M200 314l203 217l85 -78l-176 -176l207 -203l-89 -87l-230 240v-227h-130v740h130v-426zM342.5 -94q24.5 -24 24.5 -68q0 -53 -28.5 -97.5t-83.5 -71.5l-33 49q25 18 37 35t18 43q-35 0 -55 17.5t-20 48.5q0 30 22 49t56 19q38 0 62.5 -24z" />
    <glyph glyph-name="kgreenlandic" unicode="&#x138;" horiz-adv-x="519" vert-adv-y="1400"
d="M200 520v-216l205 227l82 -81l-175 -181l205 -195l-92 -87l-225 229v-216h-130v520h130z" />
    <glyph glyph-name="l" unicode="l" horiz-adv-x="357" vert-adv-y="1400"
d="M190 181q0 -41 19.5 -62t56.5 -21q26 0 63 11l28 -96q-47 -25 -113 -25q-79 0 -131.5 43.5t-52.5 127.5v581h130v-559z" />
    <glyph glyph-name="lacute" unicode="&#x13a;" horiz-adv-x="357" vert-adv-y="1400"
d="M190 181q0 -41 19.5 -62t56.5 -21q26 0 63 11l28 -96q-47 -25 -113 -25q-79 0 -131.5 43.5t-52.5 127.5v581h130v-559zM197 1008l55 -111l-229 -109l-45 79z" />
    <glyph glyph-name="lcaron" unicode="&#x13e;" horiz-adv-x="357" vert-adv-y="1400"
d="M190 181q0 -41 19.5 -62t56.5 -21q26 0 63 11l28 -96q-47 -25 -113 -25q-79 0 -131.5 43.5t-52.5 127.5v581h130v-559zM326 765l91 -73l-140 -145l-67 45z" />
    <glyph glyph-name="lcommaaccent" unicode="&#x13c;" horiz-adv-x="357" vert-adv-y="1400"
d="M190 181q0 -41 19.5 -62t56.5 -21q26 0 63 11l28 -96q-47 -25 -113 -25q-79 0 -131.5 43.5t-52.5 127.5v581h130v-559zM279.5 -94q24.5 -24 24.5 -68q0 -53 -28.5 -97.5t-83.5 -71.5l-33 49q25 18 37 35t18 43q-35 0 -55 17.5t-20 48.5q0 30 22 49t56 19q38 0 62.5 -24z
" />
    <glyph glyph-name="ldot" unicode="&#x140;" horiz-adv-x="388" vert-adv-y="1400"
d="M190 181q0 -41 19.5 -62t56.5 -21q26 0 63 11l28 -96q-47 -25 -113 -25q-79 0 -131.5 43.5t-52.5 127.5v581h130v-559zM372 424.5q25 -24.5 25 -60.5q0 -37 -24.5 -61t-61.5 -24q-36 0 -61 24.5t-25 60.5q0 37 24.5 61t61.5 24q36 0 61 -24.5z" />
    <glyph glyph-name="lslash" unicode="&#x142;" horiz-adv-x="388" vert-adv-y="1400"
d="M388 13q-47 -25 -113 -25q-79 0 -131.5 43.5t-52.5 127.5v141l-55 -25l-39 84l94 43v338h130v-279l106 49l40 -84l-146 -67v-178q0 -41 19.5 -62t56.5 -21q26 0 63 11z" />
    <glyph glyph-name="m" unicode="m" horiz-adv-x="885" vert-adv-y="1400"
d="M774 478q45 -54 45 -144v-334h-130v326q0 47 -18 72t-52 25q-31 0 -57.5 -18.5t-51.5 -54.5v-350h-130v326q0 47 -18 72t-53 25q-30 0 -56.5 -18t-52.5 -54v-351h-130v520h110v-83q55 95 159 95q53 0 91.5 -24t58.5 -68q60 92 159 92q81 0 126 -54z" />
    <glyph glyph-name="n" unicode="n" horiz-adv-x="589" vert-adv-y="1400"
d="M347 532q85 0 131 -54t46 -145v-333h-130v325q0 47 -20 72.5t-57 25.5q-33 0 -61.5 -18.5t-55.5 -54.5v-350h-130v520h110v-79q63 91 167 91z" />
    <glyph glyph-name="nacute" unicode="&#x144;" horiz-adv-x="589" vert-adv-y="1400"
d="M347 532q85 0 131 -54t46 -145v-333h-130v325q0 47 -20 72.5t-57 25.5q-33 0 -61.5 -18.5t-55.5 -54.5v-350h-130v520h110v-79q63 91 167 91zM375 803l55 -111l-229 -109l-45 79z" />
    <glyph glyph-name="ncaron" unicode="&#x148;" horiz-adv-x="589" vert-adv-y="1400"
d="M347 532q85 0 131 -54t46 -145v-333h-130v325q0 47 -20 72.5t-57 25.5q-33 0 -61.5 -18.5t-55.5 -54.5v-350h-130v520h110v-79q63 91 167 91zM493 697l-150 -104h-96l-150 104l64 82l134 -102l134 102z" />
    <glyph glyph-name="ncommaaccent" unicode="&#x146;" horiz-adv-x="589" vert-adv-y="1400"
d="M347 532q85 0 131 -54t46 -145v-333h-130v325q0 47 -20 72.5t-57 25.5q-33 0 -61.5 -18.5t-55.5 -54.5v-350h-130v520h110v-79q63 91 167 91zM354.5 -94q24.5 -24 24.5 -68q0 -53 -28.5 -97.5t-83.5 -71.5l-33 49q25 18 37 35t18 43q-35 0 -55 17.5t-20 48.5q0 30 22 49
t56 19q38 0 62.5 -24z" />
    <glyph glyph-name="eng" unicode="&#x14b;" horiz-adv-x="589" vert-adv-y="1400"
d="M478 478q46 -54 46 -145v-379q0 -91 -53.5 -138.5t-136.5 -47.5q-65 0 -112 25l33 95q30 -10 64 -10q36 0 55.5 22t19.5 65v360q0 47 -20 72.5t-57 25.5q-33 0 -61.5 -18.5t-55.5 -54.5v-350h-130v520h110v-79q63 91 167 91q85 0 131 -54z" />
    <glyph glyph-name="ntilde" unicode="&#xf1;" horiz-adv-x="589" vert-adv-y="1400"
d="M347 532q85 0 131 -54t46 -145v-333h-130v325q0 47 -20 72.5t-57 25.5q-33 0 -61.5 -18.5t-55.5 -54.5v-350h-130v520h110v-79q63 91 167 91zM262.5 735.5q17.5 -6.5 39.5 -19.5q16 -9 27.5 -14t23.5 -5q21 0 38.5 11.5t36.5 32.5l61 -69q-34 -42 -62 -62t-61 -20
q-21 0 -37 6.5t-39 19.5q-17 10 -28.5 15t-24.5 5q-21 0 -39 -12t-37 -33l-61 69q34 42 62 62t61 20q22 0 39.5 -6.5z" />
    <glyph glyph-name="o" unicode="o" horiz-adv-x="595" vert-adv-y="1400"
d="M435.5 497.5q60.5 -34.5 94.5 -96.5t34 -141q0 -82 -35 -143.5t-95.5 -95t-135.5 -33.5q-78 0 -139 34.5t-95 96.5t-34 141q0 82 35 143.5t96 95t137 33.5q77 0 137.5 -34.5zM199 379q-35 -43 -35 -120q0 -69 36.5 -115t97.5 -46q63 0 98 43t35 120q0 69 -36.5 115
t-96.5 46q-64 0 -99 -43z" />
    <glyph glyph-name="oacute" unicode="&#xf3;" horiz-adv-x="595" vert-adv-y="1400"
d="M435.5 497.5q60.5 -34.5 94.5 -96.5t34 -141q0 -82 -35 -143.5t-95.5 -95t-135.5 -33.5q-78 0 -139 34.5t-95 96.5t-34 141q0 82 35 143.5t96 95t137 33.5q77 0 137.5 -34.5zM199 379q-35 -43 -35 -120q0 -69 36.5 -115t97.5 -46q63 0 98 43t35 120q0 69 -36.5 115
t-96.5 46q-64 0 -99 -43zM376 803l55 -111l-229 -109l-45 79z" />
    <glyph glyph-name="obreve" unicode="&#x14f;" horiz-adv-x="595" vert-adv-y="1400"
d="M435.5 497.5q60.5 -34.5 94.5 -96.5t34 -141q0 -82 -35 -143.5t-95.5 -95t-135.5 -33.5q-78 0 -139 34.5t-95 96.5t-34 141q0 82 35 143.5t96 95t137 33.5q77 0 137.5 -34.5zM199 379q-35 -43 -35 -120q0 -69 36.5 -115t97.5 -46q63 0 98 43t35 120q0 69 -36.5 115
t-96.5 46q-64 0 -99 -43zM490 712q-28 -54 -76.5 -85.5t-117.5 -31.5t-118 31.5t-77 85.5l77 51q22 -31 49.5 -47.5t68.5 -16.5q40 0 67.5 16t50.5 48z" />
    <glyph glyph-name="ocircumflex" unicode="&#xf4;" horiz-adv-x="595" vert-adv-y="1400"
d="M435.5 497.5q60.5 -34.5 94.5 -96.5t34 -141q0 -82 -35 -143.5t-95.5 -95t-135.5 -33.5q-78 0 -139 34.5t-95 96.5t-34 141q0 82 35 143.5t96 95t137 33.5q77 0 137.5 -34.5zM199 379q-35 -43 -35 -120q0 -69 36.5 -115t97.5 -46q63 0 98 43t35 120q0 69 -36.5 115
t-96.5 46q-64 0 -99 -43zM494 652l-64 -82l-134 103l-134 -103l-64 82l150 104h96z" />
    <glyph glyph-name="odieresis" unicode="&#xf6;" horiz-adv-x="595" vert-adv-y="1400"
d="M435.5 497.5q60.5 -34.5 94.5 -96.5t34 -141q0 -82 -35 -143.5t-95.5 -95t-135.5 -33.5q-78 0 -139 34.5t-95 96.5t-34 141q0 82 35 143.5t96 95t137 33.5q77 0 137.5 -34.5zM199 379q-35 -43 -35 -120q0 -69 36.5 -115t97.5 -46q63 0 98 43t35 120q0 69 -36.5 115
t-96.5 46q-64 0 -99 -43zM247 729.5q22 -22.5 22 -56.5t-22 -56t-56 -22q-33 0 -56 22.5t-23 55.5q0 34 22.5 56.5t56.5 22.5t56 -22.5zM457 729.5q23 -22.5 23 -56.5t-22.5 -56t-56.5 -22t-56 22t-22 56t22 56.5t56 22.5q33 0 56 -22.5z" />
    <glyph glyph-name="ograve" unicode="&#xf2;" horiz-adv-x="595" vert-adv-y="1400"
d="M435.5 497.5q60.5 -34.5 94.5 -96.5t34 -141q0 -82 -35 -143.5t-95.5 -95t-135.5 -33.5q-78 0 -139 34.5t-95 96.5t-34 141q0 82 35 143.5t96 95t137 33.5q77 0 137.5 -34.5zM199 379q-35 -43 -35 -120q0 -69 36.5 -115t97.5 -46q63 0 98 43t35 120q0 69 -36.5 115
t-96.5 46q-64 0 -99 -43zM391 583l-230 109l55 111l219 -141z" />
    <glyph glyph-name="ohungarumlaut" unicode="&#x151;" horiz-adv-x="595" vert-adv-y="1400"
d="M435.5 497.5q60.5 -34.5 94.5 -96.5t34 -141q0 -82 -35 -143.5t-95.5 -95t-135.5 -33.5q-78 0 -139 34.5t-95 96.5t-34 141q0 82 35 143.5t96 95t137 33.5q77 0 137.5 -34.5zM199 379q-35 -43 -35 -120q0 -69 36.5 -115t97.5 -46q63 0 98 43t35 120q0 69 -36.5 115
t-96.5 46q-64 0 -99 -43zM348 774l-112 -185l-76 39l86 197zM516 758l-111 -185l-76 39l86 197z" />
    <glyph glyph-name="omacron" unicode="&#x14d;" horiz-adv-x="595" vert-adv-y="1400"
d="M435.5 497.5q60.5 -34.5 94.5 -96.5t34 -141q0 -82 -35 -143.5t-95.5 -95t-135.5 -33.5q-78 0 -139 34.5t-95 96.5t-34 141q0 82 35 143.5t96 95t137 33.5q77 0 137.5 -34.5zM199 379q-35 -43 -35 -120q0 -69 36.5 -115t97.5 -46q63 0 98 43t35 120q0 69 -36.5 115
t-96.5 46q-64 0 -99 -43zM456 610h-320v101h320v-101z" />
    <glyph glyph-name="oslash" unicode="&#xf8;" horiz-adv-x="595" vert-adv-y="1400"
d="M535 386q29 -57 29 -125q0 -82 -35 -144t-95.5 -95.5t-135.5 -33.5q-34 0 -74 10l-48 -111l-98 50l61 103q-51 37 -80 94.5t-29 125.5q0 82 35 143.5t96 95t137 33.5q34 0 74 -10l49 114l99 -50l-63 -106q49 -37 78 -94zM197.5 380.5q-35.5 -43.5 -35.5 -121.5
q0 -79 33 -120l135 282q-15 3 -32 3q-65 0 -100.5 -43.5zM397 139.5q35 43.5 35 121.5q0 79 -32 119l-134 -281q15 -3 32 -3q64 0 99 43.5z" />
    <glyph glyph-name="oslashacute" unicode="&#x1ff;" horiz-adv-x="595" vert-adv-y="1400"
d="M535 386q29 -57 29 -125q0 -82 -35 -144t-95.5 -95.5t-135.5 -33.5q-34 0 -74 10l-48 -111l-98 50l61 103q-51 37 -80 94.5t-29 125.5q0 82 35 143.5t96 95t137 33.5q34 0 74 -10l49 114l99 -50l-63 -106q49 -37 78 -94zM197.5 380.5q-35.5 -43.5 -35.5 -121.5
q0 -79 33 -120l135 282q-15 3 -32 3q-65 0 -100.5 -43.5zM397 139.5q35 43.5 35 121.5q0 79 -32 119l-134 -281q15 -3 32 -3q64 0 99 43.5zM379 803l55 -111l-229 -109l-45 79z" />
    <glyph glyph-name="otilde" unicode="&#xf5;" horiz-adv-x="595" vert-adv-y="1400"
d="M435.5 497.5q60.5 -34.5 94.5 -96.5t34 -141q0 -82 -35 -143.5t-95.5 -95t-135.5 -33.5q-78 0 -139 34.5t-95 96.5t-34 141q0 82 35 143.5t96 95t137 33.5q77 0 137.5 -34.5zM199 379q-35 -43 -35 -120q0 -69 36.5 -115t97.5 -46q63 0 98 43t35 120q0 69 -36.5 115
t-96.5 46q-64 0 -99 -43zM263.5 735.5q17.5 -6.5 39.5 -19.5q16 -9 27.5 -14t23.5 -5q21 0 38.5 11.5t36.5 32.5l61 -69q-34 -42 -62 -62t-61 -20q-21 0 -37 6.5t-39 19.5q-17 10 -28.5 15t-24.5 5q-21 0 -39 -12t-37 -33l-61 69q34 42 62 62t61 20q22 0 39.5 -6.5z" />
    <glyph glyph-name="oe" unicode="&#x153;" horiz-adv-x="923" vert-adv-y="1400"
d="M794.5 499q50.5 -33 76.5 -88.5t26 -121.5q0 -47 -4 -78h-333q10 -56 46 -86t94 -30q36 0 66.5 7.5t65.5 22.5l33 -97q-80 -40 -174 -40q-139 0 -203 106q-66 -106 -197 -106q-74 0 -133.5 34.5t-93.5 96.5t-34 141q0 82 35 143.5t94.5 95t131.5 33.5q65 0 117.5 -28
t82.5 -81q32 55 77 82t107 27q69 0 119.5 -33zM595.5 397.5q-29.5 -29.5 -38.5 -91.5h217q-1 59 -28.5 90t-74.5 31q-46 0 -75.5 -29.5zM198.5 380q-34.5 -43 -34.5 -121q0 -69 36 -115.5t94 -46.5q61 0 95.5 43t34.5 121q0 70 -36 116t-94 46q-61 0 -95.5 -43z" />
    <glyph glyph-name="p" unicode="p" horiz-adv-x="601" vert-adv-y="1400"
d="M456.5 500q51.5 -32 83 -92t31.5 -142q0 -80 -31.5 -143.5t-84 -99t-111.5 -35.5q-73 0 -128 52v-260h-130v578q0 33 -17 47.5t-44 14.5l28 100q101 0 134 -68q29 37 69.5 58.5t89.5 21.5q59 0 110.5 -32zM262 411.5q-27 -12.5 -46 -33.5v-237q41 -43 100 -43
q55 0 88 43.5t33 121.5q0 77 -31 119t-84 42q-33 0 -60 -12.5z" />
    <glyph glyph-name="thorn" unicode="&#xfe;" horiz-adv-x="586" vert-adv-y="1400"
d="M200 477q23 25 56 40t75 15q59 0 110 -32t82.5 -92.5t31.5 -141.5q0 -80 -31.5 -143.5t-83.5 -99t-112 -35.5q-71 0 -128 52v-260h-130v920h130v-223zM246.5 411.5q-27.5 -12.5 -46.5 -33.5v-237q41 -43 101 -43q55 0 88 43.5t33 121.5q0 77 -31 119t-84 42
q-33 0 -60.5 -12.5z" />
    <glyph glyph-name="q" unicode="q" horiz-adv-x="586" vert-adv-y="1400"
d="M408 469v51h107v-740h-130v263q-49 -55 -129 -55q-56 0 -108 33t-85 94t-33 142q0 79 33 141.5t88 98t118 35.5q81 0 139 -63zM198 380.5q-34 -43.5 -34 -120.5q0 -76 32.5 -119t88.5 -43q59 0 100 46v249q-45 31 -96 31q-57 0 -91 -43.5z" />
    <glyph glyph-name="r" unicode="r" horiz-adv-x="417" vert-adv-y="1400"
d="M410 523l-36 -121q-21 6 -48 6q-33 0 -62 -20t-46.5 -60t-17.5 -97v-231h-130v520h116v-102q20 53 61 83.5t100 30.5q36 0 63 -9z" />
    <glyph glyph-name="racute" unicode="&#x155;" horiz-adv-x="417" vert-adv-y="1400"
d="M410 523l-36 -121q-21 6 -48 6q-33 0 -62 -20t-46.5 -60t-17.5 -97v-231h-130v520h116v-102q20 53 61 83.5t100 30.5q36 0 63 -9zM320 803l55 -111l-229 -109l-45 79z" />
    <glyph glyph-name="rcaron" unicode="&#x159;" horiz-adv-x="417" vert-adv-y="1400"
d="M410 523l-36 -121q-21 6 -48 6q-33 0 -62 -20t-46.5 -60t-17.5 -97v-231h-130v520h116v-102q20 53 61 83.5t100 30.5q36 0 63 -9zM438 697l-150 -104h-96l-150 104l64 82l134 -102l134 102z" />
    <glyph glyph-name="rcommaaccent" unicode="&#x157;" horiz-adv-x="417" vert-adv-y="1400"
d="M410 523l-36 -121q-21 6 -48 6q-33 0 -62 -20t-46.5 -60t-17.5 -97v-231h-130v520h116v-102q20 53 61 83.5t100 30.5q36 0 63 -9zM194.5 -94q24.5 -24 24.5 -68q0 -53 -28.5 -97.5t-83.5 -71.5l-33 49q25 18 37 35t18 43q-35 0 -55 17.5t-20 48.5q0 30 22 49t56 19
q38 0 62.5 -24z" />
    <glyph glyph-name="s" unicode="s" horiz-adv-x="452" vert-adv-y="1400"
d="M138 106.5q35 -9.5 77 -9.5q43 0 65.5 13t22.5 37q0 16 -9.5 27t-34.5 22t-73 26q-80 24 -117 60.5t-37 97.5q0 69 55.5 110.5t152.5 41.5q102 0 185 -45l-50 -89q-32 14 -63 21.5t-70 7.5t-58 -11.5t-19 -31.5q0 -22 22 -37.5t88 -34.5q85 -25 123.5 -62t38.5 -97
q0 -78 -58 -121.5t-163 -43.5q-62 0 -112 14t-94 42l56 91q37 -19 72 -28.5z" />
    <glyph glyph-name="sacute" unicode="&#x15b;" horiz-adv-x="452" vert-adv-y="1400"
d="M138 106.5q35 -9.5 77 -9.5q43 0 65.5 13t22.5 37q0 16 -9.5 27t-34.5 22t-73 26q-80 24 -117 60.5t-37 97.5q0 69 55.5 110.5t152.5 41.5q102 0 185 -45l-50 -89q-32 14 -63 21.5t-70 7.5t-58 -11.5t-19 -31.5q0 -22 22 -37.5t88 -34.5q85 -25 123.5 -62t38.5 -97
q0 -78 -58 -121.5t-163 -43.5q-62 0 -112 14t-94 42l56 91q37 -19 72 -28.5zM316 803l55 -111l-229 -109l-45 79z" />
    <glyph glyph-name="scaron" unicode="&#x161;" horiz-adv-x="452" vert-adv-y="1400"
d="M138 106.5q35 -9.5 77 -9.5q43 0 65.5 13t22.5 37q0 16 -9.5 27t-34.5 22t-73 26q-80 24 -117 60.5t-37 97.5q0 69 55.5 110.5t152.5 41.5q102 0 185 -45l-50 -89q-32 14 -63 21.5t-70 7.5t-58 -11.5t-19 -31.5q0 -22 22 -37.5t88 -34.5q85 -25 123.5 -62t38.5 -97
q0 -78 -58 -121.5t-163 -43.5q-62 0 -112 14t-94 42l56 91q37 -19 72 -28.5zM434 697l-150 -104h-96l-150 104l64 82l134 -102l134 102z" />
    <glyph glyph-name="scedilla" unicode="&#x15f;" horiz-adv-x="452" vert-adv-y="1400"
d="M393 43.5q-44 -42.5 -124 -52.5l-14 -40q51 -4 79 -27.5t28 -66.5q0 -52 -42 -83t-113 -31q-66 0 -114 22l32 81q37 -13 70 -13q48 0 48 29q0 38 -103 38l33 90q-91 8 -163 54l56 91q37 -19 72 -28.5t77 -9.5q43 0 65.5 13t22.5 37q0 16 -9.5 27t-34.5 22t-73 26
q-80 24 -117 60.5t-37 97.5q0 69 55.5 110.5t152.5 41.5q102 0 185 -45l-50 -89q-32 14 -63 21.5t-70 7.5t-58 -11.5t-19 -31.5q0 -22 22 -37.5t88 -34.5q85 -25 123.5 -62t38.5 -97q0 -67 -44 -109.5z" />
    <glyph glyph-name="scircumflex" unicode="&#x15d;" horiz-adv-x="452" vert-adv-y="1400"
d="M138 106.5q35 -9.5 77 -9.5q43 0 65.5 13t22.5 37q0 16 -9.5 27t-34.5 22t-73 26q-80 24 -117 60.5t-37 97.5q0 69 55.5 110.5t152.5 41.5q102 0 185 -45l-50 -89q-32 14 -63 21.5t-70 7.5t-58 -11.5t-19 -31.5q0 -22 22 -37.5t88 -34.5q85 -25 123.5 -62t38.5 -97
q0 -78 -58 -121.5t-163 -43.5q-62 0 -112 14t-94 42l56 91q37 -19 72 -28.5zM434 652l-64 -82l-134 103l-134 -103l-64 82l150 104h96z" />
    <glyph glyph-name="scommaaccent" unicode="&#x219;" horiz-adv-x="452" vert-adv-y="1400"
d="M138 106.5q35 -9.5 77 -9.5q43 0 65.5 13t22.5 37q0 16 -9.5 27t-34.5 22t-73 26q-80 24 -117 60.5t-37 97.5q0 69 55.5 110.5t152.5 41.5q102 0 185 -45l-50 -89q-32 14 -63 21.5t-70 7.5t-58 -11.5t-19 -31.5q0 -22 22 -37.5t88 -34.5q85 -25 123.5 -62t38.5 -97
q0 -78 -58 -121.5t-163 -43.5q-62 0 -112 14t-94 42l56 91q37 -19 72 -28.5zM285.5 -94q24.5 -24 24.5 -68q0 -53 -28.5 -97.5t-83.5 -71.5l-33 49q25 18 37 35t18 43q-35 0 -55 17.5t-20 48.5q0 30 22 49t56 19q38 0 62.5 -24z" />
    <glyph glyph-name="germandbls" unicode="&#xdf;" horiz-adv-x="614" vert-adv-y="1400"
d="M435.5 725.5q50.5 -26.5 77.5 -71t27 -97.5q0 -116 -113 -157q75 -18 116 -67t41 -124q0 -66 -29 -116t-83 -77.5t-127 -27.5q-62 0 -106 19l30 98q31 -9 67 -9q54 0 84.5 28t30.5 85q0 63 -43 98t-123 35v99q65 0 95.5 27t30.5 83q0 46 -25 72t-70 26q-59 0 -87.5 -44.5
t-28.5 -141.5v-683h-130v676q0 138 62.5 217t186.5 79q66 0 116.5 -26.5z" />
    <glyph glyph-name="t" unicode="t" horiz-adv-x="406" vert-adv-y="1400"
d="M218 501h136v-106h-136v-215q0 -42 20 -62t52 -20q41 0 81 17l35 -92q-63 -35 -136 -35q-80 0 -131 46.5t-51 130.5v230h-84v106h90l24 164h100v-164z" />
    <glyph glyph-name="tbar" unicode="&#x167;" horiz-adv-x="406" vert-adv-y="1400"
d="M406 23q-63 -35 -136 -35q-80 0 -131 46.5t-51 130.5v62h-84v100h84v68h-84v106h90l24 164h100v-164h136v-106h-136v-68h127v-100h-127v-47q0 -42 20 -62t52 -20q41 0 81 17z" />
    <glyph glyph-name="tcaron" unicode="&#x165;" horiz-adv-x="406" vert-adv-y="1400"
d="M218 501h136v-106h-136v-215q0 -42 20 -62t52 -20q41 0 81 17l35 -92q-63 -35 -136 -35q-80 0 -131 46.5t-51 130.5v230h-84v106h90l24 164h100v-164zM361 751l91 -73l-140 -145l-67 45z" />
    <glyph glyph-name="uni0163" unicode="&#x163;" horiz-adv-x="406" vert-adv-y="1400"
d="M367 -76.5q28 -23.5 28 -66.5q0 -52 -42 -83t-113 -31q-66 0 -114 22l32 81q37 -13 70 -13q48 0 48 29q0 38 -103 38l36 96q-56 16 -88.5 59t-32.5 110v230h-84v106h90l24 164h100v-164h136v-106h-136v-215q0 -42 20 -62t52 -20q41 0 81 17l35 -92q-50 -28 -105 -33
l-13 -39q51 -4 79 -27.5z" />
    <glyph glyph-name="uni021B" unicode="&#x21b;" horiz-adv-x="406" vert-adv-y="1400"
d="M218 501h136v-106h-136v-215q0 -42 20 -62t52 -20q41 0 81 17l35 -92q-63 -35 -136 -35q-80 0 -131 46.5t-51 130.5v230h-84v106h90l24 164h100v-164zM318.5 -94q24.5 -24 24.5 -68q0 -53 -28.5 -97.5t-83.5 -71.5l-33 49q25 18 37 35t18 43q-35 0 -55 17.5t-20 48.5
q0 30 22 49t56 19q38 0 62.5 -24z" />
    <glyph glyph-name="u" unicode="u" horiz-adv-x="596" vert-adv-y="1400"
d="M510 160q0 -65 60 -65l-27 -100q-103 0 -134 70q-65 -77 -164 -77q-48 0 -88.5 20.5t-66 64.5t-25.5 111v336h130v-329q0 -94 80 -94q57 0 105 42v381h130v-360z" />
    <glyph glyph-name="uacute" unicode="&#xfa;" horiz-adv-x="596" vert-adv-y="1400"
d="M510 160q0 -65 60 -65l-27 -100q-103 0 -134 70q-65 -77 -164 -77q-48 0 -88.5 20.5t-66 64.5t-25.5 111v336h130v-329q0 -94 80 -94q57 0 105 42v381h130v-360zM369 803l55 -111l-229 -109l-45 79z" />
    <glyph glyph-name="ubreve" unicode="&#x16d;" horiz-adv-x="596" vert-adv-y="1400"
d="M510 160q0 -65 60 -65l-27 -100q-103 0 -134 70q-65 -77 -164 -77q-48 0 -88.5 20.5t-66 64.5t-25.5 111v336h130v-329q0 -94 80 -94q57 0 105 42v381h130v-360zM483 712q-28 -54 -76.5 -85.5t-117.5 -31.5t-118 31.5t-77 85.5l77 51q22 -31 49.5 -47.5t68.5 -16.5
q40 0 67.5 16t50.5 48z" />
    <glyph glyph-name="ucircumflex" unicode="&#xfb;" horiz-adv-x="596" vert-adv-y="1400"
d="M510 160q0 -65 60 -65l-27 -100q-103 0 -134 70q-65 -77 -164 -77q-48 0 -88.5 20.5t-66 64.5t-25.5 111v336h130v-329q0 -94 80 -94q57 0 105 42v381h130v-360zM487 652l-64 -82l-134 103l-134 -103l-64 82l150 104h96z" />
    <glyph glyph-name="udieresis" unicode="&#xfc;" horiz-adv-x="596" vert-adv-y="1400"
d="M510 160q0 -65 60 -65l-27 -100q-103 0 -134 70q-65 -77 -164 -77q-48 0 -88.5 20.5t-66 64.5t-25.5 111v336h130v-329q0 -94 80 -94q57 0 105 42v381h130v-360zM240 729.5q22 -22.5 22 -56.5t-22 -56t-56 -22q-33 0 -56 22.5t-23 55.5q0 34 22.5 56.5t56.5 22.5
t56 -22.5zM450 729.5q23 -22.5 23 -56.5t-22.5 -56t-56.5 -22t-56 22t-22 56t22 56.5t56 22.5q33 0 56 -22.5z" />
    <glyph glyph-name="ugrave" unicode="&#xf9;" horiz-adv-x="596" vert-adv-y="1400"
d="M510 160q0 -65 60 -65l-27 -100q-103 0 -134 70q-65 -77 -164 -77q-48 0 -88.5 20.5t-66 64.5t-25.5 111v336h130v-329q0 -94 80 -94q57 0 105 42v381h130v-360zM384 583l-230 109l55 111l219 -141z" />
    <glyph glyph-name="uhungarumlaut" unicode="&#x171;" horiz-adv-x="596" vert-adv-y="1400"
d="M510 160q0 -65 60 -65l-27 -100q-103 0 -134 70q-65 -77 -164 -77q-48 0 -88.5 20.5t-66 64.5t-25.5 111v336h130v-329q0 -94 80 -94q57 0 105 42v381h130v-360zM341 774l-112 -185l-76 39l86 197zM509 758l-111 -185l-76 39l86 197z" />
    <glyph glyph-name="umacron" unicode="&#x16b;" horiz-adv-x="596" vert-adv-y="1400"
d="M510 160q0 -65 60 -65l-27 -100q-103 0 -134 70q-65 -77 -164 -77q-48 0 -88.5 20.5t-66 64.5t-25.5 111v336h130v-329q0 -94 80 -94q57 0 105 42v381h130v-360zM449 610h-320v101h320v-101z" />
    <glyph glyph-name="uogonek" unicode="&#x173;" horiz-adv-x="596" vert-adv-y="1400"
d="M539 -147l22 -83q-43 -19 -100 -19q-63 0 -103.5 33t-40.5 91q0 97 133 142q-28 17 -41 48q-65 -77 -164 -77q-48 0 -88.5 20.5t-66 64.5t-25.5 111v336h130v-329q0 -94 80 -94q57 0 105 42v381h130v-360q0 -65 60 -65l-27 -100q-57 -21 -83.5 -45.5t-26.5 -56.5
q0 -23 14.5 -36t41.5 -13q25 0 50 9z" />
    <glyph glyph-name="uring" unicode="&#x16f;" horiz-adv-x="596" vert-adv-y="1400"
d="M510 160q0 -65 60 -65l-27 -100q-103 0 -134 70q-65 -77 -164 -77q-48 0 -88.5 20.5t-66 64.5t-25.5 111v336h130v-329q0 -94 80 -94q57 0 105 42v381h130v-360zM392.5 817q41.5 -39 41.5 -99t-41.5 -99t-103.5 -39q-64 0 -105 38.5t-41 99.5q0 60 41 99t105 39
q62 0 103.5 -39zM257.5 760q-11.5 -15 -11.5 -42q0 -26 12 -41.5t31 -15.5t30.5 15t11.5 42t-11 42t-31 15t-31.5 -15z" />
    <glyph glyph-name="utilde" unicode="&#x169;" horiz-adv-x="596" vert-adv-y="1400"
d="M510 160q0 -65 60 -65l-27 -100q-103 0 -134 70q-65 -77 -164 -77q-48 0 -88.5 20.5t-66 64.5t-25.5 111v336h130v-329q0 -94 80 -94q57 0 105 42v381h130v-360zM256.5 735.5q17.5 -6.5 39.5 -19.5q16 -9 27.5 -14t23.5 -5q21 0 38.5 11.5t36.5 32.5l61 -69
q-34 -42 -62 -62t-61 -20q-21 0 -37 6.5t-39 19.5q-17 10 -28.5 15t-24.5 5q-21 0 -39 -12t-37 -33l-61 69q34 42 62 62t61 20q22 0 39.5 -6.5z" />
    <glyph glyph-name="v" unicode="v" horiz-adv-x="539" vert-adv-y="1400"
d="M122 531l149 -398l149 397l115 -42l-202 -488h-128l-201 488z" />
    <glyph glyph-name="w" unicode="w" horiz-adv-x="787" vert-adv-y="1400"
d="M781 490l-165 -490h-132l-91 355l-89 -355h-133l-164 490l121 40l114 -391l94 354h122l93 -355l111 392z" />
    <glyph glyph-name="wacute" unicode="&#x1e83;" horiz-adv-x="787" vert-adv-y="1400"
d="M781 490l-165 -490h-132l-91 355l-89 -355h-133l-164 490l121 40l114 -391l94 354h122l93 -355l111 392zM477 803l55 -111l-229 -109l-45 79z" />
    <glyph glyph-name="wcircumflex" unicode="&#x175;" horiz-adv-x="787" vert-adv-y="1400"
d="M781 490l-165 -490h-132l-91 355l-89 -355h-133l-164 490l121 40l114 -391l94 354h122l93 -355l111 392zM595 652l-64 -82l-134 103l-134 -103l-64 82l150 104h96z" />
    <glyph glyph-name="wdieresis" unicode="&#x1e85;" horiz-adv-x="787" vert-adv-y="1400"
d="M781 490l-165 -490h-132l-91 355l-89 -355h-133l-164 490l121 40l114 -391l94 354h122l93 -355l111 392zM348 729.5q22 -22.5 22 -56.5t-22 -56t-56 -22q-33 0 -56 22.5t-23 55.5q0 34 22.5 56.5t56.5 22.5t56 -22.5zM558 729.5q23 -22.5 23 -56.5t-22.5 -56t-56.5 -22
t-56 22t-22 56t22 56.5t56 22.5q33 0 56 -22.5z" />
    <glyph glyph-name="wgrave" unicode="&#x1e81;" horiz-adv-x="787" vert-adv-y="1400"
d="M781 490l-165 -490h-132l-91 355l-89 -355h-133l-164 490l121 40l114 -391l94 354h122l93 -355l111 392zM492 583l-230 109l55 111l219 -141z" />
    <glyph glyph-name="x" unicode="x" horiz-adv-x="511" vert-adv-y="1400"
d="M13 452l99 78l142 -186l142 186l94 -78l-161 -184l176 -199l-99 -80l-152 195l-153 -195l-94 80l172 195z" />
    <glyph glyph-name="y" unicode="y" horiz-adv-x="537" vert-adv-y="1400"
d="M532 484l-190 -512q-43 -115 -99 -160t-135 -45q-30 0 -57 7t-46 19l30 95q33 -14 71 -14q41 0 70.5 26.5t53.5 91.5l17 46h-49l-201 446l117 46l167 -398l137 398z" />
    <glyph glyph-name="yacute" unicode="&#xfd;" horiz-adv-x="537" vert-adv-y="1400"
d="M532 484l-190 -512q-43 -115 -99 -160t-135 -45q-30 0 -57 7t-46 19l30 95q33 -14 71 -14q41 0 70.5 26.5t53.5 91.5l17 46h-49l-201 446l117 46l167 -398l137 398zM350 803l55 -111l-229 -109l-45 79z" />
    <glyph glyph-name="ycircumflex" unicode="&#x177;" horiz-adv-x="537" vert-adv-y="1400"
d="M532 484l-190 -512q-43 -115 -99 -160t-135 -45q-30 0 -57 7t-46 19l30 95q33 -14 71 -14q41 0 70.5 26.5t53.5 91.5l17 46h-49l-201 446l117 46l167 -398l137 398zM468 652l-64 -82l-134 103l-134 -103l-64 82l150 104h96z" />
    <glyph glyph-name="ydieresis" unicode="&#xff;" horiz-adv-x="537" vert-adv-y="1400"
d="M532 484l-190 -512q-43 -115 -99 -160t-135 -45q-30 0 -57 7t-46 19l30 95q33 -14 71 -14q41 0 70.5 26.5t53.5 91.5l17 46h-49l-201 446l117 46l167 -398l137 398zM221 729.5q22 -22.5 22 -56.5t-22 -56t-56 -22q-33 0 -56 22.5t-23 55.5q0 34 22.5 56.5t56.5 22.5
t56 -22.5zM431 729.5q23 -22.5 23 -56.5t-22.5 -56t-56.5 -22t-56 22t-22 56t22 56.5t56 22.5q33 0 56 -22.5z" />
    <glyph glyph-name="ygrave" unicode="&#x1ef3;" horiz-adv-x="537" vert-adv-y="1400"
d="M532 484l-190 -512q-43 -115 -99 -160t-135 -45q-30 0 -57 7t-46 19l30 95q33 -14 71 -14q41 0 70.5 26.5t53.5 91.5l17 46h-49l-201 446l117 46l167 -398l137 398zM365 583l-230 109l55 111l219 -141z" />
    <glyph glyph-name="z" unicode="z" horiz-adv-x="474" vert-adv-y="1400"
d="M445 520v-93l-261 -313h267v-114h-422v98l259 314h-252v108h409z" />
    <glyph glyph-name="zacute" unicode="&#x17a;" horiz-adv-x="474" vert-adv-y="1400"
d="M445 520v-93l-261 -313h267v-114h-422v98l259 314h-252v108h409zM321 803l55 -111l-229 -109l-45 79z" />
    <glyph glyph-name="zcaron" unicode="&#x17e;" horiz-adv-x="474" vert-adv-y="1400"
d="M445 520v-93l-261 -313h267v-114h-422v98l259 314h-252v108h409zM439 697l-150 -104h-96l-150 104l64 82l134 -102l134 102z" />
    <glyph glyph-name="zdotaccent" unicode="&#x17c;" horiz-adv-x="474" vert-adv-y="1400"
d="M445 520v-93l-261 -313h267v-114h-422v98l259 314h-252v108h409zM302 740.5q25 -24.5 25 -60.5q0 -37 -24.5 -61t-61.5 -24q-36 0 -61 24.5t-25 60.5q0 37 24.5 61t61.5 24q36 0 61 -24.5z" />
    <glyph glyph-name="germandbls.ss01" horiz-adv-x="642" vert-adv-y="1400"
d="M464 725.5q50 -26.5 77 -71.5t27 -97q0 -116 -113 -157q75 -18 116 -67t41 -124q0 -66 -29 -116t-83 -77.5t-127 -27.5q-62 0 -106 19l28 101q36 -12 69 -12q54 0 84.5 28t30.5 85q0 63 -43 98t-123 35v99q65 0 95.5 27t30.5 83q0 45 -24.5 71.5t-68.5 26.5
q-60 0 -89 -45.5t-29 -147.5v-676h-130v537q0 93 -83 93l30 110q53 0 78 -38q-6 130 53.5 200t172.5 70q65 0 115 -26.5z" />
    <glyph glyph-name="f_f_h" horiz-adv-x="1227" vert-adv-y="1400"
d="M1116 478q46 -54 46 -145v-333h-130v325q0 47 -20 72.5t-57 25.5q-62 0 -117 -74v-349h-130v627q-49 13 -93 13q-46 0 -68.5 -20t-22.5 -58v-61h112l-17 -106h-95v-395h-130v395h-176v-395h-130v395h-74v106h74v40q0 93 55 146t147 53q82 0 160 -39q56 51 152 51
q64 0 120.5 -15.5t115.5 -42.5v-238q55 76 147 76q85 0 131 -54zM394 563q0 32 7 56q-45 16 -95 16q-42 0 -65 -22t-23 -63v-49h176v62z" />
    <glyph glyph-name="f_f_j" horiz-adv-x="889" vert-adv-y="1400"
d="M818 501v-547q0 -91 -53.5 -138.5t-136.5 -47.5q-65 0 -112 25l31 98q17 -7 31.5 -10t34.5 -3q36 0 55.5 22t19.5 65v430h-164v-395h-130v395h-176v-395h-130v395h-74v106h74v40q0 93 55 146t147 53q83 0 159 -39q56 51 147 51q52 0 94 -12.5t83 -37.5l-54 -94
q-31 16 -56 24t-55 8q-39 0 -61.5 -21t-22.5 -60v-58h294zM394 560q0 34 7 59q-45 16 -95 16q-42 0 -65 -22t-23 -63v-49h176v59z" />
    <glyph glyph-name="f_h" horiz-adv-x="921" vert-adv-y="1400"
d="M810 478q46 -54 46 -145v-333h-130v325q0 47 -20 72.5t-57 25.5q-62 0 -117 -74v-349h-130v627q-49 13 -93 13q-46 0 -68.5 -20t-22.5 -58v-61h112l-17 -106h-95v-395h-130v395h-74v106h74v62q0 88 56 138.5t152 50.5q64 0 120.5 -15.5t115.5 -42.5v-238q55 76 147 76
q85 0 131 -54z" />
    <glyph glyph-name="f_j" horiz-adv-x="583" vert-adv-y="1400"
d="M512 501v-547q0 -91 -53.5 -138.5t-136.5 -47.5q-65 0 -112 25l31 98q17 -7 31.5 -10t34.5 -3q36 0 55.5 22t19.5 65v430h-164v-395h-130v395h-74v106h74v59q0 90 55 141t147 51q52 0 94 -12.5t83 -37.5l-54 -94q-31 16 -56 24t-55 8q-39 0 -61.5 -21t-22.5 -60v-58h294z
" />
    <glyph glyph-name="a.sc" horiz-adv-x="573" vert-adv-y="1400"
d="M566 32l-119 -43l-54 139h-219l-54 -139l-113 43l218 514h127zM357 230l-71 203l-76 -203h147z" />
    <glyph glyph-name="aacute.sc" horiz-adv-x="573" vert-adv-y="1400"
d="M566 32l-119 -43l-54 139h-219l-54 -139l-113 43l218 514h127zM357 230l-71 203l-76 -203h147zM370 828l55 -111l-229 -109l-45 79z" />
    <glyph glyph-name="abreve.sc" horiz-adv-x="573" vert-adv-y="1400"
d="M566 32l-119 -43l-54 139h-219l-54 -139l-113 43l218 514h127zM357 230l-71 203l-76 -203h147zM482 737q-28 -54 -76.5 -85.5t-117.5 -31.5t-118 31.5t-77 85.5l77 51q22 -31 49.5 -47.5t68.5 -16.5q40 0 67.5 16t50.5 48z" />
    <glyph glyph-name="acircumflex.sc" horiz-adv-x="573" vert-adv-y="1400"
d="M566 32l-119 -43l-54 139h-219l-54 -139l-113 43l218 514h127zM357 230l-71 203l-76 -203h147zM486 677l-64 -82l-134 103l-134 -103l-64 82l150 104h96z" />
    <glyph glyph-name="adieresis.sc" horiz-adv-x="573" vert-adv-y="1400"
d="M566 32l-119 -43l-54 139h-219l-54 -139l-113 43l218 514h127zM357 230l-71 203l-76 -203h147zM239 754.5q22 -22.5 22 -56.5t-22 -56t-56 -22q-33 0 -56 22.5t-23 55.5q0 34 22.5 56.5t56.5 22.5t56 -22.5zM449 754.5q23 -22.5 23 -56.5t-22.5 -56t-56.5 -22t-56 22
t-22 56t22 56.5t56 22.5q33 0 56 -22.5z" />
    <glyph glyph-name="agrave.sc" horiz-adv-x="573" vert-adv-y="1400"
d="M566 32l-119 -43l-54 139h-219l-54 -139l-113 43l218 514h127zM357 230l-71 203l-76 -203h147zM381 608l-230 109l55 111l219 -141z" />
    <glyph glyph-name="amacron.sc" horiz-adv-x="573" vert-adv-y="1400"
d="M566 32l-119 -43l-54 139h-219l-54 -139l-113 43l218 514h127zM357 230l-71 203l-76 -203h147zM448 635h-320v101h320v-101z" />
    <glyph glyph-name="aogonek.sc" horiz-adv-x="573" vert-adv-y="1400"
d="M584 -193q-43 -19 -100 -19q-63 0 -103.5 33t-40.5 91q0 80 89 124l-36 92h-219l-54 -139l-113 43l218 514h127l214 -514q-57 -21 -83.5 -45.5t-26.5 -56.5q0 -23 14.5 -36t41.5 -13q25 0 50 9zM357 230l-71 203l-76 -203h147z" />
    <glyph glyph-name="aring.sc" horiz-adv-x="573" vert-adv-y="1400"
d="M566 32l-119 -43l-54 139h-219l-54 -139l-113 43l218 514h127zM357 230l-71 203l-76 -203h147zM391.5 801q41.5 -39 41.5 -99t-41.5 -99t-103.5 -39q-64 0 -105 38.5t-41 99.5q0 60 41 99t105 39q62 0 103.5 -39zM256.5 744q-11.5 -15 -11.5 -42q0 -26 12 -41.5t31 -15.5
t30.5 15t11.5 42t-11 42t-31 15t-31.5 -15z" />
    <glyph glyph-name="atilde.sc" horiz-adv-x="573" vert-adv-y="1400"
d="M566 32l-119 -43l-54 139h-219l-54 -139l-113 43l218 514h127zM357 230l-71 203l-76 -203h147zM255.5 760.5q17.5 -6.5 39.5 -19.5q16 -9 27.5 -14t23.5 -5q21 0 38.5 11.5t36.5 32.5l61 -69q-34 -42 -62 -62t-61 -20q-21 0 -37 6.5t-39 19.5q-17 10 -28.5 15t-24.5 5
q-21 0 -39 -12t-37 -33l-61 69q34 42 62 62t61 20q22 0 39.5 -6.5z" />
    <glyph glyph-name="ae.sc" horiz-adv-x="747" vert-adv-y="1400"
d="M708 440h-217v-109h183v-101h-183v-124h217v-106h-347v128h-173l-86 -139l-105 68l325 489h386v-106zM248 230h113v192z" />
    <glyph glyph-name="aeacute.sc" horiz-adv-x="747" vert-adv-y="1400"
d="M708 440h-217v-109h183v-101h-183v-124h217v-106h-347v128h-173l-86 -139l-105 68l325 489h386v-106zM248 230h113v192zM583 828l55 -111l-229 -109l-45 79z" />
    <glyph glyph-name="b.sc" horiz-adv-x="546" vert-adv-y="1400"
d="M379 531.5q54 -20.5 82.5 -54.5t28.5 -76t-24.5 -69t-74.5 -42q60 -15 89.5 -45.5t29.5 -83.5q0 -50 -30.5 -87.5t-88 -58.5t-133.5 -21q-99 0 -178 11v536q112 11 171 11q74 0 128 -20.5zM210 449v-121h61q41 0 65.5 16.5t24.5 44.5q0 31 -24.5 47t-71.5 16
q-28 0 -55 -3zM210 235v-137q16 -2 62 -2q48 0 76 17.5t28 52.5q0 34 -26.5 51.5t-74.5 17.5h-65z" />
    <glyph glyph-name="c.sc" horiz-adv-x="505" vert-adv-y="1400"
d="M214.5 144q40.5 -46 111.5 -46q34 0 60.5 6.5t56.5 19.5l36 -92q-73 -41 -165 -41q-81 0 -143 33t-96.5 96t-34.5 151q0 84 35 148.5t98.5 100t145.5 35.5q46 0 82 -9t71 -25l-38 -95q-27 11 -52 17t-58 6q-68 0 -109 -45t-41 -130q0 -84 40.5 -130z" />
    <glyph glyph-name="cacute.sc" horiz-adv-x="504" vert-adv-y="1400"
d="M214.5 144q40.5 -46 111.5 -46q34 0 60.5 6.5t56.5 19.5l36 -92q-73 -41 -165 -41q-81 0 -143 33t-96.5 96t-34.5 151q0 84 35 148.5t98.5 100t145.5 35.5q46 0 82 -9t71 -25l-38 -95q-27 11 -52 17t-58 6q-68 0 -109 -45t-41 -130q0 -84 40.5 -130zM385 828l55 -111
l-229 -109l-45 79z" />
    <glyph glyph-name="ccaron.sc" horiz-adv-x="504" vert-adv-y="1400"
d="M214.5 144q40.5 -46 111.5 -46q34 0 60.5 6.5t56.5 19.5l36 -92q-73 -41 -165 -41q-81 0 -143 33t-96.5 96t-34.5 151q0 84 35 148.5t98.5 100t145.5 35.5q46 0 82 -9t71 -25l-38 -95q-27 11 -52 17t-58 6q-68 0 -109 -45t-41 -130q0 -84 40.5 -130zM501 722l-150 -104
h-96l-150 104l64 82l134 -102l134 102z" />
    <glyph glyph-name="ccedilla.sc" horiz-adv-x="505" vert-adv-y="1400"
d="M414 -76.5q28 -23.5 28 -66.5q0 -52 -42 -83t-113 -31q-66 0 -114 22l32 81q37 -13 70 -13q48 0 48 29q0 38 -103 38l35 96q-99 17 -157 88.5t-58 186.5q0 84 35 148.5t98.5 100t145.5 35.5q46 0 82 -9t71 -25l-38 -95q-27 11 -52 17t-58 6q-68 0 -109 -45t-41 -130
q0 -84 40.5 -130t111.5 -46q34 0 60.5 6.5t56.5 19.5l36 -92q-58 -32 -130 -39l-14 -42q51 -4 79 -27.5z" />
    <glyph glyph-name="ccircumflex.sc" horiz-adv-x="504" vert-adv-y="1400"
d="M214.5 144q40.5 -46 111.5 -46q34 0 60.5 6.5t56.5 19.5l36 -92q-73 -41 -165 -41q-81 0 -143 33t-96.5 96t-34.5 151q0 84 35 148.5t98.5 100t145.5 35.5q46 0 82 -9t71 -25l-38 -95q-27 11 -52 17t-58 6q-68 0 -109 -45t-41 -130q0 -84 40.5 -130zM501 677l-64 -82
l-134 103l-134 -103l-64 82l150 104h96z" />
    <glyph glyph-name="cdotaccent.sc" horiz-adv-x="504" vert-adv-y="1400"
d="M214.5 144q40.5 -46 111.5 -46q34 0 60.5 6.5t56.5 19.5l36 -92q-73 -41 -165 -41q-81 0 -143 33t-96.5 96t-34.5 151q0 84 35 148.5t98.5 100t145.5 35.5q46 0 82 -9t71 -25l-38 -95q-27 11 -52 17t-58 6q-68 0 -109 -45t-41 -130q0 -84 40.5 -130zM365 765.5
q25 -24.5 25 -60.5q0 -37 -24.5 -61t-61.5 -24q-36 0 -61 24.5t-25 60.5q0 37 24.5 61t61.5 24q36 0 61 -24.5z" />
    <glyph glyph-name="d.sc" horiz-adv-x="588" vert-adv-y="1400"
d="M249 552q100 0 167 -37t99 -99.5t32 -141.5q0 -130 -78 -205t-231 -75q-80 0 -158 11v536q88 11 169 11zM210 445v-343q26 -2 47 -2q72 0 114 42.5t42 131.5q0 84 -38 129t-117 45q-27 0 -48 -3z" />
    <glyph glyph-name="eth.sc" horiz-adv-x="598" vert-adv-y="1400"
d="M426 515q67 -37 99 -99.5t32 -141.5q0 -130 -78 -205t-231 -75q-80 0 -158 11v222h-67v94h67v220q88 11 169 11q100 0 167 -37zM381 142.5q42 42.5 42 131.5q0 84 -38 129t-117 45q-27 0 -48 -3v-124h100v-94h-100v-125q26 -2 47 -2q72 0 114 42.5z" />
    <glyph glyph-name="dcaron.sc" horiz-adv-x="588" vert-adv-y="1400"
d="M249 552q100 0 167 -37t99 -99.5t32 -141.5q0 -130 -78 -205t-231 -75q-80 0 -158 11v536q88 11 169 11zM210 445v-343q26 -2 47 -2q72 0 114 42.5t42 131.5q0 84 -38 129t-117 45q-27 0 -48 -3zM481 722l-150 -104h-96l-150 104l64 82l134 -102l134 102z" />
    <glyph glyph-name="dcroat.sc" horiz-adv-x="598" vert-adv-y="1400"
d="M426 515q67 -37 99 -99.5t32 -141.5q0 -130 -78 -205t-231 -75q-80 0 -158 11v222h-67v94h67v220q88 11 169 11q100 0 167 -37zM381 142.5q42 42.5 42 131.5q0 84 -38 129t-117 45q-27 0 -48 -3v-124h100v-94h-100v-125q26 -2 47 -2q72 0 114 42.5z" />
    <glyph glyph-name="e.sc" horiz-adv-x="495" vert-adv-y="1400"
d="M457 546v-106h-247v-110h211v-98h-211v-126h247v-106h-377v546h377z" />
    <glyph glyph-name="eacute.sc" horiz-adv-x="495" vert-adv-y="1400"
d="M457 546v-106h-247v-110h211v-98h-211v-126h247v-106h-377v546h377zM357 828l55 -111l-229 -109l-45 79z" />
    <glyph glyph-name="ebreve.sc" horiz-adv-x="495" vert-adv-y="1400"
d="M457 546v-106h-247v-110h211v-98h-211v-126h247v-106h-377v546h377zM469 737q-28 -54 -76.5 -85.5t-117.5 -31.5t-118 31.5t-77 85.5l77 51q22 -31 49.5 -47.5t68.5 -16.5q40 0 67.5 16t50.5 48z" />
    <glyph glyph-name="ecaron.sc" horiz-adv-x="495" vert-adv-y="1400"
d="M457 546v-106h-247v-110h211v-98h-211v-126h247v-106h-377v546h377zM473 722l-150 -104h-96l-150 104l64 82l134 -102l134 102z" />
    <glyph glyph-name="ecircumflex.sc" horiz-adv-x="495" vert-adv-y="1400"
d="M457 546v-106h-247v-110h211v-98h-211v-126h247v-106h-377v546h377zM473 677l-64 -82l-134 103l-134 -103l-64 82l150 104h96z" />
    <glyph glyph-name="edieresis.sc" horiz-adv-x="495" vert-adv-y="1400"
d="M457 546v-106h-247v-110h211v-98h-211v-126h247v-106h-377v546h377zM226 754.5q22 -22.5 22 -56.5t-22 -56t-56 -22q-33 0 -56 22.5t-23 55.5q0 34 22.5 56.5t56.5 22.5t56 -22.5zM436 754.5q23 -22.5 23 -56.5t-22.5 -56t-56.5 -22t-56 22t-22 56t22 56.5t56 22.5
q33 0 56 -22.5z" />
    <glyph glyph-name="edotaccent.sc" horiz-adv-x="495" vert-adv-y="1400"
d="M457 546v-106h-247v-110h211v-98h-211v-126h247v-106h-377v546h377zM336 765.5q25 -24.5 25 -60.5q0 -37 -24.5 -61t-61.5 -24q-36 0 -61 24.5t-25 60.5q0 37 24.5 61t61.5 24q36 0 61 -24.5z" />
    <glyph glyph-name="egrave.sc" horiz-adv-x="495" vert-adv-y="1400"
d="M457 546v-106h-247v-110h211v-98h-211v-126h247v-106h-377v546h377zM368 608l-230 109l55 111l219 -141z" />
    <glyph glyph-name="emacron.sc" horiz-adv-x="495" vert-adv-y="1400"
d="M457 546v-106h-247v-110h211v-98h-211v-126h247v-106h-377v546h377zM435 635h-320v101h320v-101z" />
    <glyph glyph-name="eogonek.sc" horiz-adv-x="495" vert-adv-y="1400"
d="M475 -225q-43 -19 -100 -19q-63 0 -103.5 33t-40.5 91q0 76 81 120h-232v546h377v-106h-247v-110h211v-98h-211v-126h247v-106q-57 -21 -83.5 -45.5t-26.5 -56.5q0 -23 14.5 -36t41.5 -13q24 0 50 9z" />
    <glyph glyph-name="f.sc" horiz-adv-x="473" vert-adv-y="1400"
d="M452 546v-106h-242v-120h202v-100h-202v-220h-130v546h372z" />
    <glyph glyph-name="f_f.sc" horiz-adv-x="946" vert-adv-y="1400"
d="M452 546v-106h-242v-120h202v-100h-202v-220h-130v546h372zM925 546v-106h-242v-120h202v-100h-202v-220h-130v546h372z" />
    <glyph glyph-name="f_f_h.sc" horiz-adv-x="1569" vert-adv-y="1400"
d="M452 546v-106h-242v-120h202v-100h-202v-220h-130v546h372zM925 546v-106h-242v-120h202v-100h-202v-220h-130v546h372zM1156 229v-229h-130v546h130v-212h202v212h131v-546h-131v229h-202z" />
    <glyph glyph-name="f_f_i.sc" horiz-adv-x="1237" vert-adv-y="1400"
d="M452 546v-106h-242v-120h202v-100h-202v-220h-130v546h372zM925 546v-106h-242v-120h202v-100h-202v-220h-130v546h372zM1156 0h-130v546h130v-546z" />
    <glyph glyph-name="f_f_j.sc" horiz-adv-x="1292" vert-adv-y="1400"
d="M452 546v-106h-242v-120h202v-100h-202v-220h-130v546h372zM925 546v-106h-242v-120h202v-100h-202v-220h-130v546h372zM1222 173q0 -90 -53 -136t-133 -46q-88 0 -146 49l56 80q21 -12 37.5 -18t38.5 -6q32 0 50.5 19t18.5 57v374h131v-373z" />
    <glyph glyph-name="f_f_l.sc" horiz-adv-x="1398" vert-adv-y="1400"
d="M452 546v-106h-242v-120h202v-100h-202v-220h-130v546h372zM925 546v-106h-242v-120h202v-100h-202v-220h-130v546h372zM1026 0v546h130v-434h237v-112h-367z" />
    <glyph glyph-name="f_h.sc" horiz-adv-x="1096" vert-adv-y="1400"
d="M452 546v-106h-242v-120h202v-100h-202v-220h-130v546h372zM683 229v-229h-130v546h130v-212h202v212h131v-546h-131v229h-202z" />
    <glyph glyph-name="f_j.sc" horiz-adv-x="819" vert-adv-y="1400"
d="M452 546v-106h-242v-120h202v-100h-202v-220h-130v546h372zM749 173q0 -90 -53 -136t-133 -46q-88 0 -146 49l56 80q21 -12 37.5 -18t38.5 -6q32 0 50.5 19t18.5 57v374h131v-373z" />
    <glyph glyph-name="fi.sc" horiz-adv-x="764" vert-adv-y="1400"
d="M452 546v-106h-242v-120h202v-100h-202v-220h-130v546h372zM683 0h-130v546h130v-546z" />
    <glyph glyph-name="fl.sc" horiz-adv-x="925" vert-adv-y="1400"
d="M452 546v-106h-242v-120h202v-100h-202v-220h-130v546h372zM553 0v546h130v-434h237v-112h-367z" />
    <glyph glyph-name="g.sc" horiz-adv-x="580" vert-adv-y="1400"
d="M504 510l-44 -93q-64 32 -135 32t-111 -48.5t-40 -136.5q0 -83 34.5 -125t95.5 -42q58 0 101 33v90h-96v97h224v-317h-118v45q-27 -25 -60 -39.5t-79 -14.5q-65 0 -119 32t-85.5 93.5t-31.5 145.5q0 86 33 152.5t96 103.5t149 37q99 0 186 -45z" />
    <glyph glyph-name="gbreve.sc" horiz-adv-x="580" vert-adv-y="1400"
d="M504 510l-44 -93q-64 32 -135 32t-111 -48.5t-40 -136.5q0 -83 34.5 -125t95.5 -42q58 0 101 33v90h-96v97h224v-317h-118v45q-27 -25 -60 -39.5t-79 -14.5q-65 0 -119 32t-85.5 93.5t-31.5 145.5q0 86 33 152.5t96 103.5t149 37q99 0 186 -45zM505 737
q-28 -54 -76.5 -85.5t-117.5 -31.5t-118 31.5t-77 85.5l77 51q22 -31 49.5 -47.5t68.5 -16.5q40 0 67.5 16t50.5 48z" />
    <glyph glyph-name="gcircumflex.sc" horiz-adv-x="580" vert-adv-y="1400"
d="M504 510l-44 -93q-64 32 -135 32t-111 -48.5t-40 -136.5q0 -83 34.5 -125t95.5 -42q58 0 101 33v90h-96v97h224v-317h-118v45q-27 -25 -60 -39.5t-79 -14.5q-65 0 -119 32t-85.5 93.5t-31.5 145.5q0 86 33 152.5t96 103.5t149 37q99 0 186 -45zM509 677l-64 -82l-134 103
l-134 -103l-64 82l150 104h96z" />
    <glyph glyph-name="gcommaaccent.sc" horiz-adv-x="580" vert-adv-y="1400"
d="M504 510l-44 -93q-64 32 -135 32t-111 -48.5t-40 -136.5q0 -83 34.5 -125t95.5 -42q58 0 101 33v90h-96v97h224v-317h-118v45q-27 -25 -60 -39.5t-79 -14.5q-65 0 -119 32t-85.5 93.5t-31.5 145.5q0 86 33 152.5t96 103.5t149 37q99 0 186 -45zM361.5 -94
q24.5 -24 24.5 -68q0 -53 -28.5 -97.5t-83.5 -71.5l-33 49q25 18 37 35t18 43q-35 0 -55 17.5t-20 48.5q0 30 22 49t56 19q38 0 62.5 -24z" />
    <glyph glyph-name="gdotaccent.sc" horiz-adv-x="580" vert-adv-y="1400"
d="M504 510l-44 -93q-64 32 -135 32t-111 -48.5t-40 -136.5q0 -83 34.5 -125t95.5 -42q58 0 101 33v90h-96v97h224v-317h-118v45q-27 -25 -60 -39.5t-79 -14.5q-65 0 -119 32t-85.5 93.5t-31.5 145.5q0 86 33 152.5t96 103.5t149 37q99 0 186 -45zM372 765.5
q25 -24.5 25 -60.5q0 -37 -24.5 -61t-61.5 -24q-36 0 -61 24.5t-25 60.5q0 37 24.5 61t61.5 24q36 0 61 -24.5z" />
    <glyph glyph-name="h.sc" horiz-adv-x="623" vert-adv-y="1400"
d="M210 229v-229h-130v546h130v-212h202v212h131v-546h-131v229h-202z" />
    <glyph glyph-name="hbar.sc" horiz-adv-x="627" vert-adv-y="1400"
d="M596 414h-50v-414h-131v229h-202v-229h-130v414h-51v83h51v49h130v-49h202v49h131v-49h50v-83zM415 414h-202v-80h202v80z" />
    <glyph glyph-name="hcircumflex.sc" horiz-adv-x="623" vert-adv-y="1400"
d="M210 229v-229h-130v546h130v-212h202v212h131v-546h-131v229h-202zM510 677l-64 -82l-134 103l-134 -103l-64 82l150 104h96z" />
    <glyph glyph-name="i.sc" horiz-adv-x="291" vert-adv-y="1400"
d="M210 0h-130v546h130v-546z" />
    <glyph glyph-name="iacute.sc" horiz-adv-x="291" vert-adv-y="1400"
d="M210 0h-130v546h130v-546zM227 828l55 -111l-229 -109l-45 79z" />
    <glyph glyph-name="ibreve.sc" horiz-adv-x="291" vert-adv-y="1400"
d="M210 0h-130v546h130v-546zM339 737q-28 -54 -76.5 -85.5t-117.5 -31.5t-118 31.5t-77 85.5l77 51q22 -31 49.5 -47.5t68.5 -16.5q40 0 67.5 16t50.5 48z" />
    <glyph glyph-name="icircumflex.sc" horiz-adv-x="291" vert-adv-y="1400"
d="M210 0h-130v546h130v-546zM343 677l-64 -82l-134 103l-134 -103l-64 82l150 104h96z" />
    <glyph glyph-name="idieresis.sc" horiz-adv-x="291" vert-adv-y="1400"
d="M210 0h-130v546h130v-546zM96 754.5q22 -22.5 22 -56.5t-22 -56t-56 -22q-33 0 -56 22.5t-23 55.5q0 34 22.5 56.5t56.5 22.5t56 -22.5zM306 754.5q23 -22.5 23 -56.5t-22.5 -56t-56.5 -22t-56 22t-22 56t22 56.5t56 22.5q33 0 56 -22.5z" />
    <glyph glyph-name="igrave.sc" horiz-adv-x="291" vert-adv-y="1400"
d="M210 0h-130v546h130v-546zM238 608l-230 109l55 111l219 -141z" />
    <glyph glyph-name="ij.sc" horiz-adv-x="687" vert-adv-y="1400"
d="M210 0h-130v546h130v-546zM617 173q0 -90 -53 -136t-133 -46q-88 0 -146 49l56 80q21 -12 37.5 -18t38.5 -6q32 0 50.5 19t18.5 57v374h131v-373z" />
    <glyph glyph-name="imacron.sc" horiz-adv-x="291" vert-adv-y="1400"
d="M210 0h-130v546h130v-546zM305 635h-320v101h320v-101z" />
    <glyph glyph-name="iogonek.sc" horiz-adv-x="291" vert-adv-y="1400"
d="M228 -225q-43 -19 -100 -19q-63 0 -103.5 33t-40.5 91q0 83 96 127v539h130v-546q-57 -21 -83.5 -45.5t-26.5 -56.5q0 -23 14.5 -36t41.5 -13q25 0 50 9z" />
    <glyph glyph-name="itilde.sc" horiz-adv-x="291" vert-adv-y="1400"
d="M210 0h-130v546h130v-546zM112.5 760.5q17.5 -6.5 39.5 -19.5q16 -9 27.5 -14t23.5 -5q21 0 38.5 11.5t36.5 32.5l61 -69q-34 -42 -62 -62t-61 -20q-21 0 -37 6.5t-39 19.5q-17 10 -28.5 15t-24.5 5q-21 0 -39 -12t-37 -33l-61 69q34 42 62 62t61 20q22 0 39.5 -6.5z" />
    <glyph glyph-name="j.sc" horiz-adv-x="396" vert-adv-y="1400"
d="M326 173q0 -90 -53 -136t-133 -46q-88 0 -146 49l56 80q21 -12 37.5 -18t38.5 -6q32 0 50.5 19t18.5 57v374h131v-373z" />
    <glyph glyph-name="jcircumflex.sc" horiz-adv-x="396" vert-adv-y="1400"
d="M326 173q0 -90 -53 -136t-133 -46q-88 0 -146 49l56 80q21 -12 37.5 -18t38.5 -6q32 0 50.5 19t18.5 57v374h131v-373zM459 677l-64 -82l-134 103l-134 -103l-64 82l150 104h96z" />
    <glyph glyph-name="k.sc" horiz-adv-x="531" vert-adv-y="1400"
d="M516 479l-200 -196l230 -209l-91 -90l-245 242v-226h-130v546h130v-224l218 233z" />
    <glyph glyph-name="kcommaaccent.sc" horiz-adv-x="531" vert-adv-y="1400"
d="M516 479l-200 -196l230 -209l-91 -90l-245 242v-226h-130v546h130v-224l218 233zM347.5 -94q24.5 -24 24.5 -68q0 -53 -28.5 -97.5t-83.5 -71.5l-33 49q25 18 37 35t18 43q-35 0 -55 17.5t-20 48.5q0 30 22 49t56 19q38 0 62.5 -24z" />
    <glyph glyph-name="kgreenlandic.sc" horiz-adv-x="531" vert-adv-y="1400"
d="M516 479l-200 -196l230 -209l-91 -90l-245 242v-226h-130v546h130v-224l218 233z" />
    <glyph glyph-name="l.sc" horiz-adv-x="452" vert-adv-y="1400"
d="M80 0v546h130v-434h237v-112h-367z" />
    <glyph glyph-name="lacute.sc" horiz-adv-x="452" vert-adv-y="1400"
d="M80 0v546h130v-434h237v-112h-367zM228 828l55 -111l-229 -109l-45 79z" />
    <glyph glyph-name="lcaron.sc" horiz-adv-x="452" vert-adv-y="1400"
d="M80 0v546h130v-434h237v-112h-367zM353 571l91 -73l-140 -145l-67 45z" />
    <glyph glyph-name="lcommaaccent.sc" horiz-adv-x="452" vert-adv-y="1400"
d="M80 0v546h130v-434h237v-112h-367zM324.5 -94q24.5 -24 24.5 -68q0 -53 -28.5 -97.5t-83.5 -71.5l-33 49q25 18 37 35t18 43q-35 0 -55 17.5t-20 48.5q0 30 22 49t56 19q38 0 62.5 -24z" />
    <glyph glyph-name="ldot.sc" horiz-adv-x="452" vert-adv-y="1400"
d="M80 0v546h130v-434h237v-112h-367zM434 353.5q25 -24.5 25 -60.5q0 -37 -24.5 -61t-61.5 -24q-36 0 -61 24.5t-25 60.5q0 37 24.5 61t61.5 24q36 0 61 -24.5z" />
    <glyph glyph-name="lslash.sc" horiz-adv-x="460" vert-adv-y="1400"
d="M455 112v-112h-367v200l-54 -25l-39 80l93 44v247h130v-187l127 60l38 -80l-165 -78v-149h237z" />
    <glyph glyph-name="m.sc" horiz-adv-x="737" vert-adv-y="1400"
d="M657 0h-131v381l-108 -269h-106l-107 269v-381h-125v546h170l116 -306l120 306h171v-546z" />
    <glyph glyph-name="n.sc" horiz-adv-x="623" vert-adv-y="1400"
d="M543 0h-162l-176 366v-366h-125v546h162l176 -368v368h125v-546z" />
    <glyph glyph-name="nacute.sc" horiz-adv-x="623" vert-adv-y="1400"
d="M543 0h-162l-176 366v-366h-125v546h162l176 -368v368h125v-546zM391 828l55 -111l-229 -109l-45 79z" />
    <glyph glyph-name="ncaron.sc" horiz-adv-x="623" vert-adv-y="1400"
d="M543 0h-162l-176 366v-366h-125v546h162l176 -368v368h125v-546zM507 722l-150 -104h-96l-150 104l64 82l134 -102l134 102z" />
    <glyph glyph-name="ncommaaccent.sc" horiz-adv-x="623" vert-adv-y="1400"
d="M543 0h-162l-176 366v-366h-125v546h162l176 -368v368h125v-546zM365.5 -94q24.5 -24 24.5 -68q0 -53 -28.5 -97.5t-83.5 -71.5l-33 49q25 18 37 35t18 43q-35 0 -55 17.5t-20 48.5q0 30 22 49t56 19q38 0 62.5 -24z" />
    <glyph glyph-name="eng.sc" horiz-adv-x="623" vert-adv-y="1400"
d="M543 546v-592q0 -91 -53.5 -138.5t-136.5 -47.5q-65 0 -112 25l33 95q30 -10 64 -10q36 0 55.5 22t19.5 65v35h-32l-176 366v-366h-125v546h162l176 -368v368h125z" />
    <glyph glyph-name="ntilde.sc" horiz-adv-x="623" vert-adv-y="1400"
d="M543 0h-162l-176 366v-366h-125v546h162l176 -368v368h125v-546zM276.5 760.5q17.5 -6.5 39.5 -19.5q16 -9 27.5 -14t23.5 -5q21 0 38.5 11.5t36.5 32.5l61 -69q-34 -42 -62 -62t-61 -20q-21 0 -37 6.5t-39 19.5q-17 10 -28.5 15t-24.5 5q-21 0 -39 -12t-37 -33l-61 69
q34 42 62 62t61 20q22 0 39.5 -6.5z" />
    <glyph glyph-name="o.sc" horiz-adv-x="638" vert-adv-y="1400"
d="M468.5 518q63.5 -37 96.5 -101t33 -145q0 -82 -33 -145.5t-96 -99.5t-150 -36q-86 0 -149 37t-96.5 101t-33.5 145q0 82 33 145.5t96 99.5t150 36q86 0 149.5 -37zM211.5 402q-37.5 -48 -37.5 -128q0 -76 38 -127t107 -51q70 0 108 48t38 128q0 76 -38.5 127t-107.5 51
q-70 0 -107.5 -48z" />
    <glyph glyph-name="oacute.sc" horiz-adv-x="638" vert-adv-y="1400"
d="M468.5 518q63.5 -37 96.5 -101t33 -145q0 -82 -33 -145.5t-96 -99.5t-150 -36q-86 0 -149 37t-96.5 101t-33.5 145q0 82 33 145.5t96 99.5t150 36q86 0 149.5 -37zM211.5 402q-37.5 -48 -37.5 -128q0 -76 38 -127t107 -51q70 0 108 48t38 128q0 76 -38.5 127t-107.5 51
q-70 0 -107.5 -48zM401 828l55 -111l-229 -109l-45 79z" />
    <glyph glyph-name="obreve.sc" horiz-adv-x="638" vert-adv-y="1400"
d="M468.5 518q63.5 -37 96.5 -101t33 -145q0 -82 -33 -145.5t-96 -99.5t-150 -36q-86 0 -149 37t-96.5 101t-33.5 145q0 82 33 145.5t96 99.5t150 36q86 0 149.5 -37zM211.5 402q-37.5 -48 -37.5 -128q0 -76 38 -127t107 -51q70 0 108 48t38 128q0 76 -38.5 127t-107.5 51
q-70 0 -107.5 -48zM513 737q-28 -54 -76.5 -85.5t-117.5 -31.5t-118 31.5t-77 85.5l77 51q22 -31 49.5 -47.5t68.5 -16.5q40 0 67.5 16t50.5 48z" />
    <glyph glyph-name="ocircumflex.sc" horiz-adv-x="638" vert-adv-y="1400"
d="M468.5 518q63.5 -37 96.5 -101t33 -145q0 -82 -33 -145.5t-96 -99.5t-150 -36q-86 0 -149 37t-96.5 101t-33.5 145q0 82 33 145.5t96 99.5t150 36q86 0 149.5 -37zM211.5 402q-37.5 -48 -37.5 -128q0 -76 38 -127t107 -51q70 0 108 48t38 128q0 76 -38.5 127t-107.5 51
q-70 0 -107.5 -48zM517 677l-64 -82l-134 103l-134 -103l-64 82l150 104h96z" />
    <glyph glyph-name="odieresis.sc" horiz-adv-x="638" vert-adv-y="1400"
d="M468.5 518q63.5 -37 96.5 -101t33 -145q0 -82 -33 -145.5t-96 -99.5t-150 -36q-86 0 -149 37t-96.5 101t-33.5 145q0 82 33 145.5t96 99.5t150 36q86 0 149.5 -37zM211.5 402q-37.5 -48 -37.5 -128q0 -76 38 -127t107 -51q70 0 108 48t38 128q0 76 -38.5 127t-107.5 51
q-70 0 -107.5 -48zM270 754.5q22 -22.5 22 -56.5t-22 -56t-56 -22q-33 0 -56 22.5t-23 55.5q0 34 22.5 56.5t56.5 22.5t56 -22.5zM480 754.5q23 -22.5 23 -56.5t-22.5 -56t-56.5 -22t-56 22t-22 56t22 56.5t56 22.5q33 0 56 -22.5z" />
    <glyph glyph-name="ograve.sc" horiz-adv-x="638" vert-adv-y="1400"
d="M468.5 518q63.5 -37 96.5 -101t33 -145q0 -82 -33 -145.5t-96 -99.5t-150 -36q-86 0 -149 37t-96.5 101t-33.5 145q0 82 33 145.5t96 99.5t150 36q86 0 149.5 -37zM211.5 402q-37.5 -48 -37.5 -128q0 -76 38 -127t107 -51q70 0 108 48t38 128q0 76 -38.5 127t-107.5 51
q-70 0 -107.5 -48zM412 608l-230 109l55 111l219 -141z" />
    <glyph glyph-name="ohungarumlaut.sc" horiz-adv-x="638" vert-adv-y="1400"
d="M468.5 518q63.5 -37 96.5 -101t33 -145q0 -82 -33 -145.5t-96 -99.5t-150 -36q-86 0 -149 37t-96.5 101t-33.5 145q0 82 33 145.5t96 99.5t150 36q86 0 149.5 -37zM211.5 402q-37.5 -48 -37.5 -128q0 -76 38 -127t107 -51q70 0 108 48t38 128q0 76 -38.5 127t-107.5 51
q-70 0 -107.5 -48zM374 799l-112 -185l-76 39l86 197zM542 783l-111 -185l-76 39l86 197z" />
    <glyph glyph-name="omacron.sc" horiz-adv-x="638" vert-adv-y="1400"
d="M468.5 518q63.5 -37 96.5 -101t33 -145q0 -82 -33 -145.5t-96 -99.5t-150 -36q-86 0 -149 37t-96.5 101t-33.5 145q0 82 33 145.5t96 99.5t150 36q86 0 149.5 -37zM211.5 402q-37.5 -48 -37.5 -128q0 -76 38 -127t107 -51q70 0 108 48t38 128q0 76 -38.5 127t-107.5 51
q-70 0 -107.5 -48zM479 635h-320v101h320v-101z" />
    <glyph glyph-name="oslash.sc" horiz-adv-x="640" vert-adv-y="1400"
d="M572 403.5q28 -59.5 28 -131.5q0 -82 -33.5 -145.5t-96.5 -99.5t-150 -36q-38 0 -80 10l-40 -94l-100 48l52 87q-53 38 -82.5 98.5t-29.5 133.5q0 82 33.5 145.5t96.5 99.5t150 36q47 0 86 -12l37 90l101 -49l-51 -83q51 -38 79 -97.5zM210.5 402.5
q-37.5 -47.5 -37.5 -128.5q0 -94 37 -136l157 307q-23 5 -47 5q-72 0 -109.5 -47.5zM429.5 144q37.5 48 37.5 128q0 88 -33 132l-155 -304q16 -4 41 -4q72 0 109.5 48z" />
    <glyph glyph-name="oslashacute.sc" horiz-adv-x="640" vert-adv-y="1400"
d="M572 403.5q28 -59.5 28 -131.5q0 -82 -33.5 -145.5t-96.5 -99.5t-150 -36q-38 0 -80 10l-40 -94l-100 48l52 87q-53 38 -82.5 98.5t-29.5 133.5q0 82 33.5 145.5t96.5 99.5t150 36q47 0 86 -12l37 90l101 -49l-51 -83q51 -38 79 -97.5zM210.5 402.5
q-37.5 -47.5 -37.5 -128.5q0 -94 37 -136l157 307q-23 5 -47 5q-72 0 -109.5 -47.5zM429.5 144q37.5 48 37.5 128q0 88 -33 132l-155 -304q16 -4 41 -4q72 0 109.5 48zM401 828l55 -111l-229 -109l-45 79z" />
    <glyph glyph-name="otilde.sc" horiz-adv-x="638" vert-adv-y="1400"
d="M468.5 518q63.5 -37 96.5 -101t33 -145q0 -82 -33 -145.5t-96 -99.5t-150 -36q-86 0 -149 37t-96.5 101t-33.5 145q0 82 33 145.5t96 99.5t150 36q86 0 149.5 -37zM211.5 402q-37.5 -48 -37.5 -128q0 -76 38 -127t107 -51q70 0 108 48t38 128q0 76 -38.5 127t-107.5 51
q-70 0 -107.5 -48zM286.5 760.5q17.5 -6.5 39.5 -19.5q16 -9 27.5 -14t23.5 -5q21 0 38.5 11.5t36.5 32.5l61 -69q-34 -42 -62 -62t-61 -20q-21 0 -37 6.5t-39 19.5q-17 10 -28.5 15t-24.5 5q-21 0 -39 -12t-37 -33l-61 69q34 42 62 62t61 20q22 0 39.5 -6.5z" />
    <glyph glyph-name="oe.sc" horiz-adv-x="744" vert-adv-y="1400"
d="M409 546h297v-106h-219v-110h184v-98h-184v-126h219v-106h-306q-47 -9 -81 -9q-85 0 -148.5 37t-97 101.5t-33.5 144.5q0 82 33.5 145.5t97 99.5t149.5 36q37 0 89 -9zM211.5 402q-37.5 -48 -37.5 -128q0 -77 38 -127.5t108 -50.5q24 0 37 4v347q-16 3 -37 3
q-71 0 -108.5 -48z" />
    <glyph glyph-name="p.sc" horiz-adv-x="513" vert-adv-y="1400"
d="M250 552q120 0 184.5 -51t64.5 -133q0 -91 -68 -141.5t-180 -50.5q-15 0 -41 2v-178h-130v542q88 10 170 10zM339 300.5q28 22.5 28 64.5q0 41 -28 63t-79 22q-20 0 -50 -2v-169q14 -1 47 -1q54 0 82 22.5z" />
    <glyph glyph-name="thorn.sc" horiz-adv-x="513" vert-adv-y="1400"
d="M384.5 441q53.5 -23 84 -65t30.5 -97q0 -93 -68 -142t-174 -49q-24 0 -47 3v-91h-130v546h130v-85q45 3 54 3q67 0 120.5 -23zM338 211q29 23 29 66q0 42 -28.5 64.5t-78.5 22.5q-26 0 -50 -3v-171q13 -2 46 -2q53 0 82 23z" />
    <glyph glyph-name="q.sc" horiz-adv-x="645" vert-adv-y="1400"
d="M555 -19l-75 57q-71 -47 -159 -47q-86 0 -150 37t-97.5 101.5t-33.5 144.5q0 82 33.5 145.5t97 99.5t150.5 36q86 0 149.5 -36.5t97 -101t33.5 -145.5q0 -46 -14 -89t-40 -79l68 -38zM214 147q38 -51 107 -51q45 0 71 11l-66 40l55 78l69 -59q15 37 15 106
q0 75 -38 126.5t-106 51.5q-70 0 -107.5 -48t-37.5 -128q0 -76 38 -127z" />
    <glyph glyph-name="r.sc" horiz-adv-x="543" vert-adv-y="1400"
d="M426.5 506q61.5 -46 61.5 -120q0 -108 -127 -141q35 -8 63 -31t45 -58l58 -120l-119 -50l-67 139q-21 41 -46 58t-62 17h-23v-200h-130v543q73 9 170 9q115 0 176.5 -46zM210 448v-146h52q44 0 69.5 20.5t25.5 56.5q0 34 -24.5 52.5t-70.5 18.5q-33 0 -52 -2z" />
    <glyph glyph-name="racute.sc" horiz-adv-x="543" vert-adv-y="1400"
d="M426.5 506q61.5 -46 61.5 -120q0 -108 -127 -141q35 -8 63 -31t45 -58l58 -120l-119 -50l-67 139q-21 41 -46 58t-62 17h-23v-200h-130v543q73 9 170 9q115 0 176.5 -46zM210 448v-146h52q44 0 69.5 20.5t25.5 56.5q0 34 -24.5 52.5t-70.5 18.5q-33 0 -52 -2zM357 828
l55 -111l-229 -109l-45 79z" />
    <glyph glyph-name="rcaron.sc" horiz-adv-x="543" vert-adv-y="1400"
d="M426.5 506q61.5 -46 61.5 -120q0 -108 -127 -141q35 -8 63 -31t45 -58l58 -120l-119 -50l-67 139q-21 41 -46 58t-62 17h-23v-200h-130v543q73 9 170 9q115 0 176.5 -46zM210 448v-146h52q44 0 69.5 20.5t25.5 56.5q0 34 -24.5 52.5t-70.5 18.5q-33 0 -52 -2zM473 722
l-150 -104h-96l-150 104l64 82l134 -102l134 102z" />
    <glyph glyph-name="rcommaaccent.sc" horiz-adv-x="543" vert-adv-y="1400"
d="M426.5 506q61.5 -46 61.5 -120q0 -108 -127 -141q35 -8 63 -31t45 -58l58 -120l-119 -50l-67 139q-21 41 -46 58t-62 17h-23v-200h-130v543q73 9 170 9q115 0 176.5 -46zM210 448v-146h52q44 0 69.5 20.5t25.5 56.5q0 34 -24.5 52.5t-70.5 18.5q-33 0 -52 -2zM351.5 -94
q24.5 -24 24.5 -68q0 -53 -28.5 -97.5t-83.5 -71.5l-33 49q25 18 37 35t18 43q-35 0 -55 17.5t-20 48.5q0 30 22 49t56 19q38 0 62.5 -24z" />
    <glyph glyph-name="s.sc" horiz-adv-x="480" vert-adv-y="1400"
d="M441 511l-47 -94q-70 34 -141 34q-41 0 -63 -12.5t-22 -34.5q0 -17 9.5 -28.5t35 -22.5t77.5 -27q88 -27 126.5 -67t38.5 -101q0 -80 -62.5 -123.5t-166.5 -43.5q-65 0 -116 14.5t-95 43.5l61 96q38 -24 73 -36t78 -12q42 0 68 13.5t26 40.5q0 18 -10.5 31t-37 25.5
t-77.5 27.5q-86 25 -123.5 64t-37.5 100q0 69 56.5 112.5t159.5 43.5q107 0 190 -44z" />
    <glyph glyph-name="sacute.sc" horiz-adv-x="480" vert-adv-y="1400"
d="M441 511l-47 -94q-70 34 -141 34q-41 0 -63 -12.5t-22 -34.5q0 -17 9.5 -28.5t35 -22.5t77.5 -27q88 -27 126.5 -67t38.5 -101q0 -80 -62.5 -123.5t-166.5 -43.5q-65 0 -116 14.5t-95 43.5l61 96q38 -24 73 -36t78 -12q42 0 68 13.5t26 40.5q0 18 -10.5 31t-37 25.5
t-77.5 27.5q-86 25 -123.5 64t-37.5 100q0 69 56.5 112.5t159.5 43.5q107 0 190 -44zM330 828l55 -111l-229 -109l-45 79z" />
    <glyph glyph-name="scaron.sc" horiz-adv-x="480" vert-adv-y="1400"
d="M441 511l-47 -94q-70 34 -141 34q-41 0 -63 -12.5t-22 -34.5q0 -17 9.5 -28.5t35 -22.5t77.5 -27q88 -27 126.5 -67t38.5 -101q0 -80 -62.5 -123.5t-166.5 -43.5q-65 0 -116 14.5t-95 43.5l61 96q38 -24 73 -36t78 -12q42 0 68 13.5t26 40.5q0 18 -10.5 31t-37 25.5
t-77.5 27.5q-86 25 -123.5 64t-37.5 100q0 69 56.5 112.5t159.5 43.5q107 0 190 -44zM446 722l-150 -104h-96l-150 104l64 82l134 -102l134 102z" />
    <glyph glyph-name="scedilla.sc" horiz-adv-x="480" vert-adv-y="1400"
d="M409 48q-46 -42 -126 -53l-15 -44q51 -4 79 -27.5t28 -66.5q0 -52 -42 -83t-113 -31q-66 0 -114 22l32 81q37 -13 70 -13q48 0 48 29q0 38 -103 38l34 92q-97 8 -172 57l61 96q38 -24 73 -36t78 -12q42 0 68 13.5t26 40.5q0 18 -10.5 31t-37 25.5t-77.5 27.5
q-86 25 -123.5 64t-37.5 100q0 69 56.5 112.5t159.5 43.5q107 0 190 -44l-47 -94q-70 34 -141 34q-41 0 -63 -12.5t-22 -34.5q0 -17 9.5 -28.5t35 -22.5t77.5 -27q88 -27 126.5 -67t38.5 -101q0 -68 -46 -110z" />
    <glyph glyph-name="scircumflex.sc" horiz-adv-x="480" vert-adv-y="1400"
d="M441 511l-47 -94q-70 34 -141 34q-41 0 -63 -12.5t-22 -34.5q0 -17 9.5 -28.5t35 -22.5t77.5 -27q88 -27 126.5 -67t38.5 -101q0 -80 -62.5 -123.5t-166.5 -43.5q-65 0 -116 14.5t-95 43.5l61 96q38 -24 73 -36t78 -12q42 0 68 13.5t26 40.5q0 18 -10.5 31t-37 25.5
t-77.5 27.5q-86 25 -123.5 64t-37.5 100q0 69 56.5 112.5t159.5 43.5q107 0 190 -44zM446 677l-64 -82l-134 103l-134 -103l-64 82l150 104h96z" />
    <glyph glyph-name="scommaaccent.sc" horiz-adv-x="480" vert-adv-y="1400"
d="M441 511l-47 -94q-70 34 -141 34q-41 0 -63 -12.5t-22 -34.5q0 -17 9.5 -28.5t35 -22.5t77.5 -27q88 -27 126.5 -67t38.5 -101q0 -80 -62.5 -123.5t-166.5 -43.5q-65 0 -116 14.5t-95 43.5l61 96q38 -24 73 -36t78 -12q42 0 68 13.5t26 40.5q0 18 -10.5 31t-37 25.5
t-77.5 27.5q-86 25 -123.5 64t-37.5 100q0 69 56.5 112.5t159.5 43.5q107 0 190 -44zM297.5 -94q24.5 -24 24.5 -68q0 -53 -28.5 -97.5t-83.5 -71.5l-33 49q25 18 37 35t18 43q-35 0 -55 17.5t-20 48.5q0 30 22 49t56 19q38 0 62.5 -24z" />
    <glyph glyph-name="germandbls.sc" horiz-adv-x="582" vert-adv-y="1400"
d="M405 544q61 -11 115 -30v-69l-116 -133q77 -19 117.5 -59t40.5 -107q0 -52 -27 -92.5t-77.5 -63t-116.5 -22.5q-64 0 -110 20l34 95q35 -11 72 -11q40 0 65.5 20t25.5 58q0 40 -32 64t-115 30v73l105 124q-52 10 -97 10q-94 0 -94 -85v-366h-130v366q0 95 57 142t164 47
q58 0 119 -11z" />
    <glyph glyph-name="t.sc" horiz-adv-x="471" vert-adv-y="1400"
d="M464 546v-107h-163v-439h-130v439h-164v107h457z" />
    <glyph glyph-name="tbar.sc" horiz-adv-x="471" vert-adv-y="1400"
d="M301 439v-130h99v-88h-99v-221h-130v221h-97v88h97v130h-164v107h457v-107h-163z" />
    <glyph glyph-name="tcaron.sc" horiz-adv-x="471" vert-adv-y="1400"
d="M464 546v-107h-163v-439h-130v439h-164v107h457zM434 722l-150 -104h-96l-150 104l64 82l134 -102l134 102z" />
    <glyph glyph-name="uni0163.sc" horiz-adv-x="471" vert-adv-y="1400"
d="M301 0l-17 -49q51 -4 79 -27.5t28 -66.5q0 -52 -42 -83t-113 -31q-66 0 -114 22l32 81q37 -13 70 -13q48 0 48 29q0 38 -103 38l37 100h-35v439h-164v107h457v-107h-163v-439z" />
    <glyph glyph-name="uni021B.sc" horiz-adv-x="471" vert-adv-y="1400"
d="M464 546v-107h-163v-439h-130v439h-164v107h457zM290.5 -94q24.5 -24 24.5 -68q0 -53 -28.5 -97.5t-83.5 -71.5l-33 49q25 18 37 35t18 43q-35 0 -55 17.5t-20 48.5q0 30 22 49t56 19q38 0 62.5 -24z" />
    <glyph glyph-name="u.sc" horiz-adv-x="596" vert-adv-y="1400"
d="M526 196q0 -96 -62 -150.5t-165 -54.5q-104 0 -166.5 53t-62.5 148v354h130v-350q0 -49 26 -74t73 -25q48 0 73.5 25t25.5 74v350h128v-350z" />
    <glyph glyph-name="uacute.sc" horiz-adv-x="596" vert-adv-y="1400"
d="M526 196q0 -96 -62 -150.5t-165 -54.5q-104 0 -166.5 53t-62.5 148v354h130v-350q0 -49 26 -74t73 -25q48 0 73.5 25t25.5 74v350h128v-350zM380 828l55 -111l-229 -109l-45 79z" />
    <glyph glyph-name="ubreve.sc" horiz-adv-x="596" vert-adv-y="1400"
d="M526 196q0 -96 -62 -150.5t-165 -54.5q-104 0 -166.5 53t-62.5 148v354h130v-350q0 -49 26 -74t73 -25q48 0 73.5 25t25.5 74v350h128v-350zM492 737q-28 -54 -76.5 -85.5t-117.5 -31.5t-118 31.5t-77 85.5l77 51q22 -31 49.5 -47.5t68.5 -16.5q40 0 67.5 16t50.5 48z
" />
    <glyph glyph-name="ucircumflex.sc" horiz-adv-x="596" vert-adv-y="1400"
d="M526 196q0 -96 -62 -150.5t-165 -54.5q-104 0 -166.5 53t-62.5 148v354h130v-350q0 -49 26 -74t73 -25q48 0 73.5 25t25.5 74v350h128v-350zM496 677l-64 -82l-134 103l-134 -103l-64 82l150 104h96z" />
    <glyph glyph-name="udieresis.sc" horiz-adv-x="596" vert-adv-y="1400"
d="M526 196q0 -96 -62 -150.5t-165 -54.5q-104 0 -166.5 53t-62.5 148v354h130v-350q0 -49 26 -74t73 -25q48 0 73.5 25t25.5 74v350h128v-350zM249 754.5q22 -22.5 22 -56.5t-22 -56t-56 -22q-33 0 -56 22.5t-23 55.5q0 34 22.5 56.5t56.5 22.5t56 -22.5zM459 754.5
q23 -22.5 23 -56.5t-22.5 -56t-56.5 -22t-56 22t-22 56t22 56.5t56 22.5q33 0 56 -22.5z" />
    <glyph glyph-name="ugrave.sc" horiz-adv-x="596" vert-adv-y="1400"
d="M526 196q0 -96 -62 -150.5t-165 -54.5q-104 0 -166.5 53t-62.5 148v354h130v-350q0 -49 26 -74t73 -25q48 0 73.5 25t25.5 74v350h128v-350zM391 608l-230 109l55 111l219 -141z" />
    <glyph glyph-name="uhungarumlaut.sc" horiz-adv-x="596" vert-adv-y="1400"
d="M526 196q0 -96 -62 -150.5t-165 -54.5q-104 0 -166.5 53t-62.5 148v354h130v-350q0 -49 26 -74t73 -25q48 0 73.5 25t25.5 74v350h128v-350zM353 799l-112 -185l-76 39l86 197zM521 783l-111 -185l-76 39l86 197z" />
    <glyph glyph-name="umacron.sc" horiz-adv-x="596" vert-adv-y="1400"
d="M526 196q0 -96 -62 -150.5t-165 -54.5q-104 0 -166.5 53t-62.5 148v354h130v-350q0 -49 26 -74t73 -25q48 0 73.5 25t25.5 74v350h128v-350zM458 635h-320v101h320v-101z" />
    <glyph glyph-name="uogonek.sc" horiz-adv-x="596" vert-adv-y="1400"
d="M526 546v-350q0 -77 -41 -128t-113 -69q-56 -21 -82 -45t-26 -56q0 -23 14.5 -36t41.5 -13q25 0 50 9l22 -83q-43 -19 -100 -19q-63 0 -103.5 33t-40.5 91q0 75 79 119q-73 16 -115 66t-42 127v354h130v-350q0 -49 26 -74t73 -25q48 0 73.5 25t25.5 74v350h128z" />
    <glyph glyph-name="uring.sc" horiz-adv-x="596" vert-adv-y="1400"
d="M526 196q0 -96 -62 -150.5t-165 -54.5q-104 0 -166.5 53t-62.5 148v354h130v-350q0 -49 26 -74t73 -25q48 0 73.5 25t25.5 74v350h128v-350zM401.5 801q41.5 -39 41.5 -99t-41.5 -99t-103.5 -39q-64 0 -105 38.5t-41 99.5q0 60 41 99t105 39q62 0 103.5 -39zM266.5 744
q-11.5 -15 -11.5 -42q0 -26 12 -41.5t31 -15.5t30.5 15t11.5 42t-11 42t-31 15t-31.5 -15z" />
    <glyph glyph-name="utilde.sc" horiz-adv-x="596" vert-adv-y="1400"
d="M526 196q0 -96 -62 -150.5t-165 -54.5q-104 0 -166.5 53t-62.5 148v354h130v-350q0 -49 26 -74t73 -25q48 0 73.5 25t25.5 74v350h128v-350zM265.5 760.5q17.5 -6.5 39.5 -19.5q16 -9 27.5 -14t23.5 -5q21 0 38.5 11.5t36.5 32.5l61 -69q-34 -42 -62 -62t-61 -20
q-21 0 -37 6.5t-39 19.5q-17 10 -28.5 15t-24.5 5q-21 0 -39 -12t-37 -33l-61 69q34 42 62 62t61 20q22 0 39.5 -6.5z" />
    <glyph glyph-name="v.sc" horiz-adv-x="555" vert-adv-y="1400"
d="M134 555l146 -422l146 422l123 -44l-207 -511h-128l-207 512z" />
    <glyph glyph-name="w.sc" horiz-adv-x="793" vert-adv-y="1400"
d="M781 523l-154 -523h-139l-91 360l-91 -360h-138l-156 523l130 32l101 -411l87 353h140l87 -353l100 411z" />
    <glyph glyph-name="wacute.sc" horiz-adv-x="793" vert-adv-y="1400"
d="M781 523l-154 -523h-139l-91 360l-91 -360h-138l-156 523l130 32l101 -411l87 353h140l87 -353l100 411zM482 828l55 -111l-229 -109l-45 79z" />
    <glyph glyph-name="wcircumflex.sc" horiz-adv-x="793" vert-adv-y="1400"
d="M781 523l-154 -523h-139l-91 360l-91 -360h-138l-156 523l130 32l101 -411l87 353h140l87 -353l100 411zM598 677l-64 -82l-134 103l-134 -103l-64 82l150 104h96z" />
    <glyph glyph-name="wdieresis.sc" horiz-adv-x="793" vert-adv-y="1400"
d="M781 523l-154 -523h-139l-91 360l-91 -360h-138l-156 523l130 32l101 -411l87 353h140l87 -353l100 411zM351 754.5q22 -22.5 22 -56.5t-22 -56t-56 -22q-33 0 -56 22.5t-23 55.5q0 34 22.5 56.5t56.5 22.5t56 -22.5zM561 754.5q23 -22.5 23 -56.5t-22.5 -56t-56.5 -22
t-56 22t-22 56t22 56.5t56 22.5q33 0 56 -22.5z" />
    <glyph glyph-name="wgrave.sc" horiz-adv-x="793" vert-adv-y="1400"
d="M781 523l-154 -523h-139l-91 360l-91 -360h-138l-156 523l130 32l101 -411l87 353h140l87 -353l100 411zM493 608l-230 109l55 111l219 -141z" />
    <glyph glyph-name="x.sc" horiz-adv-x="521" vert-adv-y="1400"
d="M13 488l107 69l137 -201l141 202l99 -70l-166 -201l183 -222l-106 -75l-150 215l-153 -215l-98 75l177 211z" />
    <glyph glyph-name="y.sc" horiz-adv-x="534" vert-adv-y="1400"
d="M423 555l104 -64l-193 -282v-209h-130v207l-197 284l109 63l154 -254z" />
    <glyph glyph-name="yacute.sc" horiz-adv-x="534" vert-adv-y="1400"
d="M423 555l104 -64l-193 -282v-209h-130v207l-197 284l109 63l154 -254zM349 828l55 -111l-229 -109l-45 79z" />
    <glyph glyph-name="ycircumflex.sc" horiz-adv-x="534" vert-adv-y="1400"
d="M423 555l104 -64l-193 -282v-209h-130v207l-197 284l109 63l154 -254zM465 677l-64 -82l-134 103l-134 -103l-64 82l150 104h96z" />
    <glyph glyph-name="ydieresis.sc" horiz-adv-x="534" vert-adv-y="1400"
d="M423 555l104 -64l-193 -282v-209h-130v207l-197 284l109 63l154 -254zM218 754.5q22 -22.5 22 -56.5t-22 -56t-56 -22q-33 0 -56 22.5t-23 55.5q0 34 22.5 56.5t56.5 22.5t56 -22.5zM428 754.5q23 -22.5 23 -56.5t-22.5 -56t-56.5 -22t-56 22t-22 56t22 56.5t56 22.5
q33 0 56 -22.5z" />
    <glyph glyph-name="ygrave.sc" horiz-adv-x="534" vert-adv-y="1400"
d="M423 555l104 -64l-193 -282v-209h-130v207l-197 284l109 63l154 -254zM360 608l-230 109l55 111l219 -141z" />
    <glyph glyph-name="z.sc" horiz-adv-x="471" vert-adv-y="1400"
d="M288 439h-252v107h407v-89l-271 -346h282v-111h-432v94z" />
    <glyph glyph-name="zacute.sc" horiz-adv-x="471" vert-adv-y="1400"
d="M288 439h-252v107h407v-89l-271 -346h282v-111h-432v94zM322 828l55 -111l-229 -109l-45 79z" />
    <glyph glyph-name="zcaron.sc" horiz-adv-x="471" vert-adv-y="1400"
d="M288 439h-252v107h407v-89l-271 -346h282v-111h-432v94zM438 722l-150 -104h-96l-150 104l64 82l134 -102l134 102z" />
    <glyph glyph-name="zdotaccent.sc" horiz-adv-x="471" vert-adv-y="1400"
d="M288 439h-252v107h407v-89l-271 -346h282v-111h-432v94zM301 765.5q25 -24.5 25 -60.5q0 -37 -24.5 -61t-61.5 -24q-36 0 -61 24.5t-25 60.5q0 37 24.5 61t61.5 24q36 0 61 -24.5z" />
    <glyph glyph-name="ordfeminine" unicode="&#xaa;" vert-adv-y="1400"
d="M368 670v30h90v-241q0 -27 12.5 -37.5t33.5 -10.5l-25 -83q-74 0 -103 43q-45 -47 -110 -47q-47 0 -86 23t-61.5 66t-22.5 101q0 55 22.5 99t62 69t87.5 25q54 0 100 -37zM227.5 591.5q-22.5 -26.5 -22.5 -75.5q0 -48 23.5 -75t59.5 -27q39 0 64 27v159q-29 18 -65 18
q-37 0 -59.5 -26.5zM476 132h-351v99h351v-99z" />
    <glyph glyph-name="ordmasculine" unicode="&#xba;" vert-adv-y="1400"
d="M400 683q44 -24 69 -67t25 -100t-25 -101t-69.5 -68t-99.5 -24q-56 0 -100.5 24t-69 68t-24.5 100q0 58 25.5 101.5t69.5 67t99 23.5q56 0 100 -24zM237 589.5q-23 -27.5 -23 -74.5q0 -44 24 -73t62 -29q40 0 63 28t23 76q0 43 -24 71.5t-62 28.5q-40 0 -63 -27.5z
M476 132h-352v99h352v-99z" />
    <glyph glyph-name="uni2071" unicode="&#x2071;" horiz-adv-x="300" vert-adv-y="1400"
d="M195.5 753q17.5 -16 17.5 -42q0 -24 -17.5 -41t-44.5 -17t-45 15.5t-18 41.5q0 25 17.5 42t45.5 17q27 0 44.5 -16zM204 276h-107v320h107v-320z" />
    <glyph glyph-name="uni207F" unicode="&#x207f;" horiz-adv-x="450" vert-adv-y="1400"
d="M355 568q32 -35 32 -96v-196h-107v195q0 50 -42 50q-37 0 -68 -39v-206h-107v320h97v-47q21 27 46.5 40.5t59.5 13.5q57 0 89 -35z" />
    <glyph glyph-name="uni0410" unicode="&#x410;" horiz-adv-x="684" vert-adv-y="1400"
d="M677 35l-127 -47l-69 186h-284l-69 -186l-121 47l268 665h138zM441 285l-99 284l-104 -284h203z" />
    <glyph glyph-name="uni0411" unicode="&#x411;" horiz-adv-x="604" vert-adv-y="1400"
d="M514 387.5q75 -57.5 75 -160.5q0 -112 -78.5 -173.5t-218.5 -61.5q-114 0 -212 13v695h439v-116h-301v-145q42 6 98 6q123 0 198 -57.5zM408 133.5q37 31.5 37 90.5q0 56 -35.5 84.5t-99.5 28.5q-40 0 -92 -6v-224q42 -5 88 -5q65 0 102 31.5z" />
    <glyph glyph-name="uni0412" unicode="&#x412;" horiz-adv-x="631" vert-adv-y="1400"
d="M440.5 682.5q64.5 -25.5 98 -69t33.5 -97.5q0 -53 -29.5 -88t-87.5 -57q71 -22 106 -61.5t35 -105.5q0 -63 -36.5 -111t-105 -74.5t-163.5 -26.5q-111 0 -211 14v688q120 14 208 14t152.5 -25.5zM218 596v-183h86q59 0 93.5 24.5t34.5 69.5t-34.5 69t-98.5 24
q-35 0 -81 -4zM218 309v-203q31 -4 88 -4q68 0 107 26t39 77t-37.5 77.5t-106.5 26.5h-90z" />
    <glyph glyph-name="uni0413" unicode="&#x413;" horiz-adv-x="516" vert-adv-y="1400"
d="M519 700v-117h-301v-583h-138v700h439z" />
    <glyph glyph-name="uni0403" unicode="&#x403;" horiz-adv-x="516" vert-adv-y="1400"
d="M519 700v-117h-301v-583h-138v700h439zM399 968l55 -111l-229 -109l-45 79z" />
    <glyph glyph-name="uni0490" unicode="&#x490;" horiz-adv-x="516" vert-adv-y="1400"
d="M519 866v-283h-301v-583h-138v700h308l21 166h110z" />
    <glyph glyph-name="uni0414" unicode="&#x414;" horiz-adv-x="653" vert-adv-y="1400"
d="M638 114v-280h-110l-21 166h-382l-22 -166h-109v280h40q25 3 38.5 30.5t18.5 100.5l30 455h449v-586h68zM432 588h-180l-24 -322q-4 -59 -19 -95t-42 -57h265v474z" />
    <glyph glyph-name="uni0415" unicode="&#x415;" horiz-adv-x="565" vert-adv-y="1400"
d="M526 700v-114h-308v-169h264v-110h-264v-193h308v-114h-446v700h446z" />
    <glyph glyph-name="uni0401" unicode="&#x401;" horiz-adv-x="565" vert-adv-y="1400"
d="M526 700v-114h-308v-169h264v-110h-264v-193h308v-114h-446v700h446zM264 899.5q22 -22.5 22 -56.5t-22 -56t-56 -22q-33 0 -56 22.5t-23 55.5q0 34 22.5 56.5t56.5 22.5t56 -22.5zM474 899.5q23 -22.5 23 -56.5t-22.5 -56t-56.5 -22t-56 22t-22 56t22 56.5t56 22.5
q33 0 56 -22.5z" />
    <glyph glyph-name="uni0416" unicode="&#x416;" horiz-adv-x="847" vert-adv-y="1400"
d="M542 302q-24 -5 -54 -7v-295h-129v295q-32 2 -56 7l-199 -316l-99 67l196 302q-42 37 -64 92l-35 84q-15 38 -34 51.5t-52 15.5l20 107q59 -1 98 -24t65 -85l48 -113q17 -41 44 -58.5t68 -19.5v295h129v-295q42 2 69 19.5t44 58.5l48 113q26 62 64.5 85t97.5 24l20 -107
q-34 -2 -53.5 -15.5t-34.5 -51.5l-34 -84q-22 -55 -64 -92l197 -302l-101 -67z" />
    <glyph glyph-name="uni0417" unicode="&#x417;" horiz-adv-x="535" vert-adv-y="1400"
d="M362.5 687q54.5 -25 84 -67.5t29.5 -94.5q0 -63 -33 -99t-93 -53q67 -14 108 -56t41 -115q0 -66 -33.5 -114t-95 -74t-141.5 -26q-138 0 -229 75l66 86q40 -25 76 -37.5t83 -12.5q61 0 95.5 26t34.5 78q0 53 -39.5 81.5t-119.5 28.5h-67v103h65q68 0 105 25t37 74
q0 42 -30 65.5t-83 23.5q-43 0 -77 -10.5t-69 -31.5l-59 86q91 64 218 64q72 0 126.5 -25z" />
    <glyph glyph-name="uni0418" unicode="&#x418;" horiz-adv-x="711" vert-adv-y="1400"
d="M631 700v-700h-137v437l-276 -334v-103h-138v700h138v-436l276 334v102h137z" />
    <glyph glyph-name="uni0419" unicode="&#x419;" horiz-adv-x="711" vert-adv-y="1400"
d="M239.5 799q-48.5 35 -67.5 110l85 24q22 -71 99 -71t98 71l85 -24q-18 -75 -66.5 -110t-116.5 -35t-116.5 35zM631 700v-700h-137v437l-276 -334v-103h-138v700h138v-436l276 334v102h137z" />
    <glyph glyph-name="uni041A" unicode="&#x41a;" horiz-adv-x="629" vert-adv-y="1400"
d="M538 -14l-226 319q-40 -11 -94 -10v-295h-138v700h138v-293q40 1 63 7t38 21t30 43l65 125q30 57 70 79.5t100 22.5l19 -111q-35 -2 -55.5 -14.5t-38.5 -47.5l-43 -87q-24 -50 -50 -77l223 -308z" />
    <glyph glyph-name="uni040C" unicode="&#x40c;" horiz-adv-x="629" vert-adv-y="1400"
d="M538 -14l-226 319q-40 -11 -94 -10v-295h-138v700h138v-293q40 1 63 7t38 21t30 43l65 125q30 57 70 79.5t100 22.5l19 -111q-35 -2 -55.5 -14.5t-38.5 -47.5l-43 -87q-24 -50 -50 -77l223 -308zM417 968l55 -111l-229 -109l-45 79z" />
    <glyph glyph-name="uni041B" unicode="&#x41b;" horiz-adv-x="680" vert-adv-y="1400"
d="M241 588l-30 -406q-4 -60 -19 -98t-44.5 -62.5t-79.5 -42.5l-53 102q31 17 44.5 42t17.5 81l32 496h491v-700h-138v588h-221z" />
    <glyph glyph-name="uni041C" unicode="&#x41c;" horiz-adv-x="847" vert-adv-y="1400"
d="M767 0h-138v524l-149 -381h-118l-150 381v-524h-132v700h182l160 -419l161 419h184v-700z" />
    <glyph glyph-name="uni041D" unicode="&#x41d;" horiz-adv-x="711" vert-adv-y="1400"
d="M218 304v-304h-138v700h138v-282h276v282h137v-700h-137v304h-276z" />
    <glyph glyph-name="uni041E" unicode="&#x41e;" horiz-adv-x="758" vert-adv-y="1400"
d="M559.5 664.5q76.5 -47.5 117.5 -130t41 -184.5q0 -104 -40.5 -186t-117.5 -129t-181 -47t-180.5 48t-117.5 130.5t-41 184.5q0 104 40.5 186t117.5 128.5t181 46.5t180.5 -47.5zM235 530q-51 -68 -51 -179q0 -67 23 -124t67 -91t105 -34q94 0 144.5 68t50.5 180
q0 67 -23 123.5t-67 90.5t-105 34q-93 0 -144 -68z" />
    <glyph glyph-name="uni041F" unicode="&#x41f;" horiz-adv-x="698" vert-adv-y="1400"
d="M218 586v-586h-138v700h538v-700h-138v586h-262z" />
    <glyph glyph-name="uni0420" unicode="&#x420;" horiz-adv-x="593" vert-adv-y="1400"
d="M282 708q95 0 162 -29t101 -81t34 -119q0 -116 -82.5 -179.5t-219.5 -63.5q-34 0 -59 3v-239h-138v696q106 12 202 12zM400.5 380q39.5 33 39.5 95q0 57 -39 89.5t-111 32.5q-39 0 -72 -3v-244q27 -3 68 -3q75 0 114.5 33z" />
    <glyph glyph-name="uni0421" unicode="&#x421;" horiz-adv-x="592" vert-adv-y="1400"
d="M231 164q47 -60 139 -60q47 0 81.5 8t70.5 24l43 -96q-87 -52 -201 -52q-100 0 -172.5 40.5t-112 118.5t-39.5 189q0 113 42 198t119 131.5t179 46.5q96 0 181 -44l-41 -99q-33 14 -64.5 21t-71.5 7q-91 0 -145.5 -66.5t-54.5 -190.5q0 -116 47 -176z" />
    <glyph glyph-name="uni0422" unicode="&#x422;" horiz-adv-x="563" vert-adv-y="1400"
d="M557 700v-116h-206v-584h-138v584h-206v116h550z" />
    <glyph glyph-name="uni0423" unicode="&#x423;" horiz-adv-x="614" vert-adv-y="1400"
d="M637 663l-245 -480q-37 -73 -72 -114.5t-75 -60.5t-93 -19q-80 0 -138 43l48 92q23 -13 42.5 -18t45.5 -5q36 0 62.5 24t62.5 91l-170 320q-16 31 -36 42.5t-50 12.5l24 110q62 0 103 -25t71 -85l125 -256l177 375z" />
    <glyph glyph-name="uni040E" unicode="&#x40e;" horiz-adv-x="614" vert-adv-y="1400"
d="M520 909q-18 -75 -66.5 -110t-116.5 -35t-116.5 35t-67.5 110l85 24q22 -71 99 -71t98 71zM637 663l-245 -480q-37 -73 -72 -114.5t-75 -60.5t-93 -19q-80 0 -138 43l48 92q23 -13 42.5 -18t45.5 -5q36 0 62.5 24t62.5 91l-170 320q-16 31 -36 42.5t-50 12.5l24 110
q62 0 103 -25t71 -85l125 -256l177 375z" />
    <glyph glyph-name="uni0424" unicode="&#x424;" horiz-adv-x="827" vert-adv-y="1400"
d="M758.5 202.5q-38.5 -67.5 -109.5 -110t-167 -53.5v-89h-137v88q-147 16 -231 97.5t-84 216.5q0 85 38.5 152.5t110 109.5t166.5 53v83h137v-83q147 -15 231 -96t84 -216q0 -85 -38.5 -152.5zM608 204.5q45 52.5 45 150.5t-45 149t-135 62v-425q90 11 135 63.5zM219.5 203
q45.5 -52 134.5 -63v426q-91 -11 -135.5 -64t-44.5 -150t45.5 -149z" />
    <glyph glyph-name="uni0425" unicode="&#x425;" horiz-adv-x="621" vert-adv-y="1400"
d="M15 635l113 76l180 -264l183 263l105 -75l-209 -271l227 -295l-112 -80l-195 282l-196 -282l-104 80l223 286z" />
    <glyph glyph-name="uni0427" unicode="&#x427;" horiz-adv-x="651" vert-adv-y="1400"
d="M570 700v-700h-137v270q-77 -74 -190 -74q-60 0 -110 25.5t-79.5 75t-29.5 118.5v285h137v-271q0 -60 31.5 -89.5t85.5 -29.5q45 0 84.5 19t70.5 52v319h137z" />
    <glyph glyph-name="uni0426" unicode="&#x426;" horiz-adv-x="694" vert-adv-y="1400"
d="M692 114v-280h-110l-21 166h-481v700h138v-586h258v586h138v-586h78z" />
    <glyph glyph-name="uni0428" unicode="&#x428;" horiz-adv-x="963" vert-adv-y="1400"
d="M883 700v-700h-803v700h138v-586h197v586h131v-586h199v586h138z" />
    <glyph glyph-name="uni0429" unicode="&#x429;" horiz-adv-x="963" vert-adv-y="1400"
d="M961 114v-280h-110l-21 166h-750v700h138v-586h197v586h131v-586h199v586h138v-586h78z" />
    <glyph glyph-name="uni040F" unicode="&#x40f;" horiz-adv-x="694" vert-adv-y="1400"
d="M614 0h-198v-166h-110l-21 166h-205v700h138v-586h258v586h138v-700z" />
    <glyph glyph-name="uni042C" unicode="&#x42c;" horiz-adv-x="606" vert-adv-y="1400"
d="M218 454q42 6 98 6q82 0 145.5 -27t99 -78t35.5 -122q0 -116 -80 -178.5t-224 -62.5q-114 0 -212 13v695h138v-246zM218 345v-238q42 -5 88 -5q69 0 107.5 32.5t38.5 96.5q0 58 -37 89t-105 31q-40 0 -92 -6z" />
    <glyph glyph-name="uni042A" unicode="&#x42a;" horiz-adv-x="739" vert-adv-y="1400"
d="M594.5 433q63.5 -27 99 -78t35.5 -122q0 -116 -80 -178.5t-224 -62.5q-114 0 -212 13v579h-206v116h344v-246q42 6 98 6q82 0 145.5 -27zM546.5 134.5q38.5 32.5 38.5 96.5q0 58 -37 89t-105 31q-40 0 -92 -6v-238q42 -5 88 -5q69 0 107.5 32.5z" />
    <glyph glyph-name="uni042B" unicode="&#x42b;" horiz-adv-x="873" vert-adv-y="1400"
d="M218 454q42 6 98 6q76 0 137.5 -27t97 -78.5t35.5 -121.5q0 -115 -79 -178t-215 -63q-114 0 -212 13v695h138v-246zM655 700h138v-700h-138v700zM218 345v-238q42 -5 88 -5q61 0 98.5 32.5t37.5 96.5q0 57 -36.5 88.5t-95.5 31.5q-40 0 -92 -6z" />
    <glyph glyph-name="uni0409" unicode="&#x409;" horiz-adv-x="946" vert-adv-y="1400"
d="M804.5 433q61.5 -27 96.5 -78.5t35 -121.5q0 -116 -78.5 -178.5t-217.5 -62.5q-113 0 -211 13v583h-188l-30 -406q-4 -60 -19 -98t-44.5 -62.5t-79.5 -42.5l-53 102q31 17 44.5 42t17.5 81l32 496h457v-246q42 6 99 6q78 0 139.5 -27zM755 134.5q37 32.5 37 96.5
q0 58 -36 89t-98 31q-38 0 -92 -6v-238q43 -5 88 -5q64 0 101 32.5z" />
    <glyph glyph-name="uni040A" unicode="&#x40a;" horiz-adv-x="1011" vert-adv-y="1400"
d="M865.5 417q63.5 -26 99.5 -75.5t36 -117.5q0 -111 -80 -171.5t-224 -60.5q-114 0 -212 13v315h-267v-320h-138v700h138v-266h267v266h138v-263q41 6 98 6q81 0 144.5 -26zM818.5 132q38.5 30 38.5 89q0 55 -37 83.5t-106 28.5q-52 0 -91 -6v-220q42 -5 88 -5
q69 0 107.5 30z" />
    <glyph glyph-name="uni0405" unicode="&#x405;" horiz-adv-x="563" vert-adv-y="1400"
d="M521 655l-52 -98q-88 42 -175 42q-54 0 -84 -20t-30 -55q0 -24 12 -40.5t43.5 -32.5t94.5 -37q113 -38 160 -88t47 -128q0 -99 -74 -154.5t-197 -55.5q-79 0 -140 18.5t-111 55.5l64 96q49 -27 90 -41t94 -14q59 0 95 22.5t36 65.5q0 27 -13.5 45.5t-47.5 36t-98 38.5
q-107 35 -152.5 83t-45.5 127q0 55 30 98.5t88 68t138 24.5q127 0 228 -57z" />
    <glyph glyph-name="uni0404" unicode="&#x404;" horiz-adv-x="610" vert-adv-y="1400"
d="M570 40q-87 -52 -198 -52q-98 0 -173 43t-117 124t-42 192q0 108 42 190.5t118.5 128.5t177.5 46q54 0 97.5 -11t85.5 -33l-41 -103q-35 16 -66 24t-72 8q-77 0 -129 -48t-65 -138h306v-111h-307q11 -92 62.5 -144t132.5 -52q43 0 77 10t72 29z" />
    <glyph glyph-name="uni042D" unicode="&#x42d;" horiz-adv-x="595" vert-adv-y="1400"
d="M471 617.5q78 -94.5 78 -262.5q0 -112 -39.5 -195t-111 -127.5t-165.5 -44.5q-62 0 -114 16t-87 40l47 99q37 -19 70.5 -29t80.5 -10q76 0 122.5 51t54.5 145h-264v111h264q-13 186 -163 186q-44 0 -80 -9t-80 -29l-47 97q48 28 99 42t113 14q144 0 222 -94.5z" />
    <glyph glyph-name="uni0406" unicode="&#x406;" horiz-adv-x="298" vert-adv-y="1400"
d="M80 700h138v-700h-138v700z" />
    <glyph glyph-name="uni0407" unicode="&#x407;" horiz-adv-x="298" vert-adv-y="1400"
d="M80 700h138v-700h-138v700zM101 899.5q22 -22.5 22 -56.5t-22 -56t-56 -22q-33 0 -56 22.5t-23 55.5q0 34 22.5 56.5t56.5 22.5t56 -22.5zM311 899.5q23 -22.5 23 -56.5t-22.5 -56t-56.5 -22t-56 22t-22 56t22 56.5t56 22.5q33 0 56 -22.5z" />
    <glyph glyph-name="uni0408" unicode="&#x408;" horiz-adv-x="450" vert-adv-y="1400"
d="M380 212q0 -110 -61 -167t-156 -57q-102 0 -169 61l61 91q26 -19 48 -28.5t51 -9.5q41 0 64.5 27.5t23.5 81.5v489h138v-488z" />
    <glyph glyph-name="uni040B" unicode="&#x40b;" horiz-adv-x="800" vert-adv-y="1400"
d="M645.5 433q50.5 -26 80.5 -76t30 -119v-238h-137v226q0 60 -32 89.5t-86 29.5q-43 0 -82 -19t-68 -52v-274h-138v587h-206v113h550v-113h-206v-202q74 74 184 74q60 0 110.5 -26z" />
    <glyph glyph-name="uni042E" unicode="&#x42e;" horiz-adv-x="1016" vert-adv-y="1400"
d="M826 664.5q73 -47.5 111.5 -129.5t38.5 -185q0 -104 -38 -186t-111.5 -129t-173.5 -47q-92 0 -160.5 42t-109 113.5t-50.5 161.5h-115v-305h-138v700h138v-284h118q13 86 53.5 153t107.5 105t156 38q100 0 173 -47.5zM786.5 169.5q45.5 67.5 45.5 180.5q0 68 -20 124.5
t-60.5 90t-98.5 33.5q-90 0 -135.5 -67t-45.5 -180q0 -107 46.5 -178t134.5 -71t133.5 67.5z" />
    <glyph glyph-name="uni042F" unicode="&#x42f;" horiz-adv-x="626" vert-adv-y="1400"
d="M545 696v-696h-137v264h-71q-30 0 -50.5 -11.5t-37 -38t-37.5 -78.5l-61 -151l-126 45l62 148q23 57 45.5 85t61.5 44q-65 22 -99 63.5t-34 115.5q0 64 32.5 114.5t96 79t153.5 28.5q106 0 202 -12zM408 593q-35 4 -76 4q-64 0 -98.5 -28t-34.5 -81q0 -113 139 -113h70
v218z" />
    <glyph glyph-name="uni0402" unicode="&#x402;" horiz-adv-x="800" vert-adv-y="1400"
d="M645.5 446q50.5 -26 80.5 -76t30 -119v-297q0 -91 -55 -138.5t-142 -47.5q-65 0 -112 25l31 98q32 -13 66 -13q36 0 55.5 22t19.5 65v274q0 60 -32 89.5t-86 29.5q-43 0 -82 -19t-68 -52v-287h-138v587h-206v113h550v-113h-206v-189q74 74 184 74q60 0 110.5 -26z" />
    <glyph glyph-name="uni0462" unicode="&#x462;" horiz-adv-x="633" vert-adv-y="1400"
d="M483.5 415.5q63.5 -26.5 99 -75.5t35.5 -115q0 -110 -80.5 -171.5t-223.5 -61.5q-114 0 -212 13v519h-100v100h100v76h138v-76h209v-100h-209v-88q56 6 99 6q81 0 144.5 -26.5zM435 133q39 31 39 89q0 53 -37.5 82t-104.5 29q-53 0 -92 -6v-220q42 -5 88 -5q68 0 107 31z
" />
    <glyph glyph-name="uni0472" unicode="&#x472;" horiz-adv-x="758" vert-adv-y="1400"
d="M559.5 664.5q76.5 -47.5 117.5 -130t41 -184.5q0 -104 -40.5 -186t-117.5 -129t-181 -47t-180.5 48t-117.5 130.5t-41 184.5q0 104 40.5 186t117.5 128.5t181 46.5t180.5 -47.5zM236.5 537q-51.5 -61 -56.5 -163q49 46 108 46q26 0 48 -6.5t50 -19.5q28 -12 46 -18t39 -6
q29 0 54 10.5t50 31.5q-14 83 -65 134.5t-131 51.5q-91 0 -142.5 -61zM520.5 160.5q50.5 58.5 58.5 156.5q-24 -21 -49.5 -31.5t-57.5 -10.5q-27 0 -49 7t-53 20q-27 12 -45.5 17.5t-38.5 5.5q-54 0 -101 -42q16 -81 66 -131t128 -50q91 0 141.5 58.5z" />
    <glyph glyph-name="uni0474" unicode="&#x474;" horiz-adv-x="665" vert-adv-y="1400"
d="M612.5 578.5q-19.5 -15.5 -33.5 -58.5l-178 -520h-140l-254 664l134 48l191 -562l127 409q26 86 72 117.5t119 32.5l17 -113q-35 -2 -54.5 -17.5z" />
    <glyph glyph-name="uni0492" unicode="&#x492;" horiz-adv-x="545" vert-adv-y="1400"
d="M247 583v-164h165v-102h-165v-317h-138v317h-89v102h89v281h439v-117h-301z" />
    <glyph glyph-name="uni0496" unicode="&#x496;" horiz-adv-x="869" vert-adv-y="1400"
d="M872 114v-280h-110l-21 166h-31l-165 303q-24 -6 -58 -8v-295h-129v295q-34 2 -57 8l-197 -317l-99 67l194 302q-41 38 -63 92l-34 84q-16 38 -35 51.5t-52 15.5l20 107q60 -1 99 -24.5t64 -84.5l49 -113q17 -41 43.5 -58.5t67.5 -19.5v295h129v-295q42 2 69 19.5
t44 58.5l48 113q26 61 65 84.5t97 24.5l20 -107q-34 -2 -53 -15.5t-35 -51.5l-34 -84q-21 -52 -60 -88l145 -245h79z" />
    <glyph glyph-name="uni049A" unicode="&#x49a;" horiz-adv-x="659" vert-adv-y="1400"
d="M662 114v-280h-110l-21 166h-31v1l-1 -1l-202 309q-34 -9 -79 -9v-300h-138v700h138v-290q52 1 78 15t48 57l65 121q31 57 71 79.5t100 22.5l19 -111q-35 -2 -55.5 -14.5t-38.5 -47.5l-42 -84q-27 -52 -55 -78l175 -256h79z" />
    <glyph glyph-name="uni04A2" unicode="&#x4a2;" horiz-adv-x="711" vert-adv-y="1400"
d="M709 114v-280h-110l-21 166h-84v304h-276v-304h-138v700h138v-282h276v282h137v-586h78z" />
    <glyph glyph-name="uni04AE" unicode="&#x4ae;" horiz-adv-x="634" vert-adv-y="1400"
d="M513 709l114 -66l-240 -376v-267h-137v266l-243 377l119 67l194 -331z" />
    <glyph glyph-name="uni04B0" unicode="&#x4b0;" horiz-adv-x="634" vert-adv-y="1400"
d="M434 341h77v-102h-124v-239h-137v239h-125v102h77l-195 302l119 67l194 -341l193 340l114 -66z" />
    <glyph glyph-name="uni04B2" unicode="&#x4b2;" horiz-adv-x="649" vert-adv-y="1400"
d="M652 114v-280h-110l-21 166h-31l-184 264l-195 -275l-104 80l221 280l-213 287l113 76l179 -271l184 270l105 -75l-211 -278l190 -244h77z" />
    <glyph glyph-name="uni04B6" unicode="&#x4b6;" horiz-adv-x="651" vert-adv-y="1400"
d="M648 114v-280h-110l-21 166h-84v270q-77 -74 -190 -74q-60 0 -110 25.5t-79.5 75t-29.5 118.5v285h137v-271q0 -60 31.5 -89.5t85.5 -29.5q45 0 84.5 19t70.5 52v319h137v-586h78z" />
    <glyph glyph-name="uni04BA" unicode="&#x4ba;" horiz-adv-x="661" vert-adv-y="1400"
d="M517 456.5q50 -25.5 80 -75.5t30 -119v-262h-137v250q0 59 -31.5 88.5t-85.5 29.5q-45 0 -85.5 -19t-69.5 -52v-297h-138v700h138v-292q77 74 189 74q60 0 110 -25.5z" />
    <glyph glyph-name="uni04C0" unicode="&#x4c0;" horiz-adv-x="298" vert-adv-y="1400"
d="M80 700h138v-700h-138v700z" />
    <glyph glyph-name="uni04D8" unicode="&#x4d8;" horiz-adv-x="701" vert-adv-y="1400"
d="M579.5 616q81.5 -96 81.5 -269q0 -108 -39 -189t-110.5 -125.5t-165.5 -44.5q-151 0 -231 102.5t-80 325.5h483q-7 93 -51.5 138t-127.5 45q-52 0 -91 -10t-86 -33l-47 98q53 29 107.5 43.5t122.5 14.5q153 0 234.5 -96zM518 306h-339q7 -105 48.5 -154.5t118.5 -49.5
q158 0 172 204z" />
    <glyph glyph-name="uni04E2" unicode="&#x4e2;" horiz-adv-x="711" vert-adv-y="1400"
d="M631 700v-700h-137v437l-276 -334v-103h-138v700h138v-436l276 334v102h137zM516 780h-320v101h320v-101z" />
    <glyph glyph-name="uni04E8" unicode="&#x4e8;" horiz-adv-x="758" vert-adv-y="1400"
d="M559.5 664.5q76.5 -47.5 117.5 -130t41 -184.5q0 -104 -40.5 -186t-117.5 -129t-181 -47t-180.5 48t-117.5 130.5t-41 184.5q0 104 40.5 186t117.5 128.5t181 46.5t180.5 -47.5zM244.5 545q-50.5 -53 -62.5 -143h394q-12 87 -63 141.5t-134 54.5q-84 0 -134.5 -53z
M516.5 155.5q50.5 53.5 60.5 145.5h-395q12 -88 63 -143.5t134 -55.5q87 0 137.5 53.5z" />
    <glyph glyph-name="uni04EE" unicode="&#x4ee;" horiz-adv-x="614" vert-adv-y="1400"
d="M637 663l-245 -480q-37 -73 -72 -114.5t-75 -60.5t-93 -19q-80 0 -138 43l48 92q23 -13 42.5 -18t45.5 -5q36 0 62.5 24t62.5 91l-170 320q-16 31 -36 42.5t-50 12.5l24 110q62 0 103 -25t71 -85l125 -256l177 375zM497 780h-320v101h320v-101z" />
    <glyph glyph-name="uni0430" unicode="&#x430;" horiz-adv-x="605" vert-adv-y="1400"
d="M350 515.5q36 -16.5 62 -44.5v49h107v-365q0 -60 61 -60l-28 -100q-101 0 -134 68q-30 -35 -67.5 -55t-88.5 -20q-60 0 -113 32.5t-86 94t-33 142.5q0 78 33 140.5t88 98.5t120 36q43 0 79 -16.5zM197.5 380.5q-33.5 -43.5 -33.5 -120.5q0 -76 33 -119t91 -43
q29 0 55.5 11.5t45.5 30.5v253q-48 31 -99 31q-59 0 -92.5 -43.5z" />
    <glyph glyph-name="uni0431" unicode="&#x431;" horiz-adv-x="570" vert-adv-y="1400"
d="M433.5 462q46.5 -29 73.5 -83.5t27 -129.5q0 -85 -32.5 -144t-88 -88t-124.5 -29q-117 0 -183 77.5t-66 229.5q0 144 48.5 234t167.5 139q57 23 90 42.5t56 41.5l74 -74q-24 -32 -58 -54t-96 -46q-66 -26 -101 -60.5t-48 -95.5q66 69 158 69q56 0 102.5 -29zM373 133.5
q28 36.5 28 114.5q0 68 -26.5 103t-75.5 35q-67 0 -125 -55v-51q0 -94 29 -138.5t86 -44.5q56 0 84 36.5z" />
    <glyph glyph-name="uni0432" unicode="&#x432;" horiz-adv-x="523" vert-adv-y="1400"
d="M373.5 505.5q51.5 -20.5 79 -54t27.5 -73.5q0 -42 -23 -67t-69 -37q52 -11 81 -41t29 -77q0 -74 -65 -118.5t-185 -44.5q-96 0 -178 11v511q92 11 182 11q70 0 121.5 -20.5zM200 425v-113h72q78 0 78 56q0 29 -23 44t-67 15q-22 0 -60 -2zM200 222v-125q46 -2 65 -2
q101 0 101 66q0 30 -24 45.5t-67 15.5h-75z" />
    <glyph glyph-name="uni0433" unicode="&#x433;" horiz-adv-x="418" vert-adv-y="1400"
d="M434 520v-111h-234v-409h-130v520h364z" />
    <glyph glyph-name="uni0453" unicode="&#x453;" horiz-adv-x="418" vert-adv-y="1400"
d="M434 520v-111h-234v-409h-130v520h364zM346 803l55 -111l-229 -109l-45 79z" />
    <glyph glyph-name="uni0491" unicode="&#x491;" horiz-adv-x="418" vert-adv-y="1400"
d="M434 686v-277h-234v-409h-130v520h235l24 166h105z" />
    <glyph glyph-name="uni0434" unicode="&#x434;" horiz-adv-x="570" vert-adv-y="1400"
d="M558 109v-273h-103l-24 164h-297l-24 -164h-103v273h33q23 9 34.5 28.5t14.5 57.5l24 325h381v-411h64zM368 414h-137l-16 -193q-6 -78 -44 -112h197v305z" />
    <glyph glyph-name="uni0435" unicode="&#x435;" horiz-adv-x="535" vert-adv-y="1400"
d="M404.5 499.5q52.5 -32.5 79 -88t26.5 -122.5q0 -32 -4 -78h-343q8 -55 45 -85t100 -30q38 0 68.5 7t64.5 20l37 -95q-80 -40 -181 -40q-82 0 -142 33t-92.5 94t-32.5 145q0 77 31 139t87 97.5t129 35.5q75 0 127.5 -32.5zM159 308h227q-1 58 -29.5 89t-77.5 31
q-103 0 -120 -120z" />
    <glyph glyph-name="uni0451" unicode="&#x451;" horiz-adv-x="535" vert-adv-y="1400"
d="M404.5 499.5q52.5 -32.5 79 -88t26.5 -122.5q0 -32 -4 -78h-343q8 -55 45 -85t100 -30q38 0 68.5 7t64.5 20l37 -95q-80 -40 -181 -40q-82 0 -142 33t-92.5 94t-32.5 145q0 77 31 139t87 97.5t129 35.5q75 0 127.5 -32.5zM159 308h227q-1 58 -29.5 89t-77.5 31
q-103 0 -120 -120zM234 729.5q22 -22.5 22 -56.5t-22 -56t-56 -22q-33 0 -56 22.5t-23 55.5q0 34 22.5 56.5t56.5 22.5t56 -22.5zM444 729.5q23 -22.5 23 -56.5t-22.5 -56t-56.5 -22t-56 22t-22 56t22 56.5t56 22.5q33 0 56 -22.5z" />
    <glyph glyph-name="uni0436" unicode="&#x436;" horiz-adv-x="725" vert-adv-y="1400"
d="M471 210q-20 -5 -48 -7v-203h-122v203q-24 0 -47 6l-150 -225l-92 58l149 217q-24 25 -39 59l-26 58q-12 29 -27 38t-39 11l13 103q50 1 83.5 -17.5t57.5 -68.5l38 -83q13 -28 30.5 -39t48.5 -12v212h122v-212q30 1 48.5 12.5t31.5 38.5l39 82q24 49 57.5 68.5t81.5 18.5
l14 -103q-25 -2 -40 -11t-27 -38l-26 -58q-12 -30 -39 -57l150 -219l-93 -58z" />
    <glyph glyph-name="uni0437" unicode="&#x437;" horiz-adv-x="446" vert-adv-y="1400"
d="M312 511q45 -21 69 -55.5t24 -73.5q0 -90 -97 -114q48 -7 80.5 -38t32.5 -84q0 -75 -61.5 -116.5t-159.5 -41.5q-117 0 -200 60l51 87q34 -20 66 -30.5t74 -10.5q96 0 96 62q0 29 -20.5 43t-64.5 14h-99v97h94q78 0 78 59q0 28 -22 44t-60 16t-66 -8t-61 -25l-49 84
q41 26 86 39t103 13q61 0 106 -21z" />
    <glyph glyph-name="uni0438" unicode="&#x438;" horiz-adv-x="593" vert-adv-y="1400"
d="M523 520v-520h-127v318l-199 -250v-68h-127v520h127v-320l199 251v69h127z" />
    <glyph glyph-name="uni0439" unicode="&#x439;" horiz-adv-x="593" vert-adv-y="1400"
d="M181.5 629q-48.5 35 -67.5 110l85 24q22 -71 99 -71t98 71l85 -24q-18 -75 -66.5 -110t-116.5 -35t-116.5 35zM523 520v-520h-127v318l-199 -250v-68h-127v520h127v-320l199 251v69h127z" />
    <glyph glyph-name="uni043A" unicode="&#x43a;" horiz-adv-x="539" vert-adv-y="1400"
d="M441 -16l-175 231q-33 -9 -66 -8v-207h-130v520h130v-209q41 1 60.5 10.5t34.5 36.5l55 95q25 42 57 59t79 16l14 -103q-23 -2 -37.5 -11t-30.5 -38l-34 -61q-15 -26 -33 -43l167 -213z" />
    <glyph glyph-name="uni045C" unicode="&#x45c;" horiz-adv-x="539" vert-adv-y="1400"
d="M441 -16l-175 231q-33 -9 -66 -8v-207h-130v520h130v-209q41 1 60.5 10.5t34.5 36.5l55 95q25 42 57 59t79 16l14 -103q-23 -2 -37.5 -11t-30.5 -38l-34 -61q-15 -26 -33 -43l167 -213zM372 803l55 -111l-229 -109l-45 79z" />
    <glyph glyph-name="uni043B" unicode="&#x43b;" horiz-adv-x="574" vert-adv-y="1400"
d="M504 0h-130v411h-167l-20 -274q-4 -68 -33 -103.5t-95 -55.5l-44 91q25 11 37 29t14 56l22 366h416v-520z" />
    <glyph glyph-name="uni043C" unicode="&#x43c;" horiz-adv-x="692" vert-adv-y="1400"
d="M174 143q-6 -70 -30 -104.5t-81 -56.5l-48 92q21 10 31 28.5t14 62.5l29 355h160l88 -291l94 291h157l53 -520l-124 -11l-36 390l-95 -272h-104l-88 272z" />
    <glyph glyph-name="uni043D" unicode="&#x43d;" horiz-adv-x="585" vert-adv-y="1400"
d="M200 215v-215h-130v520h130v-196h185v196h130v-520h-130v215h-185z" />
    <glyph glyph-name="uni043E" unicode="&#x43e;" horiz-adv-x="595" vert-adv-y="1400"
d="M435.5 497.5q60.5 -34.5 94.5 -96.5t34 -141q0 -82 -35 -143.5t-95.5 -95t-135.5 -33.5q-78 0 -139 34.5t-95 96.5t-34 141q0 82 35 143.5t96 95t137 33.5q77 0 137.5 -34.5zM199 379q-35 -43 -35 -120q0 -69 36.5 -115t97.5 -46q63 0 98 43t35 120q0 69 -36.5 115
t-96.5 46q-64 0 -99 -43z" />
    <glyph glyph-name="uni043F" unicode="&#x43f;" horiz-adv-x="579" vert-adv-y="1400"
d="M200 411v-411h-130v521h438v-521h-130v411h-178z" />
    <glyph glyph-name="uni0440" unicode="&#x440;" horiz-adv-x="601" vert-adv-y="1400"
d="M456.5 500q51.5 -32 83 -92t31.5 -142q0 -80 -31.5 -143.5t-84 -99t-111.5 -35.5q-73 0 -128 52v-260h-130v578q0 33 -17 47.5t-44 14.5l28 100q101 0 134 -68q29 37 69.5 58.5t89.5 21.5q59 0 110.5 -32zM262 411.5q-27 -12.5 -46 -33.5v-237q41 -43 100 -43
q55 0 88 43.5t33 121.5q0 77 -31 119t-84 42q-33 0 -60 -12.5z" />
    <glyph glyph-name="uni0441" unicode="&#x441;" horiz-adv-x="471" vert-adv-y="1400"
d="M305 420q-66 0 -103.5 -42.5t-37.5 -121.5q0 -76 35.5 -116t100.5 -40q35 0 62 6.5t54 18.5l38 -95q-39 -21 -76.5 -31.5t-83.5 -10.5q-81 0 -141 33.5t-91.5 93.5t-31.5 139q0 78 32 141.5t92 100t141 36.5q86 0 159 -42l-42 -93q-49 23 -107 23z" />
    <glyph glyph-name="uni0442" unicode="&#x442;" horiz-adv-x="462" vert-adv-y="1400"
d="M453 520v-111h-157v-409h-130v409h-157v111h444z" />
    <glyph glyph-name="uni0443" unicode="&#x443;" horiz-adv-x="537" vert-adv-y="1400"
d="M532 484l-190 -512q-43 -115 -99 -160t-135 -45q-30 0 -57 7t-46 19l30 95q33 -14 71 -14q41 0 70.5 26.5t53.5 91.5l17 46h-49l-201 446l117 46l167 -398l137 398z" />
    <glyph glyph-name="uni045E" unicode="&#x45e;" horiz-adv-x="537" vert-adv-y="1400"
d="M532 484l-190 -512q-43 -115 -99 -160t-135 -45q-30 0 -57 7t-46 19l30 95q33 -14 71 -14q41 0 70.5 26.5t53.5 91.5l17 46h-49l-201 446l117 46l167 -398l137 398zM464 712q-28 -54 -76.5 -85.5t-117.5 -31.5t-118 31.5t-77 85.5l77 51q22 -31 49.5 -47.5t68.5 -16.5
q40 0 67.5 16t50.5 48z" />
    <glyph glyph-name="uni0444" unicode="&#x444;" horiz-adv-x="799" vert-adv-y="1400"
d="M673.5 500q43.5 -32 69.5 -92t26 -142q0 -80 -27 -143.5t-73 -99t-100 -35.5q-66 0 -105 46q-1 -87 -8 -148t-23 -118l-120 19q12 56 17.5 112t5.5 140q-44 -51 -111 -51q-52 0 -97 32t-71.5 93t-26.5 143q0 79 28.5 142.5t75 98.5t98.5 35q62 0 104 -42v28
q0 76 6.5 129.5t21.5 102.5l120 -16q-11 -50 -15.5 -97t-4.5 -121v-33q47 49 114 49q52 0 95.5 -32zM336 132v267q-32 27 -75 27q-48 0 -73.5 -42t-25.5 -125q0 -163 91 -163q49 0 83 36zM637 263q0 163 -90 163q-44 0 -83 -29v-271q27 -30 73 -30q100 0 100 167z" />
    <glyph glyph-name="uni0445" unicode="&#x445;" horiz-adv-x="511" vert-adv-y="1400"
d="M13 452l99 78l142 -186l142 186l94 -78l-161 -184l176 -199l-99 -80l-152 195l-153 -195l-94 80l172 195z" />
    <glyph glyph-name="uni0447" unicode="&#x447;" horiz-adv-x="551" vert-adv-y="1400"
d="M481 520v-520h-130v185q-60 -57 -142 -57q-48 0 -88 21t-63.5 63t-23.5 102v206h130v-196q0 -45 19.5 -66t60.5 -21q60 0 107 40v243h130z" />
    <glyph glyph-name="uni0446" unicode="&#x446;" horiz-adv-x="578" vert-adv-y="1400"
d="M594 110v-276h-105l-23 166h-396v521h130v-411h178v411h130v-411h86z" />
    <glyph glyph-name="uni0448" unicode="&#x448;" horiz-adv-x="838" vert-adv-y="1400"
d="M768 520v-520h-698v520h130v-410h157v410h125v-410h156v410h130z" />
    <glyph glyph-name="uni0449" unicode="&#x449;" horiz-adv-x="838" vert-adv-y="1400"
d="M855 110v-276h-105l-23 166h-657v520h130v-410h157v410h125v-410h156v410h130v-410h87z" />
    <glyph glyph-name="uni045F" unicode="&#x45f;" horiz-adv-x="578" vert-adv-y="1400"
d="M508 0h-155v-166h-105l-23 166h-155v521h130v-411h178v411h130v-521z" />
    <glyph glyph-name="uni044C" unicode="&#x44c;" horiz-adv-x="528" vert-adv-y="1400"
d="M200 340q52 5 79 5q111 0 165 -48t54 -120q0 -88 -64.5 -136t-185.5 -48q-76 0 -178 10v517h130v-180zM200 245v-148q36 -2 59 -2q107 0 107 81q0 35 -24 54t-67 19q-40 0 -75 -4z" />
    <glyph glyph-name="uni044A" unicode="&#x44a;" horiz-adv-x="613" vert-adv-y="1400"
d="M529 297q54 -48 54 -120q0 -88 -64.5 -136t-185.5 -48q-76 0 -178 10v409h-157v108h287v-180q53 5 79 5q111 0 165 -48zM451 176q0 35 -24 54t-67 19q-40 0 -75 -4v-148q36 -2 59 -2q107 0 107 81z" />
    <glyph glyph-name="uni044B" unicode="&#x44b;" horiz-adv-x="733" vert-adv-y="1400"
d="M200 340q47 5 74 5q106 0 157.5 -48t51.5 -120q0 -88 -63 -136t-178 -48q-85 0 -172 10v517h130v-180zM532 0v520h130v-520h-130zM200 245v-148q40 -2 58 -2q46 0 72 20.5t26 60.5q0 35 -23.5 54t-63.5 19q-37 0 -69 -4z" />
    <glyph glyph-name="uni0459" unicode="&#x459;" horiz-adv-x="798" vert-adv-y="1400"
d="M716.5 297q51.5 -48 51.5 -120q0 -87 -63 -135.5t-184 -48.5q-86 0 -171 10v408h-143l-20 -274q-4 -68 -33 -103.5t-95 -55.5l-44 91q25 11 37 29t14 56l22 366h392v-180q53 5 79 5q106 0 157.5 -48zM637 175q0 36 -23 55t-65 19q-37 0 -69 -4v-148q36 -2 58 -2
q99 0 99 80z" />
    <glyph glyph-name="uni045A" unicode="&#x45a;" horiz-adv-x="837" vert-adv-y="1400"
d="M753.5 292.5q53.5 -47.5 53.5 -118.5q0 -86 -64.5 -133.5t-185.5 -47.5q-77 0 -177 10v221h-180v-224h-130v520h130v-192h180v192h130v-186q8 1 31.5 3.5t47.5 2.5q111 0 164.5 -47.5zM649 114.5q26 19.5 26 58.5q0 34 -24 52.5t-67 18.5q-24 0 -74 -4v-143q40 -2 63 -2
q50 0 76 19.5z" />
    <glyph glyph-name="uni0455" unicode="&#x455;" horiz-adv-x="452" vert-adv-y="1400"
d="M138 106.5q35 -9.5 77 -9.5q43 0 65.5 13t22.5 37q0 16 -9.5 27t-34.5 22t-73 26q-80 24 -117 60.5t-37 97.5q0 69 55.5 110.5t152.5 41.5q102 0 185 -45l-50 -89q-32 14 -63 21.5t-70 7.5t-58 -11.5t-19 -31.5q0 -22 22 -37.5t88 -34.5q85 -25 123.5 -62t38.5 -97
q0 -78 -58 -121.5t-163 -43.5q-62 0 -112 14t-94 42l56 91q37 -19 72 -28.5z" />
    <glyph glyph-name="uni0454" unicode="&#x454;" horiz-adv-x="473" vert-adv-y="1400"
d="M358.5 102q24.5 7 49.5 18l42 -91q-66 -41 -154 -41q-80 0 -139 34t-90.5 96t-31.5 143q0 125 68 198t188 73q91 0 160 -42l-41 -90q-53 25 -115 25q-56 0 -88 -28.5t-39 -90.5h189v-94h-189q7 -59 41.5 -88t92.5 -29q32 0 56.5 7z" />
    <glyph glyph-name="uni044D" unicode="&#x44d;" horiz-adv-x="472" vert-adv-y="1400"
d="M373.5 459q63.5 -73 63.5 -198q0 -79 -32 -141t-90 -97t-133 -35q-50 0 -88 10.5t-72 30.5l42 92q52 -26 106 -26q122 0 134 117h-189v94h189q-6 63 -35.5 91t-81.5 28q-35 0 -62.5 -6.5t-56.5 -19.5l-39 91q76 42 168 42q113 0 176.5 -73z" />
    <glyph glyph-name="uni0456" unicode="&#x456;" horiz-adv-x="271" vert-adv-y="1400"
d="M70 0v520h130v-520h-130zM196 740.5q25 -24.5 25 -60.5q0 -37 -24.5 -61t-61.5 -24q-36 0 -61 24.5t-25 60.5q0 37 24.5 61t61.5 24q36 0 61 -24.5z" />
    <glyph glyph-name="uni0457" unicode="&#x457;" horiz-adv-x="271" vert-adv-y="1400"
d="M70 0v520h130v-520h-130zM86 729.5q22 -22.5 22 -56.5t-22 -56t-56 -22q-33 0 -56 22.5t-23 55.5q0 34 22.5 56.5t56.5 22.5t56 -22.5zM296 729.5q23 -22.5 23 -56.5t-22.5 -56t-56.5 -22t-56 22t-22 56t22 56.5t56 22.5q33 0 56 -22.5z" />
    <glyph glyph-name="uni0458" unicode="&#x458;" horiz-adv-x="276" vert-adv-y="1400"
d="M206 520v-566q0 -91 -53.5 -138.5t-136.5 -47.5q-65 0 -112 25l33 95q30 -10 64 -10q36 0 55.5 22t19.5 65v555h130zM202 740.5q25 -24.5 25 -60.5q0 -37 -24.5 -61t-61.5 -24q-36 0 -61 24.5t-25 60.5q0 37 24.5 61t61.5 24q36 0 61 -24.5z" />
    <glyph glyph-name="uni045B" unicode="&#x45b;" horiz-adv-x="593" vert-adv-y="1400"
d="M481 478q46 -54 46 -145v-333h-130v325q0 47 -20 72.5t-57 25.5q-62 0 -117 -74v-349h-130v595h-56v87h56v58h130v-58h132v-87h-132v-139q27 36 62 56t85 20q85 0 131 -54z" />
    <glyph glyph-name="uni044E" unicode="&#x44e;" horiz-adv-x="801" vert-adv-y="1400"
d="M647.5 498q55.5 -34 86.5 -96t31 -142q0 -82 -32.5 -144t-88.5 -95t-124 -33q-100 0 -162.5 63t-78.5 166h-79v-217h-130v520h130v-197h82q18 96 81 152.5t157 56.5q72 0 127.5 -34zM605 138q27 41 27 123q0 74 -28.5 118t-83.5 44q-59 0 -86 -41t-27 -123
q0 -75 28 -118.5t85 -43.5q58 0 85 41z" />
    <glyph glyph-name="uni044F" unicode="&#x44f;" horiz-adv-x="543" vert-adv-y="1400"
d="M473 516v-516h-130v177q-21 -4 -58 -4q-22 0 -33 1l-122 -191l-96 57l107 160q-45 21 -70.5 58t-25.5 84q0 86 64.5 135.5t185.5 49.5q87 0 178 -11zM343 423q-34 2 -57 2q-53 0 -81 -21t-28 -58q0 -71 94 -71q41 0 72 4v144z" />
    <glyph glyph-name="uni0452" unicode="&#x452;" horiz-adv-x="593" vert-adv-y="1400"
d="M528 20v-66q0 -91 -54 -138.5t-137 -47.5q-63 0 -112 25l32 98q30 -13 66 -13t55.5 22t19.5 65v35h-1v325q0 47 -20 72.5t-57 25.5q-62 0 -117 -74v-349h-130v595h-56v87h56v58h130v-58h132v-87h-132v-139q27 36 62 56t85 20q85 0 131 -54t46 -145v-313h1z" />
    <glyph glyph-name="uni0463" unicode="&#x463;" horiz-adv-x="541" vert-adv-y="1400"
d="M454.5 332.5q55.5 -53.5 55.5 -136.5q0 -101 -65 -152t-191 -51q-96 0 -181 10v476h-56v87h56v100h130v-100h139v-87h-139v-99q7 1 31.5 3.5t51.5 2.5q113 0 168.5 -53.5zM350 118q28 23 28 76q0 47 -26.5 69.5t-70.5 22.5q-45 0 -78 -4v-185q42 -2 66 -2q53 0 81 23z
" />
    <glyph glyph-name="uni0473" unicode="&#x473;" horiz-adv-x="595" vert-adv-y="1400"
d="M435.5 497.5q60.5 -34.5 94.5 -96.5t34 -141q0 -82 -35 -143.5t-95.5 -95t-135.5 -33.5q-78 0 -139 34.5t-95 96.5t-34 141q0 82 35 143.5t96 95t137 33.5q77 0 137.5 -34.5zM203 389q-35 -34 -42 -97q33 28 72 28q19 0 35 -4.5t38 -13.5q36 -15 59 -15q18 0 33 5.5
t33 17.5q-12 52 -47 82.5t-86 30.5q-60 0 -95 -34zM391 130q35 33 43 94q-35 -26 -70 -26q-20 0 -36.5 4.5t-35.5 13.5q-36 15 -58 15q-35 0 -69 -24q13 -50 48 -80t85 -30q58 0 93 33z" />
    <glyph glyph-name="uni0475" unicode="&#x475;" horiz-adv-x="544" vert-adv-y="1400"
d="M4 488l118 43l149 -398l88 258q26 80 67.5 109.5t109.5 30.5l13 -106q-32 -1 -48 -15.5t-32 -54.5l-136 -355h-128z" />
    <glyph glyph-name="uni0493" unicode="&#x493;" horiz-adv-x="428" vert-adv-y="1400"
d="M211 409v-95h127v-92h-127v-222h-130v222h-84v92h84v206h364v-111h-234z" />
    <glyph glyph-name="uni0497" unicode="&#x497;" horiz-adv-x="750" vert-adv-y="1400"
d="M750 110v-276h-105l-23 166h-28l-130 210q-14 -4 -41 -6v-204h-122v204q-25 2 -44 7l-153 -227l-92 58l151 218q-32 28 -46 63l-22 53q-12 29 -27.5 38t-38.5 11l14 103q50 1 83.5 -16t52.5 -59l44 -94q13 -28 30.5 -38.5t47.5 -10.5v210h122v-210q30 0 47.5 10.5
t30.5 38.5l42 94q19 43 53 59.5t85 15.5l14 -103q-24 -2 -40 -11t-28 -38l-23 -53q-15 -35 -43 -62l105 -151h84z" />
    <glyph glyph-name="uni049B" unicode="&#x49b;" horiz-adv-x="554" vert-adv-y="1400"
d="M554 110v-276h-105l-24 166h-27v1l-2 -1l-138 210q-29 -6 -58 -5v-205h-130v520h130v-206q41 1 61 10t34 34l55 95q25 43 56.5 59.5t79.5 15.5l14 -103q-23 -2 -37 -11.5t-30 -37.5l-34 -61q-19 -31 -38 -49l110 -156h83z" />
    <glyph glyph-name="uni04A3" unicode="&#x4a3;" horiz-adv-x="585" vert-adv-y="1400"
d="M601 110v-276h-105l-23 166h-88v215h-185v-215h-130v520h130v-196h185v196h130v-410h86z" />
    <glyph glyph-name="uni04AF" unicode="&#x4af;" horiz-adv-x="539" vert-adv-y="1400"
d="M535 488l-201 -488v-220h-130v220l-200 488l118 43l147 -415l151 414z" />
    <glyph glyph-name="uni04B1" unicode="&#x4b1;" horiz-adv-x="539" vert-adv-y="1400"
d="M362 67h93v-92h-121v-195h-130v195h-120v92h93l-173 421l118 43l147 -415l151 414l115 -42z" />
    <glyph glyph-name="uni04B3" unicode="&#x4b3;" horiz-adv-x="541" vert-adv-y="1400"
d="M541 110v-276h-105l-24 166h-27l-135 181l-149 -192l-94 80l170 191l-164 192l99 78l140 -189l144 189l94 -78l-165 -186l143 -156h73z" />
    <glyph glyph-name="uni04B7" unicode="&#x4b7;" horiz-adv-x="551" vert-adv-y="1400"
d="M568 110v-276h-105l-23 166h-89v185q-60 -57 -142 -57q-48 0 -88 21t-63.5 63t-23.5 102v206h130v-196q0 -45 19.5 -66t60.5 -21q60 0 107 40v243h130v-410h87z" />
    <glyph glyph-name="uni04BB" unicode="&#x4bb;" horiz-adv-x="551" vert-adv-y="1400"
d="M430 356q40 -21 64 -63t24 -102v-191h-130v181q0 45 -20 66t-60 21q-61 0 -108 -40v-228h-130v520h130v-200q62 57 142 57q48 0 88 -21z" />
    <glyph glyph-name="uni04CF" unicode="&#x4cf;" horiz-adv-x="357" vert-adv-y="1400"
d="M190 181q0 -41 19.5 -62t56.5 -21q26 0 63 11l28 -96q-47 -25 -113 -25q-79 0 -131.5 43.5t-52.5 127.5v581h130v-559z" />
    <glyph glyph-name="uni04D9" unicode="&#x4d9;" horiz-adv-x="535" vert-adv-y="1400"
d="M132 20.5q-53 32.5 -80 88t-27 122.5q0 40 5 78h342q-5 59 -34 88t-89 29q-38 0 -69.5 -7t-66.5 -20l-33 93q83 40 178 40q121 0 184 -71.5t63 -200.5q0 -77 -30.5 -139t-86 -97.5t-128.5 -35.5q-75 0 -128 32.5zM337.5 121q30.5 29 38.5 91h-226q1 -58 30 -89t78 -31
t79.5 29z" />
    <glyph glyph-name="uni04E3" unicode="&#x4e3;" horiz-adv-x="593" vert-adv-y="1400"
d="M523 520v-520h-127v318l-199 -250v-68h-127v520h127v-320l199 251v69h127zM458 610h-320v101h320v-101z" />
    <glyph glyph-name="uni04E9" unicode="&#x4e9;" horiz-adv-x="595" vert-adv-y="1400"
d="M435.5 497.5q60.5 -34.5 94.5 -96.5t34 -141q0 -82 -35 -143.5t-95.5 -95t-135.5 -33.5q-78 0 -139 34.5t-95 96.5t-34 141q0 82 35 143.5t96 95t137 33.5q77 0 137.5 -34.5zM205 393q-35 -30 -45 -88h274q-10 57 -45 87.5t-91 30.5q-58 0 -93 -30zM389 126q35 29 45 84
h-272q11 -53 46.5 -83t89.5 -30q56 0 91 29z" />
    <glyph glyph-name="uni04EF" unicode="&#x4ef;" horiz-adv-x="537" vert-adv-y="1400"
d="M532 484l-190 -512q-43 -115 -99 -160t-135 -45q-30 0 -57 7t-46 19l30 95q33 -14 71 -14q41 0 70.5 26.5t53.5 91.5l17 46h-49l-201 446l117 46l167 -398l137 398zM430 610h-320v101h320v-101z" />
    <glyph glyph-name="uni0430.sc" horiz-adv-x="573" vert-adv-y="1400"
d="M566 32l-119 -43l-54 139h-219l-54 -139l-113 43l218 514h127zM357 230l-71 203l-76 -203h147z" />
    <glyph glyph-name="uni0431.sc" horiz-adv-x="543" vert-adv-y="1400"
d="M445.5 308q62.5 -45 62.5 -128q0 -90 -66.5 -138t-183.5 -48q-86 0 -178 11v541h370v-107h-240v-90q42 4 73 4q100 0 162.5 -45zM343.5 116.5q26.5 21.5 26.5 61.5q0 37 -24.5 56t-70.5 19q-38 0 -65 -3v-152q25 -3 62 -3q45 0 71.5 21.5z" />
    <glyph glyph-name="uni0432.sc" horiz-adv-x="546" vert-adv-y="1400"
d="M379 531.5q54 -20.5 82.5 -54.5t28.5 -76t-24.5 -69t-74.5 -42q60 -15 89.5 -45.5t29.5 -83.5q0 -50 -30.5 -87.5t-88 -58.5t-133.5 -21q-99 0 -178 11v536q112 11 171 11q74 0 128 -20.5zM210 449v-121h61q41 0 65.5 16.5t24.5 44.5q0 31 -24.5 47t-71.5 16
q-28 0 -55 -3zM210 235v-137q16 -2 62 -2q48 0 76 17.5t28 52.5q0 34 -26.5 51.5t-74.5 17.5h-65z" />
    <glyph glyph-name="uni0433.sc" horiz-adv-x="445" vert-adv-y="1400"
d="M448 546v-110h-238v-436h-130v546h368z" />
    <glyph glyph-name="uni0453.sc" horiz-adv-x="445" vert-adv-y="1400"
d="M448 546v-110h-238v-436h-130v546h368zM370 828l55 -111l-229 -109l-45 79z" />
    <glyph glyph-name="uni0491.sc" horiz-adv-x="445" vert-adv-y="1400"
d="M448 712v-276h-238v-436h-130v546h239l23 166h106z" />
    <glyph glyph-name="uni0434.sc" horiz-adv-x="581" vert-adv-y="1400"
d="M557 114v-280h-110l-21 166h-293l-21 -166h-110v280h42q20 2 31 20.5t14 73.5l23 338h381v-432h64zM363 438h-128l-15 -207q-3 -44 -13.5 -71.5t-30.5 -45.5h187v324z" />
    <glyph glyph-name="uni0435.sc" horiz-adv-x="495" vert-adv-y="1400"
d="M457 546v-106h-247v-110h211v-98h-211v-126h247v-106h-377v546h377z" />
    <glyph glyph-name="uni0451.sc" horiz-adv-x="495" vert-adv-y="1400"
d="M457 546v-106h-247v-110h211v-98h-211v-126h247v-106h-377v546h377zM226 754.5q22 -22.5 22 -56.5t-22 -56t-56 -22q-33 0 -56 22.5t-23 55.5q0 34 22.5 56.5t56.5 22.5t56 -22.5zM436 754.5q23 -22.5 23 -56.5t-22.5 -56t-56.5 -22t-56 22t-22 56t22 56.5t56 22.5
q33 0 56 -22.5z" />
    <glyph glyph-name="uni0436.sc" horiz-adv-x="719" vert-adv-y="1400"
d="M460 229q-22 -5 -43 -5v-224h-121v224q-16 0 -40 4l-158 -240l-93 62l156 225q-16 12 -27.5 27t-21.5 39l-24 54q-13 31 -29.5 43t-44.5 13l19 99q51 0 85 -19t56 -68l39 -86q26 -52 83 -53v222h121v-222q59 2 83 53l39 86q22 49 56 68t85 19l18 -99q-29 -1 -45.5 -13
t-29.5 -43l-24 -54q-17 -42 -45 -63l160 -228l-94 -62z" />
    <glyph glyph-name="uni0437.sc" horiz-adv-x="458" vert-adv-y="1400"
d="M305.5 535q46.5 -20 72 -54t25.5 -74q0 -48 -26.5 -75t-76.5 -40q122 -28 122 -131q0 -79 -62.5 -124.5t-165.5 -45.5q-118 0 -194 60l60 78q34 -19 63.5 -28t66.5 -9q43 0 69 17.5t26 52.5q0 74 -122 74h-55v96h54q108 0 108 66q0 27 -22.5 42.5t-62.5 15.5
q-34 0 -61.5 -7t-55.5 -23l-52 79q76 50 183 50q60 0 106.5 -20z" />
    <glyph glyph-name="uni0438.sc" horiz-adv-x="623" vert-adv-y="1400"
d="M543 546v-546h-131v314l-202 -231v-83h-130v546h130v-318l202 233v85h131z" />
    <glyph glyph-name="uni0439.sc" horiz-adv-x="623" vert-adv-y="1400"
d="M195.5 655q-48.5 35 -67.5 110l85 24q22 -71 99 -71t98 71l85 -24q-18 -75 -66.5 -110t-116.5 -35t-116.5 35zM543 546v-546h-131v314l-202 -231v-83h-130v546h130v-318l202 233v85h131z" />
    <glyph glyph-name="uni043A.sc" horiz-adv-x="558" vert-adv-y="1400"
d="M460 -12l-178 242q-30 -7 -72 -6v-224h-130v546h130v-220q43 1 61 11t35 40l53 90q26 45 61 64.5t85 18.5l17 -103q-29 -2 -46 -12.5t-31 -38.5l-29 -50q-23 -41 -39 -58l178 -231z" />
    <glyph glyph-name="uni045C.sc" horiz-adv-x="558" vert-adv-y="1400"
d="M460 -12l-178 242q-30 -7 -72 -6v-224h-130v546h130v-220q43 1 61 11t35 40l53 90q26 45 61 64.5t85 18.5l17 -103q-29 -2 -46 -12.5t-31 -38.5l-29 -50q-23 -41 -39 -58l178 -231zM386 828l55 -111l-229 -109l-45 79z" />
    <glyph glyph-name="uni043B.sc" horiz-adv-x="586" vert-adv-y="1400"
d="M216 436l-21 -280q-6 -78 -34.5 -115.5t-95.5 -58.5l-50 95q25 13 36.5 33.5t15.5 69.5l24 366h414v-546h-130v436h-159z" />
    <glyph glyph-name="uni043C.sc" horiz-adv-x="737" vert-adv-y="1400"
d="M657 0h-131v381l-108 -269h-106l-107 269v-381h-125v546h170l116 -306l120 306h171v-546z" />
    <glyph glyph-name="uni043D.sc" horiz-adv-x="623" vert-adv-y="1400"
d="M210 229v-229h-130v546h130v-212h202v212h131v-546h-131v229h-202z" />
    <glyph glyph-name="uni043E.sc" horiz-adv-x="638" vert-adv-y="1400"
d="M468.5 518q63.5 -37 96.5 -101t33 -145q0 -82 -33 -145.5t-96 -99.5t-150 -36q-86 0 -149 37t-96.5 101t-33.5 145q0 82 33 145.5t96 99.5t150 36q86 0 149.5 -37zM211.5 402q-37.5 -48 -37.5 -128q0 -76 38 -127t107 -51q70 0 108 48t38 128q0 76 -38.5 127t-107.5 51
q-70 0 -107.5 -48z" />
    <glyph glyph-name="uni043F.sc" horiz-adv-x="613" vert-adv-y="1400"
d="M210 440v-440h-130v546h453v-546h-131v440h-192z" />
    <glyph glyph-name="uni0440.sc" horiz-adv-x="513" vert-adv-y="1400"
d="M250 552q120 0 184.5 -51t64.5 -133q0 -91 -68 -141.5t-180 -50.5q-15 0 -41 2v-178h-130v542q88 10 170 10zM339 300.5q28 22.5 28 64.5q0 41 -28 63t-79 22q-20 0 -50 -2v-169q14 -1 47 -1q54 0 82 22.5z" />
    <glyph glyph-name="uni0441.sc" horiz-adv-x="505" vert-adv-y="1400"
d="M214.5 144q40.5 -46 111.5 -46q34 0 60.5 6.5t56.5 19.5l36 -92q-73 -41 -165 -41q-81 0 -143 33t-96.5 96t-34.5 151q0 84 35 148.5t98.5 100t145.5 35.5q46 0 82 -9t71 -25l-38 -95q-27 11 -52 17t-58 6q-68 0 -109 -45t-41 -130q0 -84 40.5 -130z" />
    <glyph glyph-name="uni0442.sc" horiz-adv-x="471" vert-adv-y="1400"
d="M464 546v-107h-163v-439h-130v439h-164v107h457z" />
    <glyph glyph-name="uni0443.sc" horiz-adv-x="527" vert-adv-y="1400"
d="M546 509l-194 -363q-45 -83 -93 -118.5t-115 -35.5q-71 0 -120 37l45 86q20 -10 35.5 -14.5t36.5 -4.5q29 0 49.5 15t45.5 57l-136 233q-14 25 -30.5 34.5t-41.5 9.5l23 102q56 0 92 -21t62 -72l95 -176l138 277z" />
    <glyph glyph-name="uni045E.sc" horiz-adv-x="527" vert-adv-y="1400"
d="M467 765q-18 -75 -66.5 -110t-116.5 -35t-116.5 35t-67.5 110l85 24q22 -71 99 -71t98 71zM546 509l-194 -363q-45 -83 -93 -118.5t-115 -35.5q-71 0 -120 37l45 86q20 -10 35.5 -14.5t36.5 -4.5q29 0 49.5 15t45.5 57l-136 233q-14 25 -30.5 34.5t-41.5 9.5l23 102
q56 0 92 -21t62 -72l95 -176l138 277z" />
    <glyph glyph-name="uni0444.sc" horiz-adv-x="702" vert-adv-y="1400"
d="M640.5 160.5q-31.5 -52.5 -89 -87t-135.5 -45.5v-67h-130v67q-119 14 -187.5 78.5t-68.5 169.5q0 63 31.5 115.5t89.5 87t135 44.5v62h130v-62q119 -14 187.5 -77.5t68.5 -168.5q0 -64 -31.5 -116.5zM199 168q32 -37 97 -46v309q-68 -10 -98.5 -48t-30.5 -107
q0 -71 32 -108zM504 169q31 37 31 108t-31.5 108t-96.5 46v-309q66 10 97 47z" />
    <glyph glyph-name="uni0445.sc" horiz-adv-x="521" vert-adv-y="1400"
d="M13 488l107 69l137 -201l141 202l99 -70l-166 -201l183 -222l-106 -75l-150 215l-153 -215l-98 75l177 211z" />
    <glyph glyph-name="uni0447.sc" horiz-adv-x="562" vert-adv-y="1400"
d="M482 546v-546h-131v199q-60 -53 -146 -53q-49 0 -90.5 20.5t-66 59.5t-24.5 93v227h130v-216q0 -78 84 -78q31 0 60.5 11.5t52.5 32.5v250h131z" />
    <glyph glyph-name="uni0446.sc" horiz-adv-x="610" vert-adv-y="1400"
d="M615 110v-276h-105l-23 166h-407v546h130v-436h190v436h130v-436h85z" />
    <glyph glyph-name="uni0448.sc" horiz-adv-x="832" vert-adv-y="1400"
d="M752 546v-546h-672v546h130v-437h143v437h125v-437h143v437h131z" />
    <glyph glyph-name="uni0449.sc" horiz-adv-x="832" vert-adv-y="1400"
d="M838 110v-276h-105l-23 166h-630v546h130v-437h143v437h125v-437h143v437h131v-436h86z" />
    <glyph glyph-name="uni045F.sc" horiz-adv-x="610" vert-adv-y="1400"
d="M530 0h-161v-166h-105l-23 166h-161v546h130v-436h190v436h130v-546z" />
    <glyph glyph-name="uni044C.sc" horiz-adv-x="523" vert-adv-y="1400"
d="M210 361q42 4 73 4q101 0 165.5 -48.5t64.5 -131.5q0 -93 -67 -142t-188 -49q-90 0 -178 11v541h130v-185zM210 260v-162q51 -3 62 -3q49 0 76.5 22.5t27.5 65.5q0 39 -25.5 59.5t-75.5 20.5q-38 0 -65 -3z" />
    <glyph glyph-name="uni044A.sc" horiz-adv-x="613" vert-adv-y="1400"
d="M538.5 316.5q64.5 -48.5 64.5 -131.5q0 -93 -67 -142t-188 -49q-90 0 -178 11v434h-163v107h293v-185q42 4 73 4q101 0 165.5 -48.5zM438.5 117.5q27.5 22.5 27.5 65.5q0 39 -25.5 59.5t-75.5 20.5q-38 0 -65 -3v-162q51 -3 62 -3q49 0 76.5 22.5z" />
    <glyph glyph-name="uni044B.sc" horiz-adv-x="789" vert-adv-y="1400"
d="M210 361q42 4 73 4q61 0 111.5 -21.5t80.5 -62.5t30 -96q0 -93 -66.5 -142t-180.5 -49q-90 0 -178 11v541h130v-185zM708 0h-130v546h130v-546zM210 260v-162q51 -3 59 -3q46 0 72.5 22.5t26.5 65.5q0 38 -25 59t-68 21q-35 0 -65 -3z" />
    <glyph glyph-name="uni0459.sc" horiz-adv-x="786" vert-adv-y="1400"
d="M665.5 343.5q50.5 -21.5 80 -62.5t29.5 -96q0 -93 -66 -142t-181 -49q-90 0 -178 11v431h-134l-21 -280q-6 -78 -34.5 -115.5t-95.5 -58.5l-50 95q25 13 36.5 33.5t15.5 69.5l24 366h389v-185q42 4 73 4q62 0 112.5 -21.5zM611.5 117.5q26.5 22.5 26.5 65.5
q0 38 -24.5 59t-69.5 21q-37 0 -64 -3v-162q26 -3 60 -3q45 0 71.5 22.5z" />
    <glyph glyph-name="uni045A.sc" horiz-adv-x="851" vert-adv-y="1400"
d="M776 305.5q65 -46.5 65 -127.5q0 -90 -67 -137t-188 -47q-92 0 -178 11v237h-198v-242h-130v546h130v-198h198v198h131v-197q29 3 71 3q101 0 166 -46.5zM677 115.5q28 20.5 28 60.5q0 37 -26 56t-77 19q-39 0 -63 -4v-149q26 -3 59 -3q51 0 79 20.5z" />
    <glyph glyph-name="uni0455.sc" horiz-adv-x="480" vert-adv-y="1400"
d="M441 511l-47 -94q-70 34 -141 34q-41 0 -63 -12.5t-22 -34.5q0 -17 9.5 -28.5t35 -22.5t77.5 -27q88 -27 126.5 -67t38.5 -101q0 -80 -62.5 -123.5t-166.5 -43.5q-65 0 -116 14.5t-95 43.5l61 96q38 -24 73 -36t78 -12q42 0 68 13.5t26 40.5q0 18 -10.5 31t-37 25.5
t-77.5 27.5q-86 25 -123.5 64t-37.5 100q0 69 56.5 112.5t159.5 43.5q107 0 190 -44z" />
    <glyph glyph-name="uni0454.sc" horiz-adv-x="522" vert-adv-y="1400"
d="M481 32q-71 -41 -164 -41q-81 0 -143.5 33t-98 96.5t-35.5 150.5q0 85 35 149t99 99.5t148 35.5q46 0 82 -9t71 -25l-38 -95q-30 12 -53.5 18t-56.5 6q-56 0 -93.5 -31t-50.5 -89h239v-101h-242q10 -66 48.5 -99t100.5 -33q34 0 60.5 7t56.5 21z" />
    <glyph glyph-name="uni044D.sc" horiz-adv-x="505" vert-adv-y="1400"
d="M397 480.5q68 -74.5 68 -209.5q0 -84 -33.5 -147.5t-94 -98t-138.5 -34.5q-52 0 -95 13t-72 31l44 91q29 -15 55.5 -22t63.5 -7q57 0 92 34t42 98h-206v101h207q-7 63 -38.5 91.5t-88.5 28.5q-36 0 -65 -7t-62 -22l-44 90q38 22 80 33t96 11q121 0 189 -74.5z" />
    <glyph glyph-name="uni0456.sc" horiz-adv-x="291" vert-adv-y="1400"
d="M210 0h-130v546h130v-546z" />
    <glyph glyph-name="uni0457.sc" horiz-adv-x="291" vert-adv-y="1400"
d="M210 0h-130v546h130v-546zM96 754.5q22 -22.5 22 -56.5t-22 -56t-56 -22q-33 0 -56 22.5t-23 55.5q0 34 22.5 56.5t56.5 22.5t56 -22.5zM306 754.5q23 -22.5 23 -56.5t-22.5 -56t-56.5 -22t-56 22t-22 56t22 56.5t56 22.5q33 0 56 -22.5z" />
    <glyph glyph-name="uni0458.sc" horiz-adv-x="396" vert-adv-y="1400"
d="M326 173q0 -90 -53 -136t-133 -46q-88 0 -146 49l56 80q21 -12 37.5 -18t38.5 -6q32 0 50.5 19t18.5 57v374h131v-373z" />
    <glyph glyph-name="uni045B.sc" horiz-adv-x="673" vert-adv-y="1400"
d="M535.5 338.5q42.5 -20.5 68 -60t25.5 -92.5v-187h-130v176q0 40 -24.5 59.5t-63.5 19.5q-29 0 -58 -12t-52 -33v-209h-130v442h-164v104h457v-104h-163v-135q60 52 143 52q49 0 91.5 -20.5z" />
    <glyph glyph-name="uni044E.sc" horiz-adv-x="869" vert-adv-y="1400"
d="M703 518.5q61 -36.5 93 -101t32 -145.5q0 -82 -32 -145.5t-92.5 -99.5t-144.5 -36q-75 0 -131.5 31.5t-90 86t-43.5 122.5h-84v-231h-130v546h130v-214h87q17 99 85.5 161t176.5 62q83 0 144 -36.5zM658 144q34 48 34 128q0 76 -34 127t-99 51q-67 0 -100.5 -47.5
t-33.5 -128.5q0 -77 34.5 -127.5t99.5 -50.5t99 48z" />
    <glyph glyph-name="uni044F.sc" horiz-adv-x="543" vert-adv-y="1400"
d="M463 542v-542h-131v197h-49q-28 0 -47 -20t-43 -74l-50 -117l-118 42l50 113q19 42 37 63t49 33q-51 17 -78 49.5t-27 89.5q0 50 26.5 89.5t80 63t130.5 23.5q90 0 170 -10zM332 447q-18 2 -51 2q-46 0 -70 -18.5t-24 -53.5q0 -37 24.5 -56.5t69.5 -19.5h51v146z" />
    <glyph glyph-name="uni0452.sc" horiz-adv-x="673" vert-adv-y="1400"
d="M535.5 338.5q42.5 -20.5 68 -60t25.5 -92.5v-232q0 -91 -53.5 -138.5t-136.5 -47.5q-65 0 -112 25l33 95q30 -10 65 -10t54.5 22t19.5 65v210q0 40 -24.5 59.5t-63.5 19.5q-29 0 -58 -12t-52 -33v-209h-130v442h-164v104h457v-104h-163v-135q60 52 143 52
q49 0 91.5 -20.5z" />
    <glyph glyph-name="uni0463.sc" horiz-adv-x="533" vert-adv-y="1400"
d="M404.5 328q52.5 -21 82.5 -59.5t30 -90.5q0 -88 -67.5 -136t-187.5 -48q-92 0 -178 11v396h-82v91h82v54h130v-54h166v-91h-166v-56q42 4 73 4q65 0 117.5 -21zM352 116q28 21 28 59q0 34 -26 53t-75 19q-38 0 -65 -3v-146q51 -3 62 -3q48 0 76 21z" />
    <glyph glyph-name="uni0473.sc" horiz-adv-x="640" vert-adv-y="1400"
d="M469.5 518.5q63.5 -36.5 97 -101t33.5 -145.5t-33.5 -145t-96.5 -100t-150 -36q-86 0 -149.5 37t-97 101t-33.5 145q0 82 33.5 145.5t96.5 99.5t150 36q86 0 149.5 -36.5zM210.5 411q-38.5 -42 -43.5 -115q40 35 87 35q19 0 33 -4t38 -13q19 -8 33 -12.5t32 -4.5
q21 0 39.5 7t39.5 21q-12 58 -50 93t-99 35q-71 0 -109.5 -42zM428.5 133.5q38.5 40.5 44.5 112.5q-18 -17 -38 -24.5t-47 -7.5q-20 0 -35.5 4.5t-39.5 14.5q-21 8 -34 12t-28 4q-40 0 -79 -33q13 -57 50 -90t98 -33q70 0 108.5 40.5z" />
    <glyph glyph-name="uni0475.sc" horiz-adv-x="555" vert-adv-y="1400"
d="M510.5 431q-16.5 -12 -28.5 -46l-140 -385h-128l-207 512l127 43l144 -421l94 298q16 50 39.5 76t54 34t76.5 8l15 -105q-30 -2 -46.5 -14z" />
    <glyph glyph-name="uni0493.sc" horiz-adv-x="456" vert-adv-y="1400"
d="M221 436v-115h123v-95h-123v-226h-130v226h-71v95h71v225h368v-110h-238z" />
    <glyph glyph-name="uni0497.sc" horiz-adv-x="750" vert-adv-y="1400"
d="M753 110v-276h-105l-23 166h-34l-134 229q-20 -5 -41 -5v-224h-121v224q-15 0 -39 4l-158 -240l-93 62l155 225q-16 12 -27.5 27t-21.5 39l-24 54q-13 31 -29.5 43t-44.5 13l19 99q51 0 85 -19t56 -68l39 -86q26 -51 83 -53v222h121v-222q59 2 84 53l38 86q23 49 57 68
t84 19l18 -99q-28 -1 -44.5 -12.5t-30.5 -43.5l-24 -54q-17 -41 -43 -62l111 -169h87z" />
    <glyph glyph-name="uni049B.sc" horiz-adv-x="589" vert-adv-y="1400"
d="M592 110v-276h-105l-23 166h-41v2l-1 -1l-143 228q-30 -6 -69 -5v-224h-130v546h130v-220q43 1 61 11t35 40l53 90q26 45 61 64.5t85 18.5l17 -103q-29 -2 -46 -12.5t-31 -38.5l-29 -50q-22 -40 -39 -59l120 -177h95z" />
    <glyph glyph-name="uni04A3.sc" horiz-adv-x="623" vert-adv-y="1400"
d="M630 110v-276h-105l-23 166h-90v229h-202v-229h-130v546h130v-212h202v212h131v-436h87z" />
    <glyph glyph-name="uni04AF.sc" horiz-adv-x="534" vert-adv-y="1400"
d="M423 555l104 -64l-193 -282v-209h-130v207l-197 284l109 63l154 -254z" />
    <glyph glyph-name="uni04B1.sc" horiz-adv-x="534" vert-adv-y="1400"
d="M361 249h76v-87h-103v-162h-130v162h-102v87h73l-168 242l109 63l154 -254l153 255l104 -64z" />
    <glyph glyph-name="uni04B3.sc" horiz-adv-x="567" vert-adv-y="1400"
d="M570 110v-276h-105l-23 166h-41l-145 203l-151 -213l-98 75l177 211l-171 212l107 69l137 -201l141 202l99 -70l-168 -203l146 -175h95z" />
    <glyph glyph-name="uni04B7.sc" horiz-adv-x="562" vert-adv-y="1400"
d="M567 110v-276h-105l-23 166h-88v199q-60 -53 -146 -53q-49 0 -90.5 20.5t-66 59.5t-24.5 93v227h130v-216q0 -78 84 -78q31 0 60.5 11.5t52.5 32.5v250h131v-436h85z" />
    <glyph glyph-name="uni04BB.sc" horiz-adv-x="573" vert-adv-y="1400"
d="M448.5 359q41.5 -20 66 -59t24.5 -93v-207h-130v197q0 40 -23 58.5t-62 18.5q-31 0 -61 -12t-53 -33v-229h-130v546h130v-220q61 53 147 53q50 0 91.5 -20z" />
    <glyph glyph-name="uni04CF.sc" horiz-adv-x="291" vert-adv-y="1400"
d="M210 0h-130v546h130v-546z" />
    <glyph glyph-name="uni04D9.sc" horiz-adv-x="601" vert-adv-y="1400"
d="M491 480.5q70 -74.5 70 -209.5q0 -84 -33 -147.5t-93 -98t-139 -34.5q-124 0 -192.5 83t-68.5 256h391q-7 63 -41 92t-97 29q-42 0 -73 -6.5t-69 -22.5l-42 89q45 22 89.5 33t100.5 11q127 0 197 -74.5zM387 131q34 35 39 103h-256q6 -70 38.5 -104t87.5 -34q57 0 91 35z
" />
    <glyph glyph-name="uni04E3.sc" horiz-adv-x="623" vert-adv-y="1400"
d="M543 546v-546h-131v314l-202 -231v-83h-130v546h130v-318l202 233v85h131zM472 635h-320v101h320v-101z" />
    <glyph glyph-name="uni04E9.sc" horiz-adv-x="640" vert-adv-y="1400"
d="M469.5 518.5q63.5 -36.5 97 -101t33.5 -145.5t-33.5 -145t-96.5 -100t-150 -36q-86 0 -149.5 37t-97 101t-33.5 145q0 82 33.5 145.5t96.5 99.5t150 36q86 0 149.5 -36.5zM217.5 418q-38.5 -35 -48.5 -98h300q-11 60 -49 96.5t-100 36.5q-64 0 -102.5 -35zM422.5 128
q37.5 35 47.5 98h-300q11 -60 49 -96.5t101 -36.5q65 0 102.5 35z" />
    <glyph glyph-name="uni04EF.sc" horiz-adv-x="527" vert-adv-y="1400"
d="M546 509l-194 -363q-45 -83 -93 -118.5t-115 -35.5q-71 0 -120 37l45 86q20 -10 35.5 -14.5t36.5 -4.5q29 0 49.5 15t45.5 57l-136 233q-14 25 -30.5 34.5t-41.5 9.5l23 102q56 0 92 -21t62 -72l95 -176l138 277zM444 635h-320v101h320v-101z" />
    <glyph glyph-name="Alpha" unicode="&#x391;" horiz-adv-x="684" vert-adv-y="1400"
d="M677 35l-127 -47l-69 186h-284l-69 -186l-121 47l268 665h138zM441 285l-99 284l-104 -284h203z" />
    <glyph glyph-name="Beta" unicode="&#x392;" horiz-adv-x="631" vert-adv-y="1400"
d="M440.5 682.5q64.5 -25.5 98 -69t33.5 -97.5q0 -53 -29.5 -88t-87.5 -57q71 -22 106 -61.5t35 -105.5q0 -63 -36.5 -111t-105 -74.5t-163.5 -26.5q-111 0 -211 14v688q120 14 208 14t152.5 -25.5zM218 596v-183h86q59 0 93.5 24.5t34.5 69.5t-34.5 69t-98.5 24
q-35 0 -81 -4zM218 309v-203q31 -4 88 -4q68 0 107 26t39 77t-37.5 77.5t-106.5 26.5h-90z" />
    <glyph glyph-name="Gamma" unicode="&#x393;" horiz-adv-x="516" vert-adv-y="1400"
d="M519 700v-117h-301v-583h-138v700h439z" />
    <glyph glyph-name="uni0394" unicode="&#x394;" horiz-adv-x="645" vert-adv-y="1400"
d="M623 99v-99h-601v99l232 601h138zM483 114l-162 451l-166 -451h328z" />
    <glyph glyph-name="Epsilon" unicode="&#x395;" horiz-adv-x="565" vert-adv-y="1400"
d="M526 700v-114h-308v-169h264v-110h-264v-193h308v-114h-446v700h446z" />
    <glyph glyph-name="Zeta" unicode="&#x396;" horiz-adv-x="555" vert-adv-y="1400"
d="M362 585h-322v115h485v-97l-343 -484h356v-119h-516v102z" />
    <glyph glyph-name="Eta" unicode="&#x397;" horiz-adv-x="711" vert-adv-y="1400"
d="M218 304v-304h-138v700h138v-282h276v282h137v-700h-137v304h-276z" />
    <glyph glyph-name="Theta" unicode="&#x398;" horiz-adv-x="758" vert-adv-y="1400"
d="M559.5 664.5q76.5 -47.5 117.5 -130t41 -184.5q0 -104 -40.5 -186t-117.5 -129t-181 -47t-180.5 48t-117.5 130.5t-41 184.5q0 104 40.5 186t117.5 128.5t181 46.5t180.5 -47.5zM235 530q-51 -68 -51 -179q0 -67 23 -124t67 -91t105 -34q94 0 144.5 68t50.5 180
q0 67 -23 123.5t-67 90.5t-105 34q-93 0 -144 -68zM498 310h-235v101h235v-101z" />
    <glyph glyph-name="Iota" unicode="&#x399;" horiz-adv-x="298" vert-adv-y="1400"
d="M80 700h138v-700h-138v700z" />
    <glyph glyph-name="Kappa" unicode="&#x39a;" horiz-adv-x="613" vert-adv-y="1400"
d="M589 627l-252 -265l290 -283l-92 -96l-317 320v-303h-138v700h138v-299l278 308z" />
    <glyph glyph-name="Lambda" unicode="&#x39b;" horiz-adv-x="661" vert-adv-y="1400"
d="M520 -11l-192 561l-193 -561l-128 39l253 672h140l254 -672z" />
    <glyph glyph-name="Mu" unicode="&#x39c;" horiz-adv-x="847" vert-adv-y="1400"
d="M767 0h-138v524l-149 -381h-118l-150 381v-524h-132v700h182l160 -419l161 419h184v-700z" />
    <glyph glyph-name="Nu" unicode="&#x39d;" horiz-adv-x="711" vert-adv-y="1400"
d="M631 0h-173l-246 516v-516h-132v700h174l246 -518v518h131v-700z" />
    <glyph glyph-name="Xi" unicode="&#x39e;" horiz-adv-x="538" vert-adv-y="1400"
d="M505 581h-471v119h471v-119zM433 304h-327v115h327v-115zM505 0h-471v121h471v-121z" />
    <glyph glyph-name="Omicron" unicode="&#x39f;" horiz-adv-x="758" vert-adv-y="1400"
d="M559.5 664.5q76.5 -47.5 117.5 -130t41 -184.5q0 -104 -40.5 -186t-117.5 -129t-181 -47t-180.5 48t-117.5 130.5t-41 184.5q0 104 40.5 186t117.5 128.5t181 46.5t180.5 -47.5zM235 530q-51 -68 -51 -179q0 -67 23 -124t67 -91t105 -34q94 0 144.5 68t50.5 180
q0 67 -23 123.5t-67 90.5t-105 34q-93 0 -144 -68z" />
    <glyph glyph-name="Pi" unicode="&#x3a0;" horiz-adv-x="698" vert-adv-y="1400"
d="M218 586v-586h-138v700h538v-700h-138v586h-262z" />
    <glyph glyph-name="Rho" unicode="&#x3a1;" horiz-adv-x="593" vert-adv-y="1400"
d="M282 708q95 0 162 -29t101 -81t34 -119q0 -116 -82.5 -179.5t-219.5 -63.5q-34 0 -59 3v-239h-138v696q106 12 202 12zM400.5 380q39.5 33 39.5 95q0 57 -39 89.5t-111 32.5q-39 0 -72 -3v-244q27 -3 68 -3q75 0 114.5 33z" />
    <glyph glyph-name="Sigma" unicode="&#x3a3;" horiz-adv-x="520" vert-adv-y="1400"
d="M503 590h-305l192 -203v-65l-196 -207h309v-115h-481v98l241 253l-241 256v93h481v-110z" />
    <glyph glyph-name="Tau" unicode="&#x3a4;" horiz-adv-x="563" vert-adv-y="1400"
d="M557 700v-116h-206v-584h-138v584h-206v116h550z" />
    <glyph glyph-name="Upsilon" unicode="&#x3a5;" horiz-adv-x="641" vert-adv-y="1400"
d="M624 597q-27 -11 -49.5 -31.5t-53.5 -72.5l-134 -227v-266h-137v266l-243 377l119 67l194 -331l101 189q27 51 48 78.5t45 42.5t60 23z" />
    <glyph glyph-name="Phi" unicode="&#x3a6;" horiz-adv-x="795" vert-adv-y="1400"
d="M734.5 215q-35.5 -62 -104 -101.5t-164.5 -49.5v-64h-137v63q-146 15 -225 91.5t-79 198.5q0 76 35.5 138t104 101.5t164.5 49.5v58h137v-57q146 -15 225 -91t79 -198q0 -77 -35.5 -139zM586.5 219.5q42.5 47.5 42.5 134.5t-42.5 134t-131.5 57v-383q89 10 131.5 57.5z
M208.5 219q42.5 -47 131.5 -57v383q-90 -11 -132 -58t-42 -134t42.5 -134z" />
    <glyph glyph-name="Chi" unicode="&#x3a7;" horiz-adv-x="621" vert-adv-y="1400"
d="M15 635l113 76l180 -264l183 263l105 -75l-209 -271l227 -295l-112 -80l-195 282l-196 -282l-104 80l223 286z" />
    <glyph glyph-name="Psi" unicode="&#x3a8;" horiz-adv-x="721" vert-adv-y="1400"
d="M702 697q-9 -34 -13 -78t-4 -140q0 -123 -64 -190t-193 -81v-208h-137v208q-130 13 -196 77t-66 175v240h132v-240q0 -63 31 -96.5t104 -42.5v349h127v-350q73 9 103 47t30 119q0 97 4 140t16 80z" />
    <glyph glyph-name="uni03A9" unicode="&#x3a9;" horiz-adv-x="775" vert-adv-y="1400"
d="M564.5 666q75.5 -46 115.5 -125.5t40 -176.5q0 -84 -30.5 -145t-89.5 -109l135 -8v-102h-290v95q68 53 100 114.5t32 152.5q0 66 -22.5 120t-65.5 85t-102 31q-87 0 -137.5 -65.5t-50.5 -170.5q0 -85 32.5 -150.5t96.5 -116.5v-95h-288v102l132 8q-60 51 -88.5 112.5
t-28.5 139.5q0 97 40.5 177t115.5 126.5t176 46.5q102 0 177.5 -46z" />
    <glyph glyph-name="Alphatonos" unicode="&#x386;" horiz-adv-x="684" vert-adv-y="1400"
d="M116 516l-76 29l83 208l107 -53zM677 35l-127 -47l-69 186h-284l-69 -186l-121 47l268 665h138zM441 285l-99 284l-104 -284h203z" />
    <glyph glyph-name="Epsilontonos" unicode="&#x388;" horiz-adv-x="565" vert-adv-y="1400"
d="M-47 753l107 -53l-114 -184l-76 29zM526 700v-114h-308v-169h264v-110h-264v-193h308v-114h-446v700h446z" />
    <glyph glyph-name="Etatonos" unicode="&#x389;" horiz-adv-x="711" vert-adv-y="1400"
d="M-47 753l107 -53l-114 -184l-76 29zM218 304v-304h-138v700h138v-282h276v282h137v-700h-137v304h-276z" />
    <glyph glyph-name="Iotatonos" unicode="&#x38a;" horiz-adv-x="298" vert-adv-y="1400"
d="M-47 753l107 -53l-114 -184l-76 29zM80 700h138v-700h-138v700z" />
    <glyph glyph-name="Omicrontonos" unicode="&#x38c;" horiz-adv-x="758" vert-adv-y="1400"
d="M8 753l107 -53l-114 -184l-76 29zM559.5 664.5q76.5 -47.5 117.5 -130t41 -184.5q0 -104 -40.5 -186t-117.5 -129t-181 -47t-180.5 48t-117.5 130.5t-41 184.5q0 104 40.5 186t117.5 128.5t181 46.5t180.5 -47.5zM235 530q-51 -68 -51 -179q0 -67 23 -124t67 -91t105 -34
q94 0 144.5 68t50.5 180q0 67 -23 123.5t-67 90.5t-105 34q-93 0 -144 -68z" />
    <glyph glyph-name="Upsilontonos" unicode="&#x38e;" horiz-adv-x="641" vert-adv-y="1400"
d="M-88 753l107 -53l-114 -184l-76 29zM624 597q-27 -11 -49.5 -31.5t-53.5 -72.5l-134 -227v-266h-137v266l-243 377l119 67l194 -331l101 189q27 51 48 78.5t45 42.5t60 23z" />
    <glyph glyph-name="Omegatonos" unicode="&#x38f;" horiz-adv-x="775" vert-adv-y="1400"
d="M19 753l107 -53l-114 -184l-76 29zM564.5 666q75.5 -46 115.5 -125.5t40 -176.5q0 -84 -30.5 -145t-89.5 -109l135 -8v-102h-290v95q68 53 100 114.5t32 152.5q0 66 -22.5 120t-65.5 85t-102 31q-87 0 -137.5 -65.5t-50.5 -170.5q0 -85 32.5 -150.5t96.5 -116.5v-95h-288
v102l132 8q-60 51 -88.5 112.5t-28.5 139.5q0 97 40.5 177t115.5 126.5t176 46.5q102 0 177.5 -46z" />
    <glyph glyph-name="Iotadieresis" unicode="&#x3aa;" horiz-adv-x="298" vert-adv-y="1400"
d="M80 700h138v-700h-138v700zM101 899.5q22 -22.5 22 -56.5t-22 -56t-56 -22q-33 0 -56 22.5t-23 55.5q0 34 22.5 56.5t56.5 22.5t56 -22.5zM311 899.5q23 -22.5 23 -56.5t-22.5 -56t-56.5 -22t-56 22t-22 56t22 56.5t56 22.5q33 0 56 -22.5z" />
    <glyph glyph-name="Upsilondieresis" unicode="&#x3ab;" horiz-adv-x="641" vert-adv-y="1400"
d="M624 597q-27 -11 -49.5 -31.5t-53.5 -72.5l-134 -227v-266h-137v266l-243 377l119 67l194 -331l101 189q27 51 48 78.5t45 42.5t60 23zM271 899.5q22 -22.5 22 -56.5t-22 -56t-56 -22q-33 0 -56 22.5t-23 55.5q0 34 22.5 56.5t56.5 22.5t56 -22.5zM481 899.5
q23 -22.5 23 -56.5t-22.5 -56t-56.5 -22t-56 22t-22 56t22 56.5t56 22.5q33 0 56 -22.5z" />
    <glyph glyph-name="uni1FBA" unicode="&#x1fba;" horiz-adv-x="684" vert-adv-y="1400"
d="M677 35l-127 -47l-69 186h-284l-69 -186l-121 47l268 665h138zM441 285l-99 284l-104 -284h203zM446 748l-230 109l55 111l219 -141z" />
    <glyph glyph-name="uni1FBB" unicode="&#x1fbb;" horiz-adv-x="684" vert-adv-y="1400"
d="M677 35l-127 -47l-69 186h-284l-69 -186l-121 47l268 665h138zM441 285l-99 284l-104 -284h203zM415 968l55 -111l-229 -109l-45 79z" />
    <glyph glyph-name="uni1FB8" unicode="&#x1fb8;" horiz-adv-x="684" vert-adv-y="1400"
d="M677 35l-127 -47l-69 186h-284l-69 -186l-121 47l268 665h138zM441 285l-99 284l-104 -284h203zM537 881q-28 -54 -76.5 -85.5t-117.5 -31.5t-118 31.5t-77 85.5l77 51q22 -31 49.5 -47.5t68.5 -16.5q40 0 67.5 16t50.5 48z" />
    <glyph glyph-name="uni1FB9" unicode="&#x1fb9;" horiz-adv-x="684" vert-adv-y="1400"
d="M677 35l-127 -47l-69 186h-284l-69 -186l-121 47l268 665h138zM441 285l-99 284l-104 -284h203zM503 780h-320v101h320v-101z" />
    <glyph glyph-name="uni1FC8" unicode="&#x1fc8;" horiz-adv-x="565" vert-adv-y="1400"
d="M526 700v-114h-308v-169h264v-110h-264v-193h308v-114h-446v700h446zM416 748l-230 109l55 111l219 -141z" />
    <glyph glyph-name="uni1FC9" unicode="&#x1fc9;" horiz-adv-x="565" vert-adv-y="1400"
d="M526 700v-114h-308v-169h264v-110h-264v-193h308v-114h-446v700h446zM385 968l55 -111l-229 -109l-45 79z" />
    <glyph glyph-name="uni1FCA" unicode="&#x1fca;" horiz-adv-x="711" vert-adv-y="1400"
d="M218 304v-304h-138v700h138v-282h276v282h137v-700h-137v304h-276zM461 748l-230 109l55 111l219 -141z" />
    <glyph glyph-name="uni1FCB" unicode="&#x1fcb;" horiz-adv-x="711" vert-adv-y="1400"
d="M218 304v-304h-138v700h138v-282h276v282h137v-700h-137v304h-276zM430 968l55 -111l-229 -109l-45 79z" />
    <glyph glyph-name="uni1FDA" unicode="&#x1fda;" horiz-adv-x="298" vert-adv-y="1400"
d="M80 700h138v-700h-138v700zM253 748l-230 109l55 111l219 -141z" />
    <glyph glyph-name="uni1FDB" unicode="&#x1fdb;" horiz-adv-x="298" vert-adv-y="1400"
d="M80 700h138v-700h-138v700zM222 968l55 -111l-229 -109l-45 79z" />
    <glyph glyph-name="uni1FD8" unicode="&#x1fd8;" horiz-adv-x="298" vert-adv-y="1400"
d="M80 700h138v-700h-138v700zM344 881q-28 -54 -76.5 -85.5t-117.5 -31.5t-118 31.5t-77 85.5l77 51q22 -31 49.5 -47.5t68.5 -16.5q40 0 67.5 16t50.5 48z" />
    <glyph glyph-name="uni1FD9" unicode="&#x1fd9;" horiz-adv-x="298" vert-adv-y="1400"
d="M80 700h138v-700h-138v700zM310 780h-320v101h320v-101z" />
    <glyph glyph-name="uni1FF8" unicode="&#x1ff8;" horiz-adv-x="758" vert-adv-y="1400"
d="M559.5 664.5q76.5 -47.5 117.5 -130t41 -184.5q0 -104 -40.5 -186t-117.5 -129t-181 -47t-180.5 48t-117.5 130.5t-41 184.5q0 104 40.5 186t117.5 128.5t181 46.5t180.5 -47.5zM235 530q-51 -68 -51 -179q0 -67 23 -124t67 -91t105 -34q94 0 144.5 68t50.5 180
q0 67 -23 123.5t-67 90.5t-105 34q-93 0 -144 -68zM483 748l-230 109l55 111l219 -141z" />
    <glyph glyph-name="uni1FF9" unicode="&#x1ff9;" horiz-adv-x="758" vert-adv-y="1400"
d="M559.5 664.5q76.5 -47.5 117.5 -130t41 -184.5q0 -104 -40.5 -186t-117.5 -129t-181 -47t-180.5 48t-117.5 130.5t-41 184.5q0 104 40.5 186t117.5 128.5t181 46.5t180.5 -47.5zM235 530q-51 -68 -51 -179q0 -67 23 -124t67 -91t105 -34q94 0 144.5 68t50.5 180
q0 67 -23 123.5t-67 90.5t-105 34q-93 0 -144 -68zM452 968l55 -111l-229 -109l-45 79z" />
    <glyph glyph-name="uni1FEA" unicode="&#x1fea;" horiz-adv-x="641" vert-adv-y="1400"
d="M624 597q-27 -11 -49.5 -31.5t-53.5 -72.5l-134 -227v-266h-137v266l-243 377l119 67l194 -331l101 189q27 51 48 78.5t45 42.5t60 23zM423 748l-230 109l55 111l219 -141z" />
    <glyph glyph-name="uni1FEB" unicode="&#x1feb;" horiz-adv-x="641" vert-adv-y="1400"
d="M624 597q-27 -11 -49.5 -31.5t-53.5 -72.5l-134 -227v-266h-137v266l-243 377l119 67l194 -331l101 189q27 51 48 78.5t45 42.5t60 23zM392 968l55 -111l-229 -109l-45 79z" />
    <glyph glyph-name="uni1FE8" unicode="&#x1fe8;" horiz-adv-x="641" vert-adv-y="1400"
d="M624 597q-27 -11 -49.5 -31.5t-53.5 -72.5l-134 -227v-266h-137v266l-243 377l119 67l194 -331l101 189q27 51 48 78.5t45 42.5t60 23zM514 881q-28 -54 -76.5 -85.5t-117.5 -31.5t-118 31.5t-77 85.5l77 51q22 -31 49.5 -47.5t68.5 -16.5q40 0 67.5 16t50.5 48z" />
    <glyph glyph-name="uni1FE9" unicode="&#x1fe9;" horiz-adv-x="641" vert-adv-y="1400"
d="M624 597q-27 -11 -49.5 -31.5t-53.5 -72.5l-134 -227v-266h-137v266l-243 377l119 67l194 -331l101 189q27 51 48 78.5t45 42.5t60 23zM480 780h-320v101h320v-101z" />
    <glyph glyph-name="uni1FFA" unicode="&#x1ffa;" horiz-adv-x="775" vert-adv-y="1400"
d="M564.5 666q75.5 -46 115.5 -125.5t40 -176.5q0 -84 -30.5 -145t-89.5 -109l135 -8v-102h-290v95q68 53 100 114.5t32 152.5q0 66 -22.5 120t-65.5 85t-102 31q-87 0 -137.5 -65.5t-50.5 -170.5q0 -85 32.5 -150.5t96.5 -116.5v-95h-288v102l132 8q-60 51 -88.5 112.5
t-28.5 139.5q0 97 40.5 177t115.5 126.5t176 46.5q102 0 177.5 -46zM489 760l-230 109l55 111l219 -141z" />
    <glyph glyph-name="uni1FFB" unicode="&#x1ffb;" horiz-adv-x="775" vert-adv-y="1400"
d="M564.5 666q75.5 -46 115.5 -125.5t40 -176.5q0 -84 -30.5 -145t-89.5 -109l135 -8v-102h-290v95q68 53 100 114.5t32 152.5q0 66 -22.5 120t-65.5 85t-102 31q-87 0 -137.5 -65.5t-50.5 -170.5q0 -85 32.5 -150.5t96.5 -116.5v-95h-288v102l132 8q-60 51 -88.5 112.5
t-28.5 139.5q0 97 40.5 177t115.5 126.5t176 46.5q102 0 177.5 -46zM458 980l55 -111l-229 -109l-45 79z" />
    <glyph glyph-name="alpha" unicode="&#x3b1;" horiz-adv-x="606" vert-adv-y="1400"
d="M535.5 107q15.5 -12 40.5 -12l-28 -100q-57 0 -88 24t-50 92q-27 -60 -68 -91.5t-103 -31.5q-56 0 -102.5 31.5t-74 92t-27.5 143.5q0 79 28 142.5t77 99t111 35.5q72 0 116.5 -32.5t68.5 -116.5l31 128l108 -34l-89 -233l25 -95q9 -30 24.5 -42zM324.5 134
q26.5 36 49.5 115l-3 10q-15 66 -28.5 100.5t-32.5 49.5t-49 15q-44 0 -68 -42t-24 -126q0 -76 23 -117t66 -41q40 0 66.5 36z" />
    <glyph glyph-name="beta" unicode="&#x3b2;" horiz-adv-x="605" vert-adv-y="1400"
d="M534.5 331q40.5 -48 40.5 -122q0 -66 -29 -116t-81.5 -77.5t-119.5 -27.5q-78 0 -145 46q0 -85 -7 -147t-24 -119l-122 18q12 56 17.5 113.5t5.5 143.5v444q0 89 32 148.5t86.5 88t123.5 28.5q67 0 116.5 -27t76 -71.5t26.5 -95.5q0 -60 -29 -98t-85 -60
q77 -21 117.5 -69zM411 124.5q31 28.5 31 84.5q0 63 -43 98t-123 35v99q65 0 95.5 27t30.5 84q0 44 -24 70.5t-66 26.5q-56 0 -84 -43t-28 -134v-337q34 -21 63 -30t66 -9q51 0 82 28.5z" />
    <glyph glyph-name="gamma" unicode="&#x3b3;" horiz-adv-x="540" vert-adv-y="1400"
d="M312 -78q0 -62 22 -128l-112 -26q-41 66 -41 137q0 46 14 96q-33 164 -85.5 274.5t-122.5 192.5l114 61q62 -72 104.5 -168.5t65.5 -236.5q54 88 83 184.5t29 215.5l130 -8q-1 -121 -50.5 -247.5t-140.5 -250.5q-10 -50 -10 -96z" />
    <glyph glyph-name="delta" unicode="&#x3b4;" horiz-adv-x="555" vert-adv-y="1400"
d="M480.5 391q43.5 -58 43.5 -146q0 -76 -30 -134t-86.5 -90.5t-132.5 -32.5q-68 0 -123.5 28t-88.5 82.5t-33 132.5q0 80 36 133.5t109 91.5q-44 27 -65 60.5t-21 80.5q0 45 26 80.5t71.5 55t100.5 19.5t96 -13t82 -38l-53 -82q-28 14 -55 21t-61 7q-35 0 -54.5 -14
t-19.5 -39q0 -19 10 -33.5t35.5 -29.5t77.5 -39q92 -43 135.5 -101zM361.5 133q29.5 36 29.5 110q0 67 -29 104.5t-103 68.5q-51 -28 -73 -71.5t-22 -108.5q0 -70 30.5 -104.5t83.5 -34.5q54 0 83.5 36z" />
    <glyph glyph-name="epsilon" unicode="&#x3b5;" horiz-adv-x="446" vert-adv-y="1400"
d="M429 480l-48 -84q-32 17 -60 25t-64 8q-40 0 -63 -16.5t-23 -45.5q0 -57 79 -57h93v-96h-100q-84 0 -84 -60q0 -31 24 -45.5t68 -14.5t75 9.5t71 28.5l49 -84q-41 -28 -90.5 -44t-116.5 -16q-93 0 -153.5 41.5t-60.5 115.5q0 52 32.5 83.5t80.5 40.5q-44 12 -70.5 40
t-26.5 70q0 40 24 75t71 56.5t113 21.5q100 0 180 -52z" />
    <glyph glyph-name="zeta" unicode="&#x3b6;" horiz-adv-x="434" vert-adv-y="1400"
d="M428.5 34.5q38.5 -35.5 38.5 -89.5q0 -65 -41.5 -107t-114.5 -70l-38 90q33 15 49 30.5t16 38.5q0 17 -8.5 29t-32.5 25t-74 33q-97 39 -145 92t-48 149q0 111 66.5 201t171.5 159q-30 -6 -55 -6q-90 0 -137 71l70 72q28 -26 58 -39t69 -13t69 9t63 27l48 -99
q-125 -73 -206 -162t-81 -211q0 -43 13.5 -70.5t43 -47.5t83.5 -42q84 -34 122.5 -69.5z" />
    <glyph glyph-name="eta" unicode="&#x3b7;" horiz-adv-x="588" vert-adv-y="1400"
d="M528.5 -100.5q5.5 -57.5 17.5 -113.5l-122 -18q-16 57 -22.5 119t-6.5 149l1 289q0 47 -18 72.5t-52 25.5q-57 0 -110 -72v-351h-130v358q0 33 -17 47.5t-44 14.5l28 100q108 0 139 -81q65 93 162 93q81 0 125 -54t44 -145v-290q0 -86 5.5 -143.5z" />
    <glyph glyph-name="theta" unicode="&#x3b8;" horiz-adv-x="602" vert-adv-y="1400"
d="M490 657.5q71 -94.5 71 -287.5q0 -196 -72 -289t-188 -93q-119 0 -190 94.5t-71 287.5q0 197 72 289.5t189 92.5q118 0 189 -94.5zM208 596q-31 -50 -36 -175h258q-6 120 -38 172.5t-91 52.5q-62 0 -93 -50zM394.5 145q31.5 51 35.5 179h-258q5 -123 37.5 -176.5
t91.5 -53.5q62 0 93.5 51z" />
    <glyph glyph-name="iota" unicode="&#x3b9;" horiz-adv-x="276" vert-adv-y="1400"
d="M105.5 32q-45.5 37 -45.5 123v365h130v-365q0 -60 61 -60l-28 -100q-72 0 -117.5 37z" />
    <glyph glyph-name="kappa" unicode="&#x3ba;" horiz-adv-x="528" vert-adv-y="1400"
d="M493.5 105.5q13.5 -8.5 32.5 -9.5l-50 -109q-28 3 -49.5 15.5t-47.5 40.5l-163 165v-208h-130v358q0 33 -17 47.5t-44 14.5l28 100q65 0 114 -34t49 -119v-72l198 234l85 -74l-173 -194l132 -125q22 -22 35.5 -30.5z" />
    <glyph glyph-name="lambda" unicode="&#x3bb;" horiz-adv-x="549" vert-adv-y="1400"
d="M514.5 117q16.5 -16 39.5 -22l-55 -107q-46 9 -72.5 35t-46.5 82l-108 295l-161 -405l-109 46l198 468h33l-9 25q-19 65 -42 89t-57 24q-33 0 -60 -12l-31 93q46 24 102 24q66 0 112 -35t78 -121l161 -432q11 -31 27.5 -47z" />
    <glyph glyph-name="uni03BC" unicode="&#x3bc;" horiz-adv-x="597" vert-adv-y="1400"
d="M179 -113q-7 -62 -24 -119l-108 18q12 56 17.5 113.5t5.5 143.5v477h131v-332q0 -44 21.5 -67.5t56.5 -23.5q56 0 102 42v381h130v-360q0 -65 60 -65l-27 -100q-103 0 -134 70q-65 -77 -144 -77q-55 0 -80 38q0 -77 -7 -139z" />
    <glyph glyph-name="nu" unicode="&#x3bd;" horiz-adv-x="526" vert-adv-y="1400"
d="M195.5 361q36.5 -97 55.5 -244q60 83 89.5 179.5t29.5 227.5l130 -8q-1 -138 -50.5 -265.5t-155.5 -250.5h-133q-40 305 -174 468l112 61q60 -71 96.5 -168z" />
    <glyph glyph-name="xi" unicode="&#x3be;" horiz-adv-x="452" vert-adv-y="1400"
d="M373 739q45 -13 87 -38l-49 -83q-62 32 -128 32q-49 0 -75 -23.5t-26 -65.5q0 -41 26 -62t74 -21h83v-105h-84q-52 0 -84.5 -29t-32.5 -84q0 -42 14.5 -69t45 -46.5t87.5 -41.5q86 -33 125 -68.5t39 -91.5q0 -64 -41.5 -105.5t-114.5 -69.5l-38 90q33 15 49 30.5t16 38.5
q0 17 -9 29t-33.5 25t-75.5 32q-67 26 -109.5 56t-65.5 74.5t-23 110.5q0 74 38 117.5t100 60.5q-56 16 -86 49t-30 91q0 49 26.5 90.5t76.5 65.5t117 24q56 0 101 -13z" />
    <glyph glyph-name="omicron" unicode="&#x3bf;" horiz-adv-x="595" vert-adv-y="1400"
d="M435.5 497.5q60.5 -34.5 94.5 -96.5t34 -141q0 -82 -35 -143.5t-95.5 -95t-135.5 -33.5q-78 0 -139 34.5t-95 96.5t-34 141q0 82 35 143.5t96 95t137 33.5q77 0 137.5 -34.5zM199 379q-35 -43 -35 -120q0 -69 36.5 -115t97.5 -46q63 0 98 43t35 120q0 69 -36.5 115
t-96.5 46q-64 0 -99 -43z" />
    <glyph glyph-name="pi" unicode="&#x3c0;" horiz-adv-x="622" vert-adv-y="1400"
d="M526 107.5q15 -13.5 41 -13.5l-23 -99q-72 0 -117.5 37.5t-45.5 121.5v258h-138v-412h-130v412h-7q-48 0 -81 -18l-33 95q24 17 51.5 24t68.5 7h392q48 0 81 18l34 -96q-22 -15 -47 -22t-61 -8v-257q0 -34 15 -47.5z" />
    </font>
</defs>
</svg>
